<ttFont>
    <TTGlyph name="A" xMin="-1" yMin="0" xMax="1386" yMax="1324">
      <contour>
        <pt x="810" y="620" on="1"/>
        <pt x="613" y="1112" on="1"/>
        <pt x="430" y="620" on="1"/>
      </contour>
      <contour>
        <pt x="932" y="108" on="0"/>
        <pt x="968" y="150" on="0"/>
        <pt x="968" y="192" on="0"/>
        <pt x="953" y="245" on="0"/>
        <pt x="930" y="313" on="0"/>
        <pt x="901" y="389" on="0"/>
        <pt x="888" y="424" on="1"/>
        <pt x="854" y="510" on="0"/>
        <pt x="847" y="532" on="1"/>
        <pt x="396" y="532" on="1"/>
        <pt x="391" y="518" on="0"/>
        <pt x="370" y="466" on="0"/>
        <pt x="344" y="399" on="0"/>
        <pt x="317" y="325" on="0"/>
        <pt x="306" y="290" on="1"/>
        <pt x="280" y="212" on="0"/>
        <pt x="280" y="145" on="0"/>
        <pt x="315" y="106" on="0"/>
        <pt x="341" y="94" on="1"/>
        <pt x="375" y="77" on="0"/>
        <pt x="471" y="57" on="1"/>
        <pt x="471" y="0" on="1"/>
        <pt x="-1" y="0" on="1"/>
        <pt x="-1" y="52" on="1"/>
        <pt x="19" y="69" on="0"/>
        <pt x="62" y="86" on="0"/>
        <pt x="83" y="95" on="1"/>
        <pt x="135" y="117" on="0"/>
        <pt x="173" y="189" on="0"/>
        <pt x="194" y="245" on="0"/>
        <pt x="205" y="273" on="1"/>
        <pt x="579" y="1231" on="1"/>
        <pt x="583" y="1241" on="0"/>
        <pt x="584" y="1266" on="0"/>
        <pt x="585" y="1278" on="1"/>
        <pt x="588" y="1311" on="0"/>
        <pt x="598" y="1324" on="1"/>
        <pt x="692" y="1324" on="0"/>
        <pt x="754" y="1277" on="1"/>
        <pt x="1213" y="176" on="1"/>
        <pt x="1237" y="120" on="0"/>
        <pt x="1286" y="94" on="1"/>
        <pt x="1309" y="83" on="0"/>
        <pt x="1359" y="66" on="0"/>
        <pt x="1386" y="52" on="1"/>
        <pt x="1384" y="0" on="1"/>
        <pt x="802" y="0" on="1"/>
        <pt x="800" y="52" on="1"/>
        <pt x="880" y="78" on="0"/>
      </contour>
    </TTGlyph>
    <TTGlyph name="AE" xMin="-48" yMin="-22" xMax="1889" yMax="1324">
      <contour>
        <pt x="1689" y="466" on="1"/>
        <pt x="1659" y="464" on="0"/>
        <pt x="1631" y="464" on="1"/>
        <pt x="1563" y="548" on="0"/>
        <pt x="1533" y="577" on="1"/>
        <pt x="1472" y="636" on="0"/>
        <pt x="1415" y="638" on="1"/>
        <pt x="1060" y="638" on="1"/>
        <pt x="1142" y="256" on="1"/>
        <pt x="1151" y="223" on="0"/>
        <pt x="1165" y="163" on="0"/>
        <pt x="1174" y="140" on="1"/>
        <pt x="1195" y="88" on="0"/>
        <pt x="1233" y="78" on="1"/>
        <pt x="1256" y="71" on="0"/>
        <pt x="1308" y="71" on="0"/>
        <pt x="1341" y="70" on="1"/>
        <pt x="1471" y="73" on="1"/>
        <pt x="1584" y="73" on="0"/>
        <pt x="1653" y="101" on="1"/>
        <pt x="1689" y="110" on="0"/>
        <pt x="1731" y="163" on="0"/>
        <pt x="1765" y="229" on="0"/>
        <pt x="1803" y="299" on="0"/>
        <pt x="1835" y="325" on="1"/>
        <pt x="1857" y="325" on="0"/>
        <pt x="1889" y="322" on="1"/>
        <pt x="1833" y="-20" on="1"/>
        <pt x="1791" y="-22" on="0"/>
        <pt x="1745" y="-22" on="0"/>
        <pt x="1733" y="-15" on="0"/>
        <pt x="1727" y="-11" on="1"/>
        <pt x="1710" y="0" on="0"/>
        <pt x="1692" y="0" on="1"/>
        <pt x="735" y="0" on="1"/>
        <pt x="735" y="40" on="1"/>
        <pt x="735" y="46" on="0"/>
        <pt x="736" y="52" on="1"/>
        <pt x="823" y="73" on="0"/>
        <pt x="854" y="93" on="1"/>
        <pt x="917" y="132" on="0"/>
        <pt x="917" y="193" on="1"/>
        <pt x="912" y="241" on="1"/>
        <pt x="845" y="609" on="1"/>
        <pt x="461" y="609" on="1"/>
        <pt x="323" y="358" on="1"/>
        <pt x="310" y="335" on="0"/>
        <pt x="283" y="290" on="0"/>
        <pt x="272" y="268" on="1"/>
        <pt x="245" y="216" on="0"/>
        <pt x="245" y="144" on="0"/>
        <pt x="281" y="104" on="0"/>
        <pt x="337" y="80" on="0"/>
        <pt x="405" y="65" on="0"/>
        <pt x="438" y="55" on="1"/>
        <pt x="438" y="47" on="0"/>
        <pt x="436" y="33" on="0"/>
        <pt x="435" y="25" on="1"/>
        <pt x="433" y="0" on="1"/>
        <pt x="-47" y="0" on="1"/>
        <pt x="-48" y="25" on="1"/>
        <pt x="-48" y="38" on="0"/>
        <pt x="-46" y="52" on="1"/>
        <pt x="-26" y="63" on="0"/>
        <pt x="24" y="83" on="0"/>
        <pt x="50" y="98" on="1"/>
        <pt x="111" y="132" on="0"/>
        <pt x="144" y="192" on="1"/>
        <pt x="449" y="744" on="0"/>
        <pt x="591" y="1006" on="1"/>
        <pt x="636" y="1092" on="0"/>
        <pt x="636" y="1198" on="0"/>
        <pt x="601" y="1224" on="1"/>
        <pt x="646" y="1314" on="0"/>
        <pt x="656" y="1324" on="1"/>
        <pt x="756" y="1324" on="0"/>
        <pt x="808" y="1305" on="1"/>
        <pt x="1546" y="1305" on="1"/>
        <pt x="1571" y="1305" on="0"/>
        <pt x="1603" y="1323" on="1"/>
        <pt x="1649" y="1323" on="0"/>
        <pt x="1685" y="1320" on="1"/>
        <pt x="1741" y="997" on="1"/>
        <pt x="1715" y="995" on="0"/>
        <pt x="1690" y="995" on="1"/>
        <pt x="1659" y="1015" on="0"/>
        <pt x="1619" y="1079" on="0"/>
        <pt x="1583" y="1144" on="0"/>
        <pt x="1541" y="1198" on="0"/>
        <pt x="1508" y="1207" on="1"/>
        <pt x="1395" y="1231" on="0"/>
        <pt x="1224" y="1231" on="1"/>
        <pt x="1124" y="1231" on="1"/>
        <pt x="1004" y="1231" on="0"/>
        <pt x="928" y="1209" on="1"/>
        <pt x="954" y="1085" on="0"/>
        <pt x="1016" y="842" on="0"/>
        <pt x="1045" y="719" on="1"/>
        <pt x="1308" y="719" on="1"/>
        <pt x="1388" y="719" on="0"/>
        <pt x="1452" y="729" on="1"/>
        <pt x="1507" y="743" on="0"/>
        <pt x="1528" y="845" on="1"/>
        <pt x="1534" y="871" on="0"/>
        <pt x="1540" y="893" on="1"/>
        <pt x="1562" y="893" on="0"/>
        <pt x="1594" y="891" on="1"/>
      </contour>
      <contour>
        <pt x="831" y="685" on="1"/>
        <pt x="745" y="1130" on="1"/>
        <pt x="502" y="685" on="1"/>
      </contour>
    </TTGlyph>
    <TTGlyph name="Aacute" xMin="-3" yMin="0" xMax="1384" yMax="1972">
      <component glyphName="A" x="-2" y="0" flags="0x1004"/>
      <component glyphName="acute" x="238" y="402" flags="0x1004"/>
    </TTGlyph>
    <TTGlyph name="Abreve" xMin="-3" yMin="0" xMax="1384" yMax="1684">
      <component glyphName="A" x="-2" y="0" flags="0x1004"/>
      <component glyphName="breve" x="343" y="402" flags="0x1004"/>
    </TTGlyph>
    <TTGlyph name="Acircumflex" xMin="-3" yMin="0" xMax="1384" yMax="1973">
      <component glyphName="A" x="-2" y="0" flags="0x1004"/>
      <component glyphName="circumflex" x="181" y="402" flags="0x1004"/>
    </TTGlyph>
    <TTGlyph name="Adieresis" xMin="-3" yMin="0" xMax="1384" yMax="1703">
      <component glyphName="A" x="-2" y="0" flags="0x1004"/>
      <component glyphName="dieresis" x="131" y="402" flags="0x1004"/>
    </TTGlyph>
    <TTGlyph name="Agrave" xMin="-3" yMin="0" xMax="1384" yMax="1972">
      <component glyphName="A" x="-2" y="0" flags="0x1004"/>
      <component glyphName="grave" x="238" y="402" flags="0x1004"/>
    </TTGlyph>
    <TTGlyph name="Amacron" xMin="-3" yMin="0" xMax="1384" yMax="1575">
      <component glyphName="A" x="-2" y="0" flags="0x1004"/>
      <component glyphName="macron" x="293" y="403" flags="0x1004"/>
    </TTGlyph>
    <TTGlyph name="Aogonek" xMin="-3" yMin="-371" xMax="1384" yMax="1324">
      <component glyphName="A" x="-2" y="0" flags="0x1004"/>
      <component glyphName="ogonek" x="808" y="0" flags="0x1004"/>
    </TTGlyph>
    <TTGlyph name="Aring" xMin="-3" yMin="0" xMax="1384" yMax="1896">
      <component glyphName="A" x="-2" y="0" flags="0x1004"/>
      <component glyphName="ring" x="343" y="402" flags="0x1004"/>
    </TTGlyph>
    <TTGlyph name="Atilde" xMin="-3" yMin="0" xMax="1384" yMax="1766">
      <component glyphName="A" x="-2" y="0" flags="0x1004"/>
      <component glyphName="tilde" x="144" y="402" flags="0x1004"/>
    </TTGlyph>
    <TTGlyph name="B" xMin="68" yMin="0" xMax="1297" yMax="1302">
      <contour>
        <pt x="284" y="1023" on="1"/>
        <pt x="284" y="1126" on="0"/>
        <pt x="251" y="1183" on="0"/>
        <pt x="217" y="1204" on="0"/>
        <pt x="169" y="1218" on="0"/>
        <pt x="107" y="1235" on="0"/>
        <pt x="68" y="1251" on="1"/>
        <pt x="70" y="1302" on="1"/>
        <pt x="638" y="1302" on="1"/>
        <pt x="890" y="1302" on="0"/>
        <pt x="1022" y="1258" on="1"/>
        <pt x="1231" y="1187" on="0"/>
        <pt x="1231" y="975" on="1"/>
        <pt x="1231" y="836" on="0"/>
        <pt x="1115" y="756" on="1"/>
        <pt x="1026" y="696" on="0"/>
        <pt x="870" y="669" on="1"/>
        <pt x="1033" y="662" on="0"/>
        <pt x="1154" y="590" on="1"/>
        <pt x="1297" y="505" on="0"/>
        <pt x="1297" y="349" on="1"/>
        <pt x="1297" y="166" on="0"/>
        <pt x="1126" y="74" on="1"/>
        <pt x="987" y="0" on="0"/>
        <pt x="790" y="0" on="1"/>
        <pt x="70" y="0" on="1"/>
        <pt x="68" y="52" on="1"/>
        <pt x="104" y="62" on="0"/>
        <pt x="180" y="82" on="0"/>
        <pt x="212" y="100" on="1"/>
        <pt x="284" y="140" on="0"/>
        <pt x="284" y="221" on="1"/>
      </contour>
      <contour>
        <pt x="524" y="630" on="1"/>
        <pt x="499" y="608" on="0"/>
        <pt x="499" y="542" on="1"/>
        <pt x="499" y="274" on="1"/>
        <pt x="499" y="156" on="0"/>
        <pt x="554" y="106" on="1"/>
        <pt x="575" y="87" on="0"/>
        <pt x="609" y="87" on="1"/>
        <pt x="771" y="87" on="1"/>
        <pt x="889" y="87" on="0"/>
        <pt x="966" y="152" on="1"/>
        <pt x="1047" y="222" on="0"/>
        <pt x="1047" y="336" on="1"/>
        <pt x="1047" y="530" on="0"/>
        <pt x="865" y="592" on="1"/>
        <pt x="767" y="625" on="0"/>
        <pt x="577" y="630" on="0"/>
      </contour>
      <contour>
        <pt x="712" y="700" on="1"/>
        <pt x="1032" y="700" on="0"/>
        <pt x="1032" y="943" on="1"/>
        <pt x="1032" y="1131" on="0"/>
        <pt x="866" y="1190" on="1"/>
        <pt x="779" y="1222" on="0"/>
        <pt x="597" y="1227" on="0"/>
        <pt x="545" y="1227" on="1"/>
        <pt x="499" y="1227" on="1"/>
        <pt x="499" y="730" on="1"/>
        <pt x="531" y="700" on="0"/>
        <pt x="579" y="700" on="1"/>
      </contour>
    </TTGlyph>
    <TTGlyph name="C" xMin="112" yMin="-26" xMax="1332" yMax="1327">
      <contour>
        <pt x="878" y="81" on="1"/>
        <pt x="1164" y="81" on="0"/>
        <pt x="1283" y="304" on="1"/>
        <pt x="1332" y="297" on="1"/>
        <pt x="1323" y="108" on="1"/>
        <pt x="1158" y="15" on="0"/>
        <pt x="934" y="-16" on="1"/>
        <pt x="866" y="-26" on="0"/>
        <pt x="806" y="-26" on="1"/>
        <pt x="505" y="-26" on="0"/>
        <pt x="312" y="151" on="1"/>
        <pt x="112" y="335" on="0"/>
        <pt x="112" y="640" on="1"/>
        <pt x="112" y="933" on="0"/>
        <pt x="316" y="1127" on="1"/>
        <pt x="527" y="1327" on="0"/>
        <pt x="864" y="1327" on="1"/>
        <pt x="1067" y="1327" on="0"/>
        <pt x="1280" y="1245" on="1"/>
        <pt x="1321" y="943" on="1"/>
        <pt x="1274" y="941" on="1"/>
        <pt x="1255" y="960" on="0"/>
        <pt x="1228" y="1007" on="1"/>
        <pt x="1178" y="1095" on="0"/>
        <pt x="1156" y="1117" on="1"/>
        <pt x="1023" y="1250" on="0"/>
        <pt x="836" y="1250" on="1"/>
        <pt x="634" y="1250" on="0"/>
        <pt x="495" y="1103" on="1"/>
        <pt x="346" y="945" on="0"/>
        <pt x="346" y="680" on="1"/>
        <pt x="346" y="406" on="0"/>
        <pt x="490" y="244" on="1"/>
        <pt x="636" y="81" on="0"/>
      </contour>
    </TTGlyph>
    <TTGlyph name="Cacute" xMin="112" yMin="-26" xMax="1332" yMax="1972">
      <component glyphName="C" x="0" y="0" flags="0x1004"/>
      <component glyphName="acute" x="271" y="402" flags="0x1004"/>
    </TTGlyph>
    <TTGlyph name="Ccaron" xMin="112" yMin="-26" xMax="1332" yMax="1790">
      <component glyphName="C" x="0" y="0" flags="0x1004"/>
      <component glyphName="caron" x="208" y="402" flags="0x1004"/>
    </TTGlyph>
    <TTGlyph name="Ccedilla" xMin="112" yMin="-425" xMax="1332" yMax="1327">
      <component glyphName="C" x="0" y="0" flags="0x1004"/>
      <component glyphName="cedilla" x="453" y="0" flags="0x1004"/>
    </TTGlyph>
    <TTGlyph name="Cdotaccent" xMin="112" yMin="-26" xMax="1332" yMax="1676">
      <component glyphName="C" x="0" y="0" flags="0x1004"/>
      <component glyphName="dotaccent" x="490" y="402" flags="0x1004"/>
    </TTGlyph>
    <TTGlyph name="D" xMin="68" yMin="0" xMax="1512" yMax="1302">
      <contour>
        <pt x="507" y="1225" on="1"/>
        <pt x="507" y="271" on="1"/>
        <pt x="507" y="184" on="0"/>
        <pt x="531" y="148" on="1"/>
        <pt x="574" y="84" on="0"/>
        <pt x="655" y="80" on="1"/>
        <pt x="697" y="77" on="0"/>
        <pt x="900" y="77" on="0"/>
        <pt x="1090" y="171" on="0"/>
        <pt x="1152" y="246" on="1"/>
        <pt x="1274" y="395" on="0"/>
        <pt x="1274" y="609" on="1"/>
        <pt x="1274" y="884" on="0"/>
        <pt x="1132" y="1046" on="1"/>
        <pt x="976" y="1225" on="0"/>
        <pt x="675" y="1225" on="1"/>
      </contour>
      <contour>
        <pt x="292" y="1010" on="1"/>
        <pt x="292" y="1148" on="0"/>
        <pt x="252" y="1180" on="1"/>
        <pt x="209" y="1214" on="0"/>
        <pt x="95" y="1242" on="0"/>
        <pt x="68" y="1251" on="1"/>
        <pt x="70" y="1302" on="1"/>
        <pt x="662" y="1302" on="1"/>
        <pt x="1260" y="1302" on="0"/>
        <pt x="1446" y="958" on="1"/>
        <pt x="1512" y="835" on="0"/>
        <pt x="1512" y="532" on="0"/>
        <pt x="1420" y="295" on="0"/>
        <pt x="1330" y="203" on="1"/>
        <pt x="1130" y="0" on="0"/>
        <pt x="789" y="0" on="1"/>
        <pt x="70" y="0" on="1"/>
        <pt x="68" y="52" on="1"/>
        <pt x="104" y="63" on="0"/>
        <pt x="183" y="79" on="0"/>
        <pt x="216" y="94" on="1"/>
        <pt x="292" y="130" on="0"/>
        <pt x="292" y="219" on="1"/>
      </contour>
    </TTGlyph>
    <TTGlyph name="DZcaron" xMin="68" yMin="-10" xMax="2816" yMax="1828">
      <contour>
        <pt x="1966" y="1815" on="1"/>
        <pt x="1974" y="1828" on="0"/>
        <pt x="2002" y="1828" on="1"/>
        <pt x="2067" y="1794" on="0"/>
        <pt x="2203" y="1637" on="1"/>
        <pt x="2235" y="1600" on="0"/>
        <pt x="2256" y="1577" on="1"/>
        <pt x="2277" y="1603" on="0"/>
        <pt x="2334" y="1675" on="0"/>
        <pt x="2365" y="1712" on="1"/>
        <pt x="2440" y="1800" on="0"/>
        <pt x="2485" y="1828" on="1"/>
        <pt x="2513" y="1828" on="0"/>
        <pt x="2521" y="1815" on="1"/>
        <pt x="2482" y="1717" on="0"/>
        <pt x="2352" y="1494" on="0"/>
        <pt x="2328" y="1449" on="1"/>
        <pt x="2252" y="1429" on="0"/>
        <pt x="2191" y="1429" on="1"/>
        <pt x="2137" y="1472" on="0"/>
        <pt x="2025" y="1691" on="1"/>
        <pt x="1987" y="1765" on="0"/>
      </contour>
      <contour>
        <pt x="1958" y="89" on="1"/>
        <pt x="2005" y="74" on="0"/>
        <pt x="2048" y="74" on="1"/>
        <pt x="2187" y="74" on="1"/>
        <pt x="2481" y="74" on="0"/>
        <pt x="2558" y="104" on="1"/>
        <pt x="2600" y="121" on="0"/>
        <pt x="2640" y="177" on="0"/>
        <pt x="2658" y="211" on="1"/>
        <pt x="2708" y="305" on="0"/>
        <pt x="2760" y="359" on="1"/>
        <pt x="2816" y="357" on="1"/>
        <pt x="2756" y="-10" on="1"/>
        <pt x="2715" y="-10" on="1"/>
        <pt x="2571" y="0" on="1"/>
        <pt x="1674" y="0" on="1"/>
        <pt x="1670" y="43" on="1"/>
        <pt x="2450" y="1119" on="1"/>
        <pt x="2524" y="1225" on="1"/>
        <pt x="2128" y="1225" on="1"/>
        <pt x="2026" y="1225" on="0"/>
        <pt x="1988" y="1212" on="1"/>
        <pt x="1915" y="1188" on="0"/>
        <pt x="1873" y="1112" on="1"/>
        <pt x="1853" y="1077" on="0"/>
        <pt x="1816" y="1005" on="0"/>
        <pt x="1793" y="972" on="1"/>
        <pt x="1767" y="972" on="0"/>
        <pt x="1740" y="975" on="1"/>
        <pt x="1767" y="1307" on="1"/>
        <pt x="1799" y="1307" on="1"/>
        <pt x="1799" y="1307" on="0"/>
        <pt x="2785" y="1302" on="1"/>
        <pt x="2798" y="1296" on="0"/>
        <pt x="2798" y="1272" on="1"/>
        <pt x="2797" y="1245" on="1"/>
        <pt x="2032" y="198" on="1"/>
        <pt x="1984" y="133" on="0"/>
      </contour>
      <contour>
        <pt x="507" y="1225" on="1"/>
        <pt x="507" y="357" on="1"/>
        <pt x="507" y="210" on="0"/>
        <pt x="555" y="115" on="0"/>
        <pt x="612" y="82" on="0"/>
        <pt x="648" y="80" on="1"/>
        <pt x="701" y="77" on="0"/>
        <pt x="900" y="77" on="0"/>
        <pt x="1090" y="171" on="0"/>
        <pt x="1152" y="246" on="1"/>
        <pt x="1274" y="395" on="0"/>
        <pt x="1274" y="609" on="1"/>
        <pt x="1274" y="884" on="0"/>
        <pt x="1132" y="1046" on="1"/>
        <pt x="976" y="1225" on="0"/>
        <pt x="675" y="1225" on="1"/>
      </contour>
      <contour>
        <pt x="292" y="1010" on="1"/>
        <pt x="292" y="1148" on="0"/>
        <pt x="252" y="1180" on="1"/>
        <pt x="209" y="1214" on="0"/>
        <pt x="95" y="1242" on="0"/>
        <pt x="68" y="1251" on="1"/>
        <pt x="70" y="1302" on="1"/>
        <pt x="662" y="1302" on="1"/>
        <pt x="1260" y="1302" on="0"/>
        <pt x="1446" y="958" on="1"/>
        <pt x="1512" y="835" on="0"/>
        <pt x="1512" y="532" on="0"/>
        <pt x="1420" y="295" on="0"/>
        <pt x="1330" y="203" on="1"/>
        <pt x="1130" y="0" on="0"/>
        <pt x="789" y="0" on="1"/>
        <pt x="70" y="0" on="1"/>
        <pt x="68" y="52" on="1"/>
        <pt x="104" y="63" on="0"/>
        <pt x="183" y="79" on="0"/>
        <pt x="216" y="94" on="1"/>
        <pt x="292" y="130" on="0"/>
        <pt x="292" y="219" on="1"/>
      </contour>
    </TTGlyph>
    <TTGlyph name="Dcaron" xMin="68" yMin="0" xMax="1512" yMax="1791">
      <component glyphName="D" x="0" y="0" flags="0x1004"/>
      <component glyphName="caron" x="294" y="403" flags="0x1004"/>
    </TTGlyph>
    <TTGlyph name="Dcroat" xMin="68" yMin="0" xMax="1512" yMax="1575">
      <component glyphName="D" x="0" y="0" flags="0x1004"/>
      <component glyphName="macron" x="419" y="403" flags="0x1004"/>
    </TTGlyph>
    <TTGlyph name="Dzcaron" xMin="68" yMin="-11" xMax="2447" yMax="1427">
      <contour>
        <pt x="1764" y="1414" on="1"/>
        <pt x="1772" y="1427" on="0"/>
        <pt x="1800" y="1427" on="1"/>
        <pt x="1865" y="1393" on="0"/>
        <pt x="2001" y="1236" on="1"/>
        <pt x="2033" y="1199" on="0"/>
        <pt x="2054" y="1176" on="1"/>
        <pt x="2075" y="1202" on="0"/>
        <pt x="2132" y="1274" on="0"/>
        <pt x="2163" y="1310" on="1"/>
        <pt x="2238" y="1399" on="0"/>
        <pt x="2283" y="1427" on="1"/>
        <pt x="2311" y="1427" on="0"/>
        <pt x="2319" y="1414" on="1"/>
        <pt x="2280" y="1316" on="0"/>
        <pt x="2150" y="1093" on="0"/>
        <pt x="2126" y="1048" on="1"/>
        <pt x="2050" y="1028" on="0"/>
        <pt x="1989" y="1028" on="1"/>
        <pt x="1935" y="1071" on="0"/>
        <pt x="1823" y="1290" on="1"/>
        <pt x="1785" y="1364" on="0"/>
      </contour>
      <contour>
        <pt x="2375" y="899" on="1"/>
        <pt x="2382" y="898" on="0"/>
        <pt x="2400" y="898" on="0"/>
        <pt x="2430" y="895" on="1"/>
        <pt x="2430" y="840" on="1"/>
        <pt x="1885" y="60" on="1"/>
        <pt x="2079" y="60" on="1"/>
        <pt x="2168" y="60" on="0"/>
        <pt x="2250" y="86" on="1"/>
        <pt x="2294" y="100" on="0"/>
        <pt x="2334" y="174" on="1"/>
        <pt x="2350" y="203" on="0"/>
        <pt x="2378" y="261" on="0"/>
        <pt x="2396" y="279" on="1"/>
        <pt x="2409" y="279" on="0"/>
        <pt x="2434" y="277" on="0"/>
        <pt x="2447" y="277" on="1"/>
        <pt x="2418" y="-11" on="1"/>
        <pt x="2259" y="0" on="1"/>
        <pt x="1651" y="0" on="1"/>
        <pt x="1637" y="33" on="1"/>
        <pt x="2214" y="838" on="1"/>
        <pt x="2045" y="838" on="1"/>
        <pt x="1957" y="838" on="0"/>
        <pt x="1920" y="829" on="1"/>
        <pt x="1867" y="823" on="0"/>
        <pt x="1815" y="758" on="1"/>
        <pt x="1794" y="732" on="0"/>
        <pt x="1755" y="679" on="0"/>
        <pt x="1731" y="662" on="1"/>
        <pt x="1686" y="664" on="1"/>
        <pt x="1707" y="925" on="1"/>
        <pt x="1775" y="899" on="0"/>
        <pt x="1874" y="899" on="1"/>
      </contour>
      <contour>
        <pt x="507" y="1225" on="1"/>
        <pt x="507" y="271" on="1"/>
        <pt x="507" y="184" on="0"/>
        <pt x="531" y="148" on="1"/>
        <pt x="574" y="84" on="0"/>
        <pt x="655" y="80" on="1"/>
        <pt x="697" y="77" on="0"/>
        <pt x="900" y="77" on="0"/>
        <pt x="1090" y="171" on="0"/>
        <pt x="1152" y="246" on="1"/>
        <pt x="1274" y="395" on="0"/>
        <pt x="1274" y="609" on="1"/>
        <pt x="1274" y="884" on="0"/>
        <pt x="1132" y="1046" on="1"/>
        <pt x="976" y="1225" on="0"/>
        <pt x="675" y="1225" on="1"/>
      </contour>
      <contour>
        <pt x="292" y="1010" on="1"/>
        <pt x="292" y="1148" on="0"/>
        <pt x="252" y="1180" on="1"/>
        <pt x="209" y="1214" on="0"/>
        <pt x="95" y="1242" on="0"/>
        <pt x="68" y="1251" on="1"/>
        <pt x="70" y="1302" on="1"/>
        <pt x="662" y="1302" on="1"/>
        <pt x="1260" y="1302" on="0"/>
        <pt x="1446" y="958" on="1"/>
        <pt x="1512" y="835" on="0"/>
        <pt x="1512" y="532" on="0"/>
        <pt x="1420" y="295" on="0"/>
        <pt x="1330" y="203" on="1"/>
        <pt x="1130" y="0" on="0"/>
        <pt x="789" y="0" on="1"/>
        <pt x="70" y="0" on="1"/>
        <pt x="68" y="52" on="1"/>
        <pt x="104" y="63" on="0"/>
        <pt x="183" y="79" on="0"/>
        <pt x="216" y="94" on="1"/>
        <pt x="292" y="130" on="0"/>
        <pt x="292" y="219" on="1"/>
      </contour>
    </TTGlyph>
    <TTGlyph name="E" xMin="68" yMin="-12" xMax="1309" yMax="1312">
      <contour>
        <pt x="1198" y="1312" on="1"/>
        <pt x="1217" y="1312" on="0"/>
        <pt x="1235" y="1308" on="1"/>
        <pt x="1235" y="997" on="1"/>
        <pt x="1183" y="995" on="1"/>
        <pt x="1159" y="1017" on="0"/>
        <pt x="1133" y="1081" on="0"/>
        <pt x="1107" y="1143" on="0"/>
        <pt x="1069" y="1195" on="0"/>
        <pt x="1001" y="1217" on="0"/>
        <pt x="917" y="1228" on="0"/>
        <pt x="872" y="1231" on="1"/>
        <pt x="812" y="1235" on="0"/>
        <pt x="730" y="1235" on="1"/>
        <pt x="576" y="1235" on="0"/>
        <pt x="500" y="1226" on="1"/>
        <pt x="496" y="1174" on="0"/>
        <pt x="496" y="1123" on="1"/>
        <pt x="496" y="717" on="1"/>
        <pt x="784" y="717" on="1"/>
        <pt x="897" y="717" on="0"/>
        <pt x="962" y="764" on="0"/>
        <pt x="998" y="820" on="0"/>
        <pt x="1022" y="864" on="1"/>
        <pt x="1037" y="891" on="1"/>
        <pt x="1094" y="891" on="1"/>
        <pt x="1094" y="462" on="1"/>
        <pt x="1037" y="459" on="1"/>
        <pt x="1005" y="546" on="0"/>
        <pt x="970" y="579" on="1"/>
        <pt x="906" y="641" on="0"/>
        <pt x="823" y="641" on="1"/>
        <pt x="496" y="641" on="1"/>
        <pt x="496" y="304" on="1"/>
        <pt x="496" y="154" on="0"/>
        <pt x="554" y="106" on="1"/>
        <pt x="596" y="70" on="0"/>
        <pt x="724" y="70" on="1"/>
        <pt x="822" y="70" on="1"/>
        <pt x="948" y="70" on="0"/>
        <pt x="1070" y="108" on="0"/>
        <pt x="1150" y="165" on="0"/>
        <pt x="1191" y="247" on="0"/>
        <pt x="1219" y="315" on="0"/>
        <pt x="1246" y="342" on="1"/>
        <pt x="1309" y="342" on="1"/>
        <pt x="1243" y="-9" on="1"/>
        <pt x="1226" y="-12" on="0"/>
        <pt x="1211" y="-12" on="1"/>
        <pt x="1096" y="0" on="1"/>
        <pt x="70" y="0" on="1"/>
        <pt x="68" y="49" on="1"/>
        <pt x="114" y="74" on="0"/>
        <pt x="211" y="91" on="0"/>
        <pt x="246" y="103" on="0"/>
        <pt x="258" y="120" on="1"/>
        <pt x="281" y="156" on="0"/>
        <pt x="281" y="267" on="1"/>
        <pt x="281" y="1024" on="1"/>
        <pt x="281" y="1156" on="0"/>
        <pt x="232" y="1190" on="1"/>
        <pt x="207" y="1208" on="0"/>
        <pt x="126" y="1228" on="0"/>
        <pt x="68" y="1251" on="1"/>
        <pt x="70" y="1302" on="1"/>
        <pt x="1090" y="1302" on="1"/>
      </contour>
    </TTGlyph>
    <TTGlyph name="Eacute" xMin="68" yMin="-12" xMax="1309" yMax="1972">
      <component glyphName="E" x="0" y="0" flags="0x1004"/>
      <component glyphName="acute" x="237" y="402" flags="0x1004"/>
    </TTGlyph>
    <TTGlyph name="Ecaron" xMin="68" yMin="-12" xMax="1309" yMax="1790">
      <component glyphName="E" x="0" y="0" flags="0x1004"/>
      <component glyphName="caron" x="174" y="402" flags="0x1004"/>
    </TTGlyph>
    <TTGlyph name="Ecircumflex" xMin="68" yMin="-12" xMax="1309" yMax="1973">
      <component glyphName="E" x="0" y="0" flags="0x1004"/>
      <component glyphName="circumflex" x="180" y="402" flags="0x1004"/>
    </TTGlyph>
    <TTGlyph name="Edieresis" xMin="68" yMin="-12" xMax="1309" yMax="1703">
      <component glyphName="E" x="0" y="0" flags="0x1004"/>
      <component glyphName="dieresis" x="130" y="402" flags="0x1004"/>
    </TTGlyph>
    <TTGlyph name="Egrave" xMin="68" yMin="-12" xMax="1309" yMax="1972">
      <component glyphName="E" x="0" y="0" flags="0x1004"/>
      <component glyphName="grave" x="237" y="402" flags="0x1004"/>
    </TTGlyph>
    <TTGlyph name="Emacron" xMin="68" yMin="-12" xMax="1309" yMax="1575">
      <component glyphName="E" x="0" y="0" flags="0x1004"/>
      <component glyphName="macron" x="297" y="403" flags="0x1004"/>
    </TTGlyph>
    <TTGlyph name="Eng" xMin="68" yMin="-312" xMax="1477" yMax="1176">
      <contour>
        <pt x="614" y="39" on="0"/>
        <pt x="614" y="14" on="0"/>
        <pt x="608" y="0" on="1"/>
        <pt x="72" y="0" on="1"/>
        <pt x="68" y="7" on="0"/>
        <pt x="68" y="39" on="0"/>
        <pt x="100" y="55" on="0"/>
        <pt x="149" y="64" on="0"/>
        <pt x="207" y="73" on="0"/>
        <pt x="234" y="82" on="1"/>
        <pt x="297" y="103" on="0"/>
        <pt x="309" y="157" on="1"/>
        <pt x="309" y="1022" on="1"/>
        <pt x="309" y="1084" on="0"/>
        <pt x="210" y="1107" on="1"/>
        <pt x="139" y="1123" on="0"/>
        <pt x="92" y="1143" on="0"/>
        <pt x="83" y="1158" on="1"/>
        <pt x="87" y="1176" on="1"/>
        <pt x="459" y="1176" on="1"/>
        <pt x="1152" y="405" on="1"/>
        <pt x="1152" y="1040" on="1"/>
        <pt x="1152" y="1102" on="0"/>
        <pt x="922" y="1132" on="0"/>
        <pt x="922" y="1158" on="1"/>
        <pt x="922" y="1161" on="0"/>
        <pt x="927" y="1176" on="1"/>
        <pt x="1473" y="1176" on="1"/>
        <pt x="1477" y="1164" on="0"/>
        <pt x="1477" y="1159" on="1"/>
        <pt x="1477" y="1140" on="0"/>
        <pt x="1386" y="1125" on="0"/>
        <pt x="1323" y="1114" on="0"/>
        <pt x="1296" y="1104" on="1"/>
        <pt x="1232" y="1079" on="0"/>
        <pt x="1232" y="1026" on="1"/>
        <pt x="1232" y="117" on="1"/>
        <pt x="1232" y="-113" on="0"/>
        <pt x="1162" y="-223" on="1"/>
        <pt x="1104" y="-312" on="0"/>
        <pt x="1016" y="-312" on="1"/>
        <pt x="954" y="-312" on="0"/>
        <pt x="904" y="-272" on="1"/>
        <pt x="855" y="-234" on="0"/>
        <pt x="855" y="-168" on="0"/>
        <pt x="898" y="-126" on="0"/>
        <pt x="966" y="-126" on="0"/>
        <pt x="1014" y="-160" on="0"/>
        <pt x="1014" y="-205" on="0"/>
        <pt x="1041" y="-237" on="0"/>
        <pt x="1076" y="-237" on="0"/>
        <pt x="1114" y="-209" on="0"/>
        <pt x="1132" y="-173" on="1"/>
        <pt x="1172" y="-90" on="0"/>
        <pt x="1172" y="79" on="1"/>
        <pt x="355" y="952" on="1"/>
        <pt x="383" y="150" on="1"/>
        <pt x="385" y="72" on="0"/>
        <pt x="500" y="62" on="1"/>
        <pt x="575" y="56" on="0"/>
      </contour>
    </TTGlyph>
    <TTGlyph name="Eogonek" xMin="68" yMin="-371" xMax="1309" yMax="1312">
      <component glyphName="E" x="0" y="0" flags="0x1004"/>
      <component glyphName="ogonek" x="734" y="0" flags="0x1004"/>
    </TTGlyph>
    <TTGlyph name="Eth" xMin="68" yMin="0" xMax="1512" yMax="1302">
      <contour>
        <pt x="292" y="637" on="1"/>
        <pt x="111" y="637" on="1"/>
        <pt x="111" y="765" on="1"/>
        <pt x="292" y="765" on="1"/>
        <pt x="292" y="1010" on="1"/>
        <pt x="292" y="1148" on="0"/>
        <pt x="252" y="1180" on="1"/>
        <pt x="209" y="1214" on="0"/>
        <pt x="95" y="1242" on="0"/>
        <pt x="68" y="1251" on="1"/>
        <pt x="70" y="1302" on="1"/>
        <pt x="662" y="1302" on="1"/>
        <pt x="1260" y="1302" on="0"/>
        <pt x="1446" y="958" on="1"/>
        <pt x="1512" y="835" on="0"/>
        <pt x="1512" y="532" on="0"/>
        <pt x="1420" y="295" on="0"/>
        <pt x="1330" y="203" on="1"/>
        <pt x="1130" y="0" on="0"/>
        <pt x="789" y="0" on="1"/>
        <pt x="70" y="0" on="1"/>
        <pt x="68" y="52" on="1"/>
        <pt x="104" y="63" on="0"/>
        <pt x="183" y="79" on="0"/>
        <pt x="216" y="94" on="1"/>
        <pt x="292" y="130" on="0"/>
        <pt x="292" y="219" on="1"/>
      </contour>
      <contour>
        <pt x="507" y="637" on="1"/>
        <pt x="507" y="271" on="1"/>
        <pt x="507" y="184" on="0"/>
        <pt x="531" y="148" on="1"/>
        <pt x="574" y="84" on="0"/>
        <pt x="655" y="80" on="1"/>
        <pt x="697" y="77" on="0"/>
        <pt x="900" y="77" on="0"/>
        <pt x="1090" y="171" on="0"/>
        <pt x="1152" y="246" on="1"/>
        <pt x="1274" y="395" on="0"/>
        <pt x="1274" y="609" on="1"/>
        <pt x="1274" y="884" on="0"/>
        <pt x="1132" y="1046" on="1"/>
        <pt x="976" y="1225" on="0"/>
        <pt x="675" y="1225" on="1"/>
        <pt x="507" y="1225" on="1"/>
        <pt x="507" y="765" on="1"/>
        <pt x="713" y="765" on="1"/>
        <pt x="713" y="637" on="1"/>
      </contour>
    </TTGlyph>
    <TTGlyph name="Euro" xMin="47" yMin="-21" xMax="1084" yMax="1289">
      <contour>
        <pt x="105" y="699" on="1"/>
        <pt x="56" y="718" on="0"/>
        <pt x="56" y="757" on="1"/>
        <pt x="56" y="777" on="0"/>
        <pt x="95" y="789" on="0"/>
        <pt x="146" y="789" on="1"/>
        <pt x="193" y="789" on="1"/>
        <pt x="232" y="1005" on="0"/>
        <pt x="354" y="1139" on="1"/>
        <pt x="489" y="1289" on="0"/>
        <pt x="694" y="1289" on="1"/>
        <pt x="852" y="1289" on="0"/>
        <pt x="1010" y="1177" on="1"/>
        <pt x="1051" y="1061" on="0"/>
        <pt x="1078" y="940" on="1"/>
        <pt x="954" y="940" on="1"/>
        <pt x="868" y="1213" on="0"/>
        <pt x="675" y="1213" on="1"/>
        <pt x="561" y="1213" on="0"/>
        <pt x="409" y="987" on="0"/>
        <pt x="389" y="789" on="1"/>
        <pt x="572" y="789" on="1"/>
        <pt x="744" y="789" on="0"/>
        <pt x="862" y="767" on="1"/>
        <pt x="858" y="742" on="0"/>
        <pt x="830" y="712" on="0"/>
        <pt x="791" y="699" on="1"/>
        <pt x="383" y="699" on="1"/>
        <pt x="383" y="658" on="1"/>
        <pt x="383" y="613" on="0"/>
        <pt x="386" y="570" on="1"/>
        <pt x="562" y="570" on="1"/>
        <pt x="733" y="570" on="0"/>
        <pt x="838" y="549" on="1"/>
        <pt x="835" y="523" on="0"/>
        <pt x="806" y="493" on="0"/>
        <pt x="767" y="480" on="1"/>
        <pt x="395" y="480" on="1"/>
        <pt x="438" y="188" on="0"/>
        <pt x="592" y="95" on="1"/>
        <pt x="645" y="63" on="0"/>
        <pt x="759" y="63" on="0"/>
        <pt x="841" y="96" on="0"/>
        <pt x="874" y="122" on="1"/>
        <pt x="938" y="173" on="0"/>
        <pt x="968" y="241" on="1"/>
        <pt x="1084" y="209" on="1"/>
        <pt x="1016" y="62" on="0"/>
        <pt x="837" y="0" on="1"/>
        <pt x="774" y="-21" on="0"/>
        <pt x="595" y="-21" on="0"/>
        <pt x="424" y="55" on="0"/>
        <pt x="360" y="122" on="1"/>
        <pt x="228" y="257" on="0"/>
        <pt x="193" y="480" on="1"/>
        <pt x="141" y="480" on="1"/>
        <pt x="96" y="480" on="0"/>
        <pt x="56" y="487" on="0"/>
        <pt x="47" y="501" on="1"/>
        <pt x="51" y="550" on="0"/>
        <pt x="113" y="570" on="1"/>
        <pt x="181" y="570" on="1"/>
        <pt x="179" y="592" on="0"/>
        <pt x="179" y="636" on="0"/>
        <pt x="179" y="652" on="1"/>
        <pt x="179" y="678" on="1"/>
        <pt x="179" y="688" on="0"/>
        <pt x="181" y="699" on="1"/>
      </contour>
    </TTGlyph>
    <TTGlyph name="F" xMin="68" yMin="0" xMax="1237" yMax="1305">
      <contour>
        <pt x="506" y="733" on="1"/>
        <pt x="719" y="729" on="1"/>
        <pt x="914" y="729" on="0"/>
        <pt x="956" y="774" on="1"/>
        <pt x="982" y="801" on="0"/>
        <pt x="1014" y="883" on="0"/>
        <pt x="1026" y="903" on="1"/>
        <pt x="1085" y="901" on="1"/>
        <pt x="1085" y="466" on="1"/>
        <pt x="1056" y="463" on="0"/>
        <pt x="1028" y="463" on="1"/>
        <pt x="995" y="531" on="0"/>
        <pt x="947" y="609" on="0"/>
        <pt x="891" y="648" on="0"/>
        <pt x="816" y="657" on="0"/>
        <pt x="755" y="657" on="1"/>
        <pt x="506" y="657" on="1"/>
        <pt x="506" y="258" on="1"/>
        <pt x="506" y="115" on="0"/>
        <pt x="571" y="92" on="1"/>
        <pt x="596" y="83" on="0"/>
        <pt x="712" y="65" on="0"/>
        <pt x="750" y="52" on="1"/>
        <pt x="750" y="0" on="1"/>
        <pt x="76" y="0" on="1"/>
        <pt x="74" y="52" on="1"/>
        <pt x="111" y="69" on="0"/>
        <pt x="217" y="91" on="0"/>
        <pt x="254" y="105" on="0"/>
        <pt x="266" y="123" on="1"/>
        <pt x="291" y="160" on="0"/>
        <pt x="291" y="261" on="1"/>
        <pt x="291" y="1021" on="1"/>
        <pt x="291" y="1121" on="0"/>
        <pt x="257" y="1182" on="0"/>
        <pt x="222" y="1204" on="0"/>
        <pt x="172" y="1220" on="0"/>
        <pt x="108" y="1236" on="0"/>
        <pt x="68" y="1251" on="1"/>
        <pt x="68" y="1302" on="1"/>
        <pt x="1069" y="1305" on="1"/>
        <pt x="1237" y="1305" on="1"/>
        <pt x="1237" y="995" on="1"/>
        <pt x="1192" y="993" on="1"/>
        <pt x="1168" y="1020" on="0"/>
        <pt x="1131" y="1094" on="0"/>
        <pt x="1110" y="1128" on="1"/>
        <pt x="1059" y="1212" on="0"/>
        <pt x="998" y="1221" on="1"/>
        <pt x="924" y="1232" on="0"/>
        <pt x="779" y="1232" on="1"/>
        <pt x="587" y="1232" on="1"/>
        <pt x="534" y="1232" on="0"/>
        <pt x="523" y="1224" on="1"/>
        <pt x="506" y="1210" on="0"/>
        <pt x="506" y="1160" on="1"/>
      </contour>
    </TTGlyph>
    <TTGlyph name="G" xMin="112" yMin="-26" xMax="1554" yMax="1327">
      <contour>
        <pt x="1552" y="684" on="1"/>
        <pt x="1554" y="632" on="1"/>
        <pt x="1523" y="620" on="0"/>
        <pt x="1463" y="599" on="0"/>
        <pt x="1439" y="582" on="1"/>
        <pt x="1386" y="544" on="0"/>
        <pt x="1386" y="463" on="1"/>
        <pt x="1386" y="95" on="1"/>
        <pt x="1153" y="-26" on="0"/>
        <pt x="870" y="-26" on="1"/>
        <pt x="527" y="-26" on="0"/>
        <pt x="320" y="156" on="1"/>
        <pt x="112" y="339" on="0"/>
        <pt x="112" y="638" on="1"/>
        <pt x="112" y="840" on="0"/>
        <pt x="222" y="1002" on="1"/>
        <pt x="326" y="1153" on="0"/>
        <pt x="510" y="1241" on="1"/>
        <pt x="692" y="1327" on="0"/>
        <pt x="907" y="1327" on="1"/>
        <pt x="1121" y="1327" on="0"/>
        <pt x="1346" y="1247" on="1"/>
        <pt x="1376" y="945" on="1"/>
        <pt x="1344" y="942" on="0"/>
        <pt x="1318" y="942" on="1"/>
        <pt x="1298" y="959" on="0"/>
        <pt x="1277" y="1000" on="1"/>
        <pt x="1232" y="1086" on="0"/>
        <pt x="1220" y="1100" on="1"/>
        <pt x="1092" y="1250" on="0"/>
        <pt x="881" y="1250" on="1"/>
        <pt x="650" y="1250" on="0"/>
        <pt x="351" y="921" on="0"/>
        <pt x="351" y="675" on="1"/>
        <pt x="351" y="409" on="0"/>
        <pt x="500" y="236" on="1"/>
        <pt x="649" y="62" on="0"/>
        <pt x="887" y="62" on="1"/>
        <pt x="1049" y="62" on="0"/>
        <pt x="1154" y="127" on="1"/>
        <pt x="1166" y="229" on="0"/>
        <pt x="1166" y="328" on="1"/>
        <pt x="1166" y="475" on="0"/>
        <pt x="1138" y="553" on="1"/>
        <pt x="1123" y="594" on="0"/>
        <pt x="1054" y="609" on="1"/>
        <pt x="1027" y="615" on="0"/>
        <pt x="970" y="623" on="0"/>
        <pt x="950" y="632" on="1"/>
        <pt x="950" y="658" on="1"/>
        <pt x="950" y="672" on="0"/>
        <pt x="952" y="684" on="1"/>
      </contour>
    </TTGlyph>
    <TTGlyph name="Gbreve" xMin="112" yMin="-26" xMax="1554" yMax="1684">
      <component glyphName="G" x="0" y="0" flags="0x1004"/>
      <component glyphName="breve" x="487" y="402" flags="0x1004"/>
    </TTGlyph>
    <TTGlyph name="Gcedilla" xMin="112" yMin="-577" xMax="1554" yMax="1327">
      <component glyphName="G" x="0" y="0" flags="0x1004"/>
      <component glyphName="commaaccent" x="510" y="0" flags="0x1004"/>
    </TTGlyph>
    <TTGlyph name="Gcommaaccent" xMin="112" yMin="-615" xMax="1554" yMax="1327">
      <contour>
        <pt x="757" y="-615" on="1"/>
        <pt x="715" y="-615" on="0"/>
        <pt x="715" y="-577" on="1"/>
        <pt x="715" y="-558" on="0"/>
        <pt x="761" y="-536" on="0"/>
        <pt x="794" y="-522" on="0"/>
        <pt x="808" y="-509" on="1"/>
        <pt x="840" y="-478" on="0"/>
        <pt x="840" y="-424" on="1"/>
        <pt x="720" y="-424" on="0"/>
        <pt x="684" y="-333" on="1"/>
        <pt x="674" y="-306" on="0"/>
        <pt x="674" y="-248" on="0"/>
        <pt x="696" y="-194" on="0"/>
        <pt x="716" y="-174" on="1"/>
        <pt x="760" y="-128" on="0"/>
        <pt x="827" y="-128" on="1"/>
        <pt x="993" y="-128" on="0"/>
        <pt x="993" y="-350" on="1"/>
        <pt x="993" y="-473" on="0"/>
        <pt x="906" y="-550" on="1"/>
        <pt x="834" y="-615" on="0"/>
      </contour>
      <contour>
        <pt x="1552" y="684" on="1"/>
        <pt x="1554" y="632" on="1"/>
        <pt x="1523" y="620" on="0"/>
        <pt x="1463" y="599" on="0"/>
        <pt x="1439" y="582" on="1"/>
        <pt x="1386" y="544" on="0"/>
        <pt x="1386" y="463" on="1"/>
        <pt x="1386" y="95" on="1"/>
        <pt x="1153" y="-26" on="0"/>
        <pt x="870" y="-26" on="1"/>
        <pt x="527" y="-26" on="0"/>
        <pt x="320" y="156" on="1"/>
        <pt x="112" y="339" on="0"/>
        <pt x="112" y="638" on="1"/>
        <pt x="112" y="840" on="0"/>
        <pt x="222" y="1002" on="1"/>
        <pt x="326" y="1153" on="0"/>
        <pt x="510" y="1241" on="1"/>
        <pt x="692" y="1327" on="0"/>
        <pt x="907" y="1327" on="1"/>
        <pt x="1121" y="1327" on="0"/>
        <pt x="1346" y="1247" on="1"/>
        <pt x="1376" y="945" on="1"/>
        <pt x="1344" y="942" on="0"/>
        <pt x="1318" y="942" on="1"/>
        <pt x="1298" y="959" on="0"/>
        <pt x="1277" y="1000" on="1"/>
        <pt x="1232" y="1086" on="0"/>
        <pt x="1220" y="1100" on="1"/>
        <pt x="1092" y="1250" on="0"/>
        <pt x="881" y="1250" on="1"/>
        <pt x="650" y="1250" on="0"/>
        <pt x="351" y="921" on="0"/>
        <pt x="351" y="675" on="1"/>
        <pt x="351" y="409" on="0"/>
        <pt x="500" y="236" on="1"/>
        <pt x="649" y="62" on="0"/>
        <pt x="887" y="62" on="1"/>
        <pt x="1049" y="62" on="0"/>
        <pt x="1154" y="127" on="1"/>
        <pt x="1166" y="229" on="0"/>
        <pt x="1166" y="328" on="1"/>
        <pt x="1166" y="475" on="0"/>
        <pt x="1138" y="553" on="1"/>
        <pt x="1123" y="594" on="0"/>
        <pt x="1054" y="609" on="1"/>
        <pt x="1027" y="615" on="0"/>
        <pt x="970" y="623" on="0"/>
        <pt x="950" y="632" on="1"/>
        <pt x="950" y="658" on="1"/>
        <pt x="950" y="672" on="0"/>
        <pt x="952" y="684" on="1"/>
      </contour>
    </TTGlyph>
    <TTGlyph name="Gdotaccent" xMin="112" yMin="-26" xMax="1554" yMax="1677">
      <component glyphName="G" x="0" y="0" flags="0x1004"/>
      <component glyphName="dotaccent" x="450" y="403" flags="0x1004"/>
    </TTGlyph>
    <TTGlyph name="H" xMin="68" yMin="0" xMax="1637" yMax="1302">
      <contour>
        <pt x="495" y="625" on="1"/>
        <pt x="495" y="255" on="1"/>
        <pt x="495" y="157" on="0"/>
        <pt x="534" y="103" on="0"/>
        <pt x="571" y="88" on="0"/>
        <pt x="596" y="83" on="1"/>
        <pt x="596" y="83" on="0"/>
        <pt x="651" y="72" on="1"/>
        <pt x="681" y="66" on="0"/>
        <pt x="717" y="52" on="1"/>
        <pt x="715" y="0" on="1"/>
        <pt x="71" y="0" on="1"/>
        <pt x="70" y="13" on="0"/>
        <pt x="68" y="39" on="0"/>
        <pt x="68" y="52" on="1"/>
        <pt x="106" y="68" on="0"/>
        <pt x="214" y="91" on="0"/>
        <pt x="248" y="107" on="0"/>
        <pt x="259" y="126" on="1"/>
        <pt x="280" y="161" on="0"/>
        <pt x="280" y="265" on="1"/>
        <pt x="280" y="1038" on="1"/>
        <pt x="280" y="1134" on="0"/>
        <pt x="245" y="1190" on="0"/>
        <pt x="210" y="1207" on="0"/>
        <pt x="163" y="1220" on="0"/>
        <pt x="104" y="1235" on="0"/>
        <pt x="69" y="1251" on="1"/>
        <pt x="71" y="1302" on="1"/>
        <pt x="714" y="1302" on="1"/>
        <pt x="716" y="1250" on="1"/>
        <pt x="678" y="1232" on="0"/>
        <pt x="571" y="1209" on="0"/>
        <pt x="534" y="1192" on="0"/>
        <pt x="521" y="1174" on="1"/>
        <pt x="495" y="1138" on="0"/>
        <pt x="495" y="1037" on="1"/>
        <pt x="495" y="712" on="1"/>
        <pt x="1209" y="712" on="1"/>
        <pt x="1209" y="1047" on="1"/>
        <pt x="1209" y="1138" on="0"/>
        <pt x="1173" y="1190" on="0"/>
        <pt x="1138" y="1207" on="0"/>
        <pt x="1116" y="1213" on="1"/>
        <pt x="1044" y="1232" on="0"/>
        <pt x="1006" y="1251" on="1"/>
        <pt x="1008" y="1302" on="1"/>
        <pt x="1635" y="1302" on="1"/>
        <pt x="1637" y="1250" on="1"/>
        <pt x="1598" y="1236" on="0"/>
        <pt x="1537" y="1221" on="0"/>
        <pt x="1489" y="1206" on="0"/>
        <pt x="1456" y="1185" on="0"/>
        <pt x="1445" y="1165" on="1"/>
        <pt x="1424" y="1127" on="0"/>
        <pt x="1424" y="1030" on="1"/>
        <pt x="1424" y="267" on="1"/>
        <pt x="1424" y="168" on="0"/>
        <pt x="1455" y="110" on="0"/>
        <pt x="1488" y="91" on="0"/>
        <pt x="1535" y="79" on="0"/>
        <pt x="1597" y="66" on="0"/>
        <pt x="1637" y="52" on="1"/>
        <pt x="1637" y="0" on="1"/>
        <pt x="1008" y="0" on="1"/>
        <pt x="1006" y="52" on="1"/>
        <pt x="1043" y="72" on="0"/>
        <pt x="1136" y="91" on="0"/>
        <pt x="1172" y="103" on="0"/>
        <pt x="1184" y="120" on="1"/>
        <pt x="1209" y="154" on="0"/>
        <pt x="1209" y="252" on="1"/>
        <pt x="1209" y="625" on="1"/>
      </contour>
    </TTGlyph>
    <TTGlyph name="Hbar" xMin="68" yMin="0" xMax="1567" yMax="1176">
      <contour>
        <pt x="704" y="1176" on="1"/>
        <pt x="704" y="1176" on="0"/>
        <pt x="709" y="1158" on="1"/>
        <pt x="709" y="1135" on="0"/>
        <pt x="627" y="1118" on="0"/>
        <pt x="570" y="1108" on="0"/>
        <pt x="546" y="1098" on="1"/>
        <pt x="488" y="1076" on="0"/>
        <pt x="488" y="1030" on="1"/>
        <pt x="488" y="925" on="1"/>
        <pt x="1145" y="925" on="1"/>
        <pt x="1145" y="1030" on="1"/>
        <pt x="1145" y="1091" on="0"/>
        <pt x="1040" y="1112" on="1"/>
        <pt x="973" y="1125" on="0"/>
        <pt x="936" y="1144" on="0"/>
        <pt x="936" y="1164" on="0"/>
        <pt x="940" y="1176" on="1"/>
        <pt x="1559" y="1176" on="1"/>
        <pt x="1564" y="1158" on="1"/>
        <pt x="1564" y="1136" on="0"/>
        <pt x="1488" y="1118" on="0"/>
        <pt x="1436" y="1106" on="0"/>
        <pt x="1413" y="1096" on="1"/>
        <pt x="1360" y="1075" on="0"/>
        <pt x="1360" y="1030" on="1"/>
        <pt x="1360" y="124" on="1"/>
        <pt x="1360" y="65" on="0"/>
        <pt x="1464" y="53" on="1"/>
        <pt x="1529" y="46" on="0"/>
        <pt x="1567" y="31" on="0"/>
        <pt x="1567" y="17" on="1"/>
        <pt x="1567" y="11" on="0"/>
        <pt x="1563" y="0" on="1"/>
        <pt x="940" y="0" on="1"/>
        <pt x="935" y="13" on="0"/>
        <pt x="935" y="34" on="0"/>
        <pt x="966" y="48" on="0"/>
        <pt x="1013" y="53" on="0"/>
        <pt x="1067" y="57" on="0"/>
        <pt x="1090" y="64" on="1"/>
        <pt x="1145" y="80" on="0"/>
        <pt x="1145" y="130" on="1"/>
        <pt x="1145" y="576" on="1"/>
        <pt x="488" y="576" on="1"/>
        <pt x="488" y="124" on="1"/>
        <pt x="488" y="65" on="0"/>
        <pt x="600" y="53" on="1"/>
        <pt x="672" y="46" on="0"/>
        <pt x="712" y="31" on="0"/>
        <pt x="712" y="17" on="1"/>
        <pt x="712" y="11" on="0"/>
        <pt x="708" y="0" on="1"/>
        <pt x="73" y="0" on="1"/>
        <pt x="68" y="13" on="0"/>
        <pt x="68" y="34" on="0"/>
        <pt x="98" y="48" on="0"/>
        <pt x="144" y="53" on="0"/>
        <pt x="197" y="57" on="0"/>
        <pt x="220" y="64" on="1"/>
        <pt x="273" y="80" on="0"/>
        <pt x="273" y="130" on="1"/>
        <pt x="273" y="1030" on="1"/>
        <pt x="273" y="1089" on="0"/>
        <pt x="171" y="1110" on="1"/>
        <pt x="106" y="1124" on="0"/>
        <pt x="69" y="1144" on="0"/>
        <pt x="69" y="1164" on="0"/>
        <pt x="73" y="1176" on="1"/>
      </contour>
      <contour>
        <pt x="1145" y="636" on="1"/>
        <pt x="1145" y="807" on="1"/>
        <pt x="488" y="807" on="1"/>
        <pt x="488" y="636" on="1"/>
      </contour>
    </TTGlyph>
    <TTGlyph name="I" xMin="68" yMin="0" xMax="739" yMax="1302">
      <contour>
        <pt x="509" y="260" on="1"/>
        <pt x="509" y="161" on="0"/>
        <pt x="547" y="105" on="0"/>
        <pt x="586" y="89" on="0"/>
        <pt x="637" y="79" on="0"/>
        <pt x="701" y="67" on="0"/>
        <pt x="739" y="53" on="1"/>
        <pt x="737" y="0" on="1"/>
        <pt x="72" y="0" on="1"/>
        <pt x="72" y="52" on="1"/>
        <pt x="117" y="73" on="0"/>
        <pt x="220" y="87" on="0"/>
        <pt x="257" y="100" on="0"/>
        <pt x="270" y="120" on="1"/>
        <pt x="294" y="158" on="0"/>
        <pt x="294" y="278" on="1"/>
        <pt x="294" y="1030" on="1"/>
        <pt x="294" y="1189" on="0"/>
        <pt x="227" y="1208" on="1"/>
        <pt x="206" y="1214" on="0"/>
        <pt x="181" y="1218" on="1"/>
        <pt x="108" y="1228" on="0"/>
        <pt x="68" y="1251" on="1"/>
        <pt x="70" y="1302" on="1"/>
        <pt x="733" y="1302" on="1"/>
        <pt x="735" y="1250" on="1"/>
        <pt x="699" y="1238" on="0"/>
        <pt x="619" y="1220" on="0"/>
        <pt x="586" y="1204" on="1"/>
        <pt x="509" y="1167" on="0"/>
        <pt x="509" y="1081" on="1"/>
      </contour>
    </TTGlyph>
    <TTGlyph name="IJ" xMin="68" yMin="-333" xMax="1518" yMax="1302">
      <component glyphName="I" x="0" y="0" flags="0x1004"/>
      <component glyphName="J" x="802" y="0" flags="0x1004"/>
    </TTGlyph>
    <TTGlyph name="Iacute" xMin="68" yMin="0" xMax="739" yMax="1972">
      <component glyphName="I" x="0" y="0" flags="0x1004"/>
      <component glyphName="acute" x="-47" y="402" flags="0x1004"/>
    </TTGlyph>
    <TTGlyph name="Ibreve" xMin="68" yMin="0" xMax="739" yMax="1684">
      <component glyphName="I" x="0" y="0" flags="0x1204"/>
      <component glyphName="breve" x="57" y="402" flags="0x1004"/>
    </TTGlyph>
    <TTGlyph name="Icircumflex" xMin="68" yMin="0" xMax="739" yMax="1973">
      <component glyphName="I" x="0" y="0" flags="0x1004"/>
      <component glyphName="circumflex" x="-104" y="402" flags="0x1004"/>
    </TTGlyph>
    <TTGlyph name="Idieresis" xMin="68" yMin="0" xMax="739" yMax="1703">
      <component glyphName="I" x="0" y="0" flags="0x1004"/>
      <component glyphName="dieresis" x="-154" y="402" flags="0x1004"/>
    </TTGlyph>
    <TTGlyph name="Igrave" xMin="68" yMin="0" xMax="739" yMax="1972">
      <component glyphName="I" x="0" y="0" flags="0x1004"/>
      <component glyphName="grave" x="-47" y="402" flags="0x1004"/>
    </TTGlyph>
    <TTGlyph name="Imacron" xMin="68" yMin="0" xMax="739" yMax="1574">
      <component glyphName="I" x="0" y="0" flags="0x1204"/>
      <component glyphName="macron" x="13" y="402" flags="0x1004"/>
    </TTGlyph>
    <TTGlyph name="Iogonek" xMin="68" yMin="-371" xMax="739" yMax="1302">
      <component glyphName="I" x="0" y="0" flags="0x1204"/>
      <component glyphName="ogonek" x="74" y="0" flags="0x1004"/>
    </TTGlyph>
    <TTGlyph name="Itilde" xMin="68" yMin="0" xMax="739" yMax="1766">
      <component glyphName="I" x="0" y="0" flags="0x1204"/>
      <component glyphName="tilde" x="-141" y="402" flags="0x1004"/>
    </TTGlyph>
    <TTGlyph name="J" xMin="-58" yMin="-333" xMax="716" yMax="1302">
      <contour>
        <pt x="195" y="-251" on="1"/>
        <pt x="274" y="-251" on="0"/>
        <pt x="274" y="6" on="1"/>
        <pt x="274" y="1035" on="1"/>
        <pt x="274" y="1135" on="0"/>
        <pt x="237" y="1193" on="0"/>
        <pt x="199" y="1211" on="0"/>
        <pt x="149" y="1223" on="0"/>
        <pt x="85" y="1236" on="0"/>
        <pt x="46" y="1250" on="1"/>
        <pt x="49" y="1302" on="1"/>
        <pt x="716" y="1302" on="1"/>
        <pt x="716" y="1251" on="1"/>
        <pt x="676" y="1234" on="0"/>
        <pt x="569" y="1213" on="0"/>
        <pt x="530" y="1198" on="0"/>
        <pt x="516" y="1180" on="1"/>
        <pt x="489" y="1143" on="0"/>
        <pt x="489" y="1044" on="1"/>
        <pt x="489" y="170" on="1"/>
        <pt x="489" y="-220" on="0"/>
        <pt x="264" y="-312" on="1"/>
        <pt x="211" y="-333" on="0"/>
        <pt x="113" y="-333" on="0"/>
        <pt x="44" y="-321" on="0"/>
        <pt x="14" y="-306" on="1"/>
        <pt x="-58" y="-273" on="0"/>
        <pt x="-58" y="-207" on="1"/>
        <pt x="-58" y="-168" on="0"/>
        <pt x="-7" y="-122" on="0"/>
        <pt x="70" y="-122" on="0"/>
        <pt x="109" y="-162" on="0"/>
        <pt x="136" y="-211" on="0"/>
        <pt x="166" y="-251" on="0"/>
      </contour>
    </TTGlyph>
    <TTGlyph name="Jcircumflex" xMin="-58" yMin="-333" xMax="716" yMax="1973">
      <component glyphName="J" x="0" y="0" flags="0x1004"/>
      <component glyphName="circumflex" x="-130" y="402" flags="0x1004"/>
    </TTGlyph>
    <TTGlyph name="K" xMin="68" yMin="0" xMax="1497" yMax="1302">
      <contour>
        <pt x="68" y="1284" on="1"/>
        <pt x="68" y="1284" on="0"/>
        <pt x="73" y="1302" on="1"/>
        <pt x="739" y="1302" on="1"/>
        <pt x="743" y="1290" on="0"/>
        <pt x="743" y="1270" on="0"/>
        <pt x="709" y="1256" on="0"/>
        <pt x="657" y="1247" on="0"/>
        <pt x="597" y="1239" on="0"/>
        <pt x="571" y="1230" on="1"/>
        <pt x="511" y="1211" on="0"/>
        <pt x="511" y="1166" on="1"/>
        <pt x="511" y="726" on="1"/>
        <pt x="597" y="726" on="1"/>
        <pt x="1053" y="1178" on="1"/>
        <pt x="1057" y="1189" on="0"/>
        <pt x="1057" y="1219" on="0"/>
        <pt x="1031" y="1239" on="0"/>
        <pt x="993" y="1248" on="0"/>
        <pt x="948" y="1252" on="0"/>
        <pt x="929" y="1254" on="1"/>
        <pt x="884" y="1260" on="0"/>
        <pt x="884" y="1284" on="1"/>
        <pt x="884" y="1284" on="0"/>
        <pt x="889" y="1302" on="1"/>
        <pt x="1453" y="1302" on="1"/>
        <pt x="1457" y="1284" on="1"/>
        <pt x="1457" y="1266" on="0"/>
        <pt x="1342" y="1237" on="0"/>
        <pt x="1303" y="1228" on="1"/>
        <pt x="1221" y="1211" on="0"/>
        <pt x="1173" y="1172" on="1"/>
        <pt x="785" y="774" on="1"/>
        <pt x="1253" y="130" on="1"/>
        <pt x="1273" y="108" on="0"/>
        <pt x="1419" y="63" on="0"/>
        <pt x="1442" y="54" on="1"/>
        <pt x="1497" y="33" on="0"/>
        <pt x="1497" y="7" on="0"/>
        <pt x="1493" y="0" on="1"/>
        <pt x="809" y="0" on="1"/>
        <pt x="803" y="12" on="0"/>
        <pt x="803" y="29" on="0"/>
        <pt x="829" y="42" on="0"/>
        <pt x="867" y="50" on="0"/>
        <pt x="913" y="55" on="0"/>
        <pt x="932" y="60" on="1"/>
        <pt x="977" y="74" on="0"/>
        <pt x="977" y="102" on="1"/>
        <pt x="977" y="112" on="0"/>
        <pt x="960" y="134" on="1"/>
        <pt x="601" y="660" on="1"/>
        <pt x="511" y="660" on="1"/>
        <pt x="511" y="124" on="1"/>
        <pt x="511" y="58" on="0"/>
        <pt x="630" y="52" on="1"/>
        <pt x="708" y="49" on="0"/>
        <pt x="748" y="35" on="0"/>
        <pt x="748" y="19" on="1"/>
        <pt x="748" y="18" on="0"/>
        <pt x="743" y="0" on="1"/>
        <pt x="73" y="0" on="1"/>
        <pt x="69" y="11" on="0"/>
        <pt x="69" y="32" on="0"/>
        <pt x="103" y="45" on="0"/>
        <pt x="153" y="52" on="0"/>
        <pt x="212" y="59" on="0"/>
        <pt x="237" y="66" on="1"/>
        <pt x="296" y="84" on="0"/>
        <pt x="296" y="130" on="1"/>
        <pt x="296" y="1166" on="1"/>
        <pt x="296" y="1228" on="0"/>
        <pt x="68" y="1258" on="0"/>
      </contour>
    </TTGlyph>
    <TTGlyph name="Kcommaaccent" xMin="68" yMin="-577" xMax="1497" yMax="1302">
      <component glyphName="K" x="0" y="0" flags="0x1004"/>
      <component glyphName="commaaccent" x="431" y="0" flags="0x1004"/>
    </TTGlyph>
    <TTGlyph name="L" xMin="68" yMin="-11" xMax="1305" yMax="1302">
      <contour>
        <pt x="1242" y="-11" on="1"/>
        <pt x="1121" y="0" on="0"/>
        <pt x="1023" y="0" on="1"/>
        <pt x="70" y="0" on="1"/>
        <pt x="68" y="54" on="1"/>
        <pt x="109" y="68" on="0"/>
        <pt x="192" y="87" on="0"/>
        <pt x="225" y="104" on="1"/>
        <pt x="299" y="142" on="0"/>
        <pt x="299" y="240" on="1"/>
        <pt x="299" y="1034" on="1"/>
        <pt x="299" y="1137" on="0"/>
        <pt x="264" y="1194" on="0"/>
        <pt x="227" y="1214" on="0"/>
        <pt x="176" y="1226" on="0"/>
        <pt x="110" y="1238" on="0"/>
        <pt x="69" y="1251" on="1"/>
        <pt x="71" y="1302" on="1"/>
        <pt x="747" y="1302" on="1"/>
        <pt x="747" y="1250" on="1"/>
        <pt x="705" y="1232" on="0"/>
        <pt x="593" y="1213" on="0"/>
        <pt x="554" y="1198" on="0"/>
        <pt x="541" y="1180" on="1"/>
        <pt x="515" y="1144" on="0"/>
        <pt x="515" y="1040" on="1"/>
        <pt x="515" y="312" on="1"/>
        <pt x="515" y="225" on="0"/>
        <pt x="537" y="128" on="0"/>
        <pt x="611" y="83" on="0"/>
        <pt x="749" y="74" on="0"/>
        <pt x="911" y="74" on="0"/>
        <pt x="1000" y="83" on="0"/>
        <pt x="1040" y="98" on="1"/>
        <pt x="1125" y="130" on="0"/>
        <pt x="1171" y="217" on="1"/>
        <pt x="1188" y="249" on="0"/>
        <pt x="1219" y="317" on="0"/>
        <pt x="1245" y="344" on="1"/>
        <pt x="1305" y="342" on="1"/>
      </contour>
    </TTGlyph>
    <TTGlyph name="Lacute" xMin="68" yMin="-11" xMax="1305" yMax="1973">
      <component glyphName="L" x="0" y="0" flags="0x1204"/>
      <component glyphName="acute" x="199" y="403" flags="0x1004"/>
    </TTGlyph>
    <TTGlyph name="Lcaron" xMin="68" yMin="-11" xMax="1305" yMax="1731">
      <component glyphName="L" x="0" y="0" flags="0x1204"/>
      <component glyphName="quoteright" x="373" y="403" flags="0x1004"/>
    </TTGlyph>
    <TTGlyph name="Lcommaaccent" xMin="68" yMin="-577" xMax="1305" yMax="1302">
      <component glyphName="L" x="0" y="0" flags="0x1204"/>
      <component glyphName="commaaccent" x="284" y="0" flags="0x1004"/>
    </TTGlyph>
    <TTGlyph name="Ldot" xMin="68" yMin="-11" xMax="1305" yMax="1302">
      <component glyphName="L" x="0" y="0" flags="0x1204"/>
      <component glyphName="periodcentered" x="731" y="-2" flags="0x1004"/>
    </TTGlyph>
    <TTGlyph name="Ldotaccent" xMin="46" yMin="-11" xMax="1283" yMax="1302">
      <component glyphName="L" x="-22" y="0" flags="0x1004"/>
      <component glyphName="periodcentered" x="768" y="0" flags="0x1004"/>
    </TTGlyph>
    <TTGlyph name="Lslash" xMin="68" yMin="-26" xMax="1103" yMax="1176">
      <contour>
        <pt x="810" y="831" on="1"/>
        <pt x="853" y="831" on="0"/>
        <pt x="853" y="787" on="1"/>
        <pt x="853" y="763" on="0"/>
        <pt x="792" y="738" on="1"/>
        <pt x="771" y="729" on="0"/>
        <pt x="740" y="716" on="1"/>
        <pt x="513" y="624" on="1"/>
        <pt x="513" y="136" on="1"/>
        <pt x="513" y="56" on="0"/>
        <pt x="558" y="56" on="1"/>
        <pt x="864" y="67" on="1"/>
        <pt x="930" y="69" on="0"/>
        <pt x="954" y="90" on="1"/>
        <pt x="992" y="122" on="0"/>
        <pt x="1014" y="207" on="1"/>
        <pt x="1047" y="346" on="0"/>
        <pt x="1079" y="346" on="1"/>
        <pt x="1103" y="341" on="1"/>
        <pt x="1075" y="-20" on="1"/>
        <pt x="1072" y="-26" on="0"/>
        <pt x="1067" y="-26" on="1"/>
        <pt x="979" y="0" on="0"/>
        <pt x="908" y="0" on="1"/>
        <pt x="72" y="0" on="1"/>
        <pt x="68" y="9" on="0"/>
        <pt x="68" y="41" on="0"/>
        <pt x="102" y="57" on="0"/>
        <pt x="153" y="65" on="0"/>
        <pt x="213" y="69" on="0"/>
        <pt x="238" y="76" on="1"/>
        <pt x="298" y="92" on="0"/>
        <pt x="298" y="142" on="1"/>
        <pt x="298" y="537" on="1"/>
        <pt x="265" y="524" on="1"/>
        <pt x="182" y="491" on="0"/>
        <pt x="142" y="491" on="0"/>
        <pt x="118" y="515" on="0"/>
        <pt x="118" y="552" on="0"/>
        <pt x="166" y="584" on="0"/>
        <pt x="228" y="609" on="1"/>
        <pt x="298" y="637" on="1"/>
        <pt x="298" y="1038" on="1"/>
        <pt x="298" y="1101" on="0"/>
        <pt x="202" y="1114" on="1"/>
        <pt x="92" y="1128" on="0"/>
        <pt x="70" y="1159" on="1"/>
        <pt x="70" y="1164" on="0"/>
        <pt x="74" y="1176" on="1"/>
        <pt x="744" y="1176" on="1"/>
        <pt x="748" y="1168" on="0"/>
        <pt x="748" y="1140" on="0"/>
        <pt x="713" y="1126" on="0"/>
        <pt x="661" y="1120" on="0"/>
        <pt x="600" y="1116" on="0"/>
        <pt x="574" y="1109" on="1"/>
        <pt x="513" y="1093" on="0"/>
        <pt x="513" y="1044" on="1"/>
        <pt x="513" y="724" on="1"/>
        <pt x="705" y="802" on="1"/>
        <pt x="778" y="831" on="0"/>
      </contour>
    </TTGlyph>
    <TTGlyph name="M" xMin="33" yMin="0" xMax="1899" yMax="1302">
      <contour>
        <pt x="1678" y="271" on="1"/>
        <pt x="1688" y="168" on="0"/>
        <pt x="1734" y="117" on="1"/>
        <pt x="1745" y="83" on="0"/>
        <pt x="1808" y="74" on="1"/>
        <pt x="1884" y="64" on="0"/>
        <pt x="1899" y="52" on="1"/>
        <pt x="1897" y="0" on="1"/>
        <pt x="1274" y="0" on="1"/>
        <pt x="1272" y="52" on="1"/>
        <pt x="1303" y="62" on="0"/>
        <pt x="1372" y="83" on="0"/>
        <pt x="1400" y="100" on="1"/>
        <pt x="1466" y="139" on="0"/>
        <pt x="1466" y="211" on="1"/>
        <pt x="1404" y="1068" on="1"/>
        <pt x="1022" y="205" on="1"/>
        <pt x="991" y="136" on="0"/>
        <pt x="949" y="0" on="1"/>
        <pt x="870" y="0" on="1"/>
        <pt x="831" y="86" on="0"/>
        <pt x="689" y="381" on="0"/>
        <pt x="600" y="566" on="0"/>
        <pt x="556" y="660" on="1"/>
        <pt x="452" y="887" on="0"/>
        <pt x="395" y="1029" on="1"/>
        <pt x="386" y="930" on="0"/>
        <pt x="363" y="731" on="0"/>
        <pt x="354" y="630" on="1"/>
        <pt x="330" y="382" on="0"/>
        <pt x="330" y="183" on="0"/>
        <pt x="361" y="124" on="0"/>
        <pt x="414" y="87" on="0"/>
        <pt x="483" y="65" on="0"/>
        <pt x="521" y="52" on="1"/>
        <pt x="519" y="0" on="1"/>
        <pt x="35" y="0" on="1"/>
        <pt x="33" y="52" on="1"/>
        <pt x="68" y="66" on="0"/>
        <pt x="136" y="87" on="0"/>
        <pt x="164" y="103" on="1"/>
        <pt x="227" y="138" on="0"/>
        <pt x="236" y="220" on="1"/>
        <pt x="312" y="968" on="1"/>
        <pt x="319" y="1040" on="0"/>
        <pt x="319" y="1142" on="0"/>
        <pt x="284" y="1190" on="0"/>
        <pt x="229" y="1217" on="0"/>
        <pt x="164" y="1235" on="0"/>
        <pt x="134" y="1251" on="1"/>
        <pt x="136" y="1302" on="1"/>
        <pt x="525" y="1302" on="1"/>
        <pt x="568" y="1128" on="0"/>
        <pt x="612" y="1034" on="1"/>
        <pt x="972" y="267" on="1"/>
        <pt x="1329" y="1081" on="1"/>
        <pt x="1377" y="1191" on="0"/>
        <pt x="1377" y="1302" on="1"/>
        <pt x="1791" y="1302" on="1"/>
        <pt x="1791" y="1250" on="1"/>
        <pt x="1688" y="1216" on="0"/>
        <pt x="1662" y="1195" on="1"/>
        <pt x="1606" y="1151" on="0"/>
        <pt x="1606" y="1082" on="1"/>
      </contour>
    </TTGlyph>
    <TTGlyph name="N" xMin="68" yMin="-9" xMax="1656" yMax="1302">
      <contour>
        <pt x="1463" y="-9" on="1"/>
        <pt x="1422" y="-26" on="0"/>
        <pt x="1357" y="-9" on="1"/>
        <pt x="1268" y="98" on="0"/>
        <pt x="1193" y="178" on="1"/>
        <pt x="403" y="1009" on="1"/>
        <pt x="403" y="307" on="1"/>
        <pt x="403" y="151" on="0"/>
        <pt x="456" y="114" on="1"/>
        <pt x="498" y="85" on="0"/>
        <pt x="618" y="68" on="0"/>
        <pt x="647" y="53" on="1"/>
        <pt x="647" y="27" on="0"/>
        <pt x="644" y="0" on="1"/>
        <pt x="80" y="0" on="1"/>
        <pt x="78" y="8" on="0"/>
        <pt x="78" y="16" on="1"/>
        <pt x="78" y="54" on="1"/>
        <pt x="120" y="66" on="0"/>
        <pt x="203" y="85" on="0"/>
        <pt x="238" y="103" on="1"/>
        <pt x="314" y="143" on="0"/>
        <pt x="323" y="239" on="1"/>
        <pt x="323" y="1091" on="1"/>
        <pt x="277" y="1165" on="0"/>
        <pt x="210" y="1198" on="1"/>
        <pt x="179" y="1212" on="0"/>
        <pt x="109" y="1233" on="0"/>
        <pt x="68" y="1250" on="1"/>
        <pt x="68" y="1302" on="1"/>
        <pt x="417" y="1302" on="1"/>
        <pt x="1358" y="329" on="1"/>
        <pt x="1358" y="958" on="1"/>
        <pt x="1358" y="1050" on="0"/>
        <pt x="1318" y="1168" on="0"/>
        <pt x="1272" y="1204" on="0"/>
        <pt x="1215" y="1222" on="0"/>
        <pt x="1154" y="1235" on="0"/>
        <pt x="1126" y="1249" on="1"/>
        <pt x="1126" y="1275" on="0"/>
        <pt x="1129" y="1302" on="1"/>
        <pt x="1656" y="1302" on="1"/>
        <pt x="1656" y="1248" on="1"/>
        <pt x="1612" y="1228" on="0"/>
        <pt x="1546" y="1201" on="0"/>
        <pt x="1499" y="1174" on="0"/>
        <pt x="1469" y="1142" on="0"/>
        <pt x="1460" y="1116" on="1"/>
        <pt x="1445" y="1070" on="0"/>
        <pt x="1440" y="576" on="0"/>
        <pt x="1440" y="260" on="0"/>
        <pt x="1461" y="82" on="0"/>
      </contour>
    </TTGlyph>
    <TTGlyph name="Nacute" xMin="68" yMin="-9" xMax="1656" yMax="1972">
      <component glyphName="N" x="0" y="0" flags="0x1204"/>
      <component glyphName="acute" x="411" y="402" flags="0x1004"/>
    </TTGlyph>
    <TTGlyph name="Ncaron" xMin="68" yMin="-9" xMax="1656" yMax="1790">
      <component glyphName="N" x="0" y="0" flags="0x1204"/>
      <component glyphName="caron" x="348" y="402" flags="0x1004"/>
    </TTGlyph>
    <TTGlyph name="Ncommaaccent" xMin="68" yMin="-577" xMax="1656" yMax="1302">
      <component glyphName="N" x="0" y="0" flags="0x1204"/>
      <component glyphName="commaaccent" x="495" y="0" flags="0x1004"/>
    </TTGlyph>
    <TTGlyph name="Ntilde" xMin="68" yMin="-9" xMax="1656" yMax="1766">
      <component glyphName="N" x="0" y="0" flags="0x1204"/>
      <component glyphName="tilde" x="317" y="402" flags="0x1004"/>
    </TTGlyph>
    <TTGlyph name="O" xMin="112" yMin="-26" xMax="1491" yMax="1327">
      <contour>
        <pt x="345" y="714" on="1"/>
        <pt x="345" y="577" on="0"/>
        <pt x="418" y="333" on="0"/>
        <pt x="484" y="243" on="1"/>
        <pt x="623" y="51" on="0"/>
        <pt x="837" y="51" on="1"/>
        <pt x="1022" y="51" on="0"/>
        <pt x="1138" y="192" on="1"/>
        <pt x="1258" y="338" on="0"/>
        <pt x="1258" y="585" on="1"/>
        <pt x="1258" y="869" on="0"/>
        <pt x="1122" y="1058" on="1"/>
        <pt x="984" y="1250" on="0"/>
        <pt x="769" y="1250" on="1"/>
        <pt x="589" y="1250" on="0"/>
        <pt x="472" y="1116" on="1"/>
        <pt x="345" y="973" on="0"/>
      </contour>
      <contour>
        <pt x="112" y="642" on="1"/>
        <pt x="112" y="751" on="0"/>
        <pt x="167" y="943" on="0"/>
        <pt x="263" y="1096" on="0"/>
        <pt x="395" y="1211" on="0"/>
        <pt x="472" y="1250" on="1"/>
        <pt x="627" y="1327" on="0"/>
        <pt x="804" y="1327" on="1"/>
        <pt x="1092" y="1327" on="0"/>
        <pt x="1288" y="1143" on="1"/>
        <pt x="1416" y="1023" on="0"/>
        <pt x="1466" y="842" on="1"/>
        <pt x="1491" y="752" on="0"/>
        <pt x="1491" y="495" on="0"/>
        <pt x="1378" y="246" on="0"/>
        <pt x="1281" y="158" on="1"/>
        <pt x="1078" y="-26" on="0"/>
        <pt x="784" y="-26" on="1"/>
        <pt x="510" y="-26" on="0"/>
        <pt x="317" y="150" on="1"/>
        <pt x="112" y="338" on="0"/>
      </contour>
    </TTGlyph>
    <TTGlyph name="OE" xMin="112" yMin="-29" xMax="2042" yMax="1322">
      <contour>
        <pt x="790" y="80" on="1"/>
        <pt x="1048" y="80" on="0"/>
        <pt x="1088" y="101" on="1"/>
        <pt x="1088" y="552" on="0"/>
        <pt x="1083" y="1209" on="1"/>
        <pt x="972" y="1224" on="0"/>
        <pt x="746" y="1224" on="1"/>
        <pt x="565" y="1224" on="0"/>
        <pt x="456" y="1088" on="1"/>
        <pt x="346" y="951" on="0"/>
        <pt x="346" y="718" on="1"/>
        <pt x="346" y="471" on="0"/>
        <pt x="450" y="288" on="1"/>
        <pt x="570" y="80" on="0"/>
      </contour>
      <contour>
        <pt x="1170" y="1195" on="1"/>
        <pt x="1175" y="718" on="1"/>
        <pt x="1528" y="718" on="0"/>
        <pt x="1665" y="732" on="1"/>
        <pt x="1719" y="745" on="0"/>
        <pt x="1756" y="848" on="1"/>
        <pt x="1766" y="874" on="0"/>
        <pt x="1777" y="896" on="1"/>
        <pt x="1798" y="896" on="0"/>
        <pt x="1829" y="896" on="0"/>
        <pt x="1840" y="894" on="1"/>
        <pt x="1840" y="460" on="1"/>
        <pt x="1808" y="457" on="0"/>
        <pt x="1777" y="457" on="1"/>
        <pt x="1766" y="481" on="0"/>
        <pt x="1744" y="536" on="0"/>
        <pt x="1730" y="561" on="1"/>
        <pt x="1699" y="619" on="0"/>
        <pt x="1658" y="628" on="1"/>
        <pt x="1597" y="642" on="0"/>
        <pt x="1539" y="642" on="1"/>
        <pt x="1177" y="642" on="1"/>
        <pt x="1177" y="354" on="1"/>
        <pt x="1177" y="223" on="0"/>
        <pt x="1176" y="105" on="1"/>
        <pt x="1176" y="68" on="0"/>
        <pt x="1195" y="68" on="1"/>
        <pt x="1298" y="69" on="0"/>
        <pt x="1498" y="69" on="0"/>
        <pt x="1574" y="70" on="1"/>
        <pt x="1802" y="75" on="0"/>
        <pt x="1850" y="128" on="1"/>
        <pt x="1880" y="159" on="0"/>
        <pt x="1953" y="296" on="0"/>
        <pt x="1983" y="322" on="1"/>
        <pt x="2002" y="322" on="0"/>
        <pt x="2031" y="322" on="0"/>
        <pt x="2042" y="320" on="1"/>
        <pt x="1990" y="-21" on="1"/>
        <pt x="1968" y="-27" on="1"/>
        <pt x="1960" y="-29" on="0"/>
        <pt x="1937" y="-29" on="0"/>
        <pt x="1908" y="-20" on="0"/>
        <pt x="1894" y="-15" on="1"/>
        <pt x="1853" y="-1" on="0"/>
        <pt x="1831" y="-1" on="1"/>
        <pt x="779" y="-1" on="1"/>
        <pt x="475" y="-1" on="0"/>
        <pt x="290" y="190" on="1"/>
        <pt x="112" y="374" on="0"/>
        <pt x="112" y="656" on="1"/>
        <pt x="112" y="950" on="0"/>
        <pt x="310" y="1130" on="1"/>
        <pt x="502" y="1302" on="0"/>
        <pt x="794" y="1302" on="1"/>
        <pt x="1297" y="1302" on="1"/>
        <pt x="1574" y="1301" on="1"/>
        <pt x="1756" y="1301" on="0"/>
        <pt x="1867" y="1322" on="1"/>
        <pt x="1914" y="1322" on="0"/>
        <pt x="1974" y="1319" on="1"/>
        <pt x="1974" y="992" on="1"/>
        <pt x="1947" y="989" on="0"/>
        <pt x="1923" y="989" on="1"/>
        <pt x="1900" y="1012" on="0"/>
        <pt x="1872" y="1081" on="0"/>
        <pt x="1840" y="1149" on="0"/>
        <pt x="1794" y="1203" on="0"/>
        <pt x="1709" y="1218" on="0"/>
        <pt x="1596" y="1226" on="0"/>
        <pt x="1534" y="1228" on="1"/>
        <pt x="1431" y="1230" on="0"/>
        <pt x="1170" y="1230" on="0"/>
      </contour>
    </TTGlyph>
    <TTGlyph name="Oacute" xMin="112" yMin="-26" xMax="1491" yMax="1972">
      <component glyphName="O" x="0" y="0" flags="0x1204"/>
      <component glyphName="acute" x="350" y="402" flags="0x1004"/>
    </TTGlyph>
    <TTGlyph name="Obreve" xMin="112" yMin="-26" xMax="1491" yMax="1684">
      <component glyphName="O" x="0" y="0" flags="0x1204"/>
      <component glyphName="breve" x="455" y="402" flags="0x1004"/>
    </TTGlyph>
    <TTGlyph name="Ocircumflex" xMin="112" yMin="-26" xMax="1491" yMax="1973">
      <component glyphName="O" x="0" y="0" flags="0x1204"/>
      <component glyphName="circumflex" x="293" y="402" flags="0x1004"/>
    </TTGlyph>
    <TTGlyph name="Odieresis" xMin="112" yMin="-26" xMax="1491" yMax="1703">
      <component glyphName="O" x="0" y="0" flags="0x1204"/>
      <component glyphName="dieresis" x="243" y="402" flags="0x1004"/>
    </TTGlyph>
    <TTGlyph name="Ograve" xMin="112" yMin="-26" xMax="1491" yMax="1972">
      <component glyphName="O" x="0" y="0" flags="0x1204"/>
      <component glyphName="grave" x="350" y="402" flags="0x1004"/>
    </TTGlyph>
    <TTGlyph name="Ohungarumlaut" xMin="112" yMin="-26" xMax="1491" yMax="1811">
      <component glyphName="O" x="0" y="0" flags="0x1204"/>
      <component glyphName="hungarumlaut" x="295" y="402" flags="0x1004"/>
    </TTGlyph>
    <TTGlyph name="Omacron" xMin="112" yMin="-26" xMax="1491" yMax="1575">
      <component glyphName="O" x="0" y="0" flags="0x1204"/>
      <component glyphName="macron" x="412" y="403" flags="0x1004"/>
    </TTGlyph>
    <TTGlyph name="Oslash" xMin="112" yMin="-136" xMax="1491" yMax="1413">
      <contour>
        <pt x="569" y="171" on="1"/>
        <pt x="677" y="51" on="0"/>
        <pt x="837" y="51" on="1"/>
        <pt x="1022" y="51" on="0"/>
        <pt x="1138" y="192" on="1"/>
        <pt x="1258" y="338" on="0"/>
        <pt x="1258" y="586" on="1"/>
        <pt x="1258" y="855" on="0"/>
        <pt x="1128" y="1046" on="1"/>
        <pt x="841" y="644" on="0"/>
      </contour>
      <contour>
        <pt x="1056" y="1127" on="1"/>
        <pt x="939" y="1250" on="0"/>
        <pt x="769" y="1250" on="1"/>
        <pt x="589" y="1250" on="0"/>
        <pt x="471" y="1112" on="1"/>
        <pt x="345" y="966" on="0"/>
        <pt x="345" y="723" on="1"/>
        <pt x="345" y="427" on="0"/>
        <pt x="490" y="247" on="1"/>
      </contour>
      <contour>
        <pt x="826" y="1327" on="1"/>
        <pt x="990" y="1327" on="0"/>
        <pt x="1133" y="1241" on="1"/>
        <pt x="1149" y="1270" on="0"/>
        <pt x="1173" y="1323" on="0"/>
        <pt x="1186" y="1346" on="1"/>
        <pt x="1216" y="1394" on="0"/>
        <pt x="1267" y="1413" on="1"/>
        <pt x="1307" y="1402" on="0"/>
        <pt x="1334" y="1356" on="1"/>
        <pt x="1227" y="1189" on="1"/>
        <pt x="1418" y="1046" on="0"/>
        <pt x="1472" y="814" on="1"/>
        <pt x="1491" y="735" on="0"/>
        <pt x="1491" y="546" on="0"/>
        <pt x="1439" y="366" on="0"/>
        <pt x="1346" y="217" on="0"/>
        <pt x="1215" y="99" on="0"/>
        <pt x="1136" y="58" on="1"/>
        <pt x="976" y="-26" on="0"/>
        <pt x="611" y="-26" on="0"/>
        <pt x="489" y="57" on="1"/>
        <pt x="471" y="24" on="0"/>
        <pt x="439" y="-36" on="0"/>
        <pt x="422" y="-60" on="1"/>
        <pt x="384" y="-115" on="0"/>
        <pt x="341" y="-136" on="1"/>
        <pt x="301" y="-118" on="0"/>
        <pt x="282" y="-71" on="1"/>
        <pt x="302" y="-39" on="0"/>
        <pt x="326" y="-5" on="1"/>
        <pt x="393" y="105" on="1"/>
        <pt x="112" y="292" on="0"/>
        <pt x="112" y="641" on="1"/>
        <pt x="112" y="948" on="0"/>
        <pt x="316" y="1141" on="1"/>
        <pt x="514" y="1327" on="0"/>
      </contour>
    </TTGlyph>
    <TTGlyph name="Otilde" xMin="112" yMin="-26" xMax="1491" yMax="1766">
      <component glyphName="O" x="0" y="0" flags="0x1204"/>
      <component glyphName="tilde" x="256" y="402" flags="0x1004"/>
    </TTGlyph>
    <TTGlyph name="P" xMin="68" yMin="0" xMax="1247" yMax="1302">
      <contour>
        <pt x="611" y="1232" on="1"/>
        <pt x="556" y="1232" on="0"/>
        <pt x="496" y="1227" on="1"/>
        <pt x="496" y="275" on="1"/>
        <pt x="496" y="163" on="0"/>
        <pt x="530" y="105" on="0"/>
        <pt x="566" y="89" on="0"/>
        <pt x="591" y="84" on="1"/>
        <pt x="681" y="68" on="0"/>
        <pt x="723" y="52" on="1"/>
        <pt x="721" y="0" on="1"/>
        <pt x="71" y="0" on="1"/>
        <pt x="68" y="52" on="1"/>
        <pt x="178" y="83" on="0"/>
        <pt x="210" y="100" on="1"/>
        <pt x="280" y="140" on="0"/>
        <pt x="280" y="222" on="1"/>
        <pt x="280" y="1031" on="1"/>
        <pt x="280" y="1128" on="0"/>
        <pt x="246" y="1184" on="0"/>
        <pt x="212" y="1204" on="0"/>
        <pt x="165" y="1218" on="0"/>
        <pt x="105" y="1235" on="0"/>
        <pt x="69" y="1251" on="1"/>
        <pt x="71" y="1302" on="1"/>
        <pt x="567" y="1302" on="1"/>
        <pt x="856" y="1302" on="0"/>
        <pt x="1008" y="1252" on="1"/>
        <pt x="1247" y="1175" on="0"/>
        <pt x="1247" y="939" on="1"/>
        <pt x="1247" y="747" on="0"/>
        <pt x="1109" y="642" on="1"/>
        <pt x="986" y="548" on="0"/>
        <pt x="786" y="548" on="1"/>
        <pt x="705" y="548" on="0"/>
        <pt x="604" y="585" on="0"/>
        <pt x="578" y="603" on="0"/>
        <pt x="578" y="614" on="1"/>
        <pt x="578" y="632" on="0"/>
        <pt x="622" y="632" on="1"/>
        <pt x="637" y="632" on="1"/>
        <pt x="822" y="632" on="0"/>
        <pt x="906" y="683" on="1"/>
        <pt x="1014" y="750" on="0"/>
        <pt x="1014" y="925" on="1"/>
        <pt x="1014" y="1088" on="0"/>
        <pt x="878" y="1167" on="1"/>
        <pt x="765" y="1232" on="0"/>
      </contour>
    </TTGlyph>
    <TTGlyph name="Q" xMin="112" yMin="-314" xMax="1602" yMax="1327">
      <contour>
        <pt x="346" y="712" on="1"/>
        <pt x="346" y="573" on="0"/>
        <pt x="423" y="323" on="0"/>
        <pt x="490" y="234" on="1"/>
        <pt x="627" y="51" on="0"/>
        <pt x="835" y="51" on="1"/>
        <pt x="1017" y="51" on="0"/>
        <pt x="1132" y="186" on="1"/>
        <pt x="1258" y="334" on="0"/>
        <pt x="1258" y="587" on="1"/>
        <pt x="1258" y="867" on="0"/>
        <pt x="1122" y="1056" on="1"/>
        <pt x="983" y="1250" on="0"/>
        <pt x="770" y="1250" on="1"/>
        <pt x="588" y="1250" on="0"/>
        <pt x="470" y="1110" on="1"/>
        <pt x="346" y="966" on="0"/>
      </contour>
      <contour>
        <pt x="1602" y="-285" on="1"/>
        <pt x="1517" y="-314" on="0"/>
        <pt x="1346" y="-314" on="0"/>
        <pt x="1262" y="-306" on="0"/>
        <pt x="1224" y="-297" on="1"/>
        <pt x="1136" y="-276" on="0"/>
        <pt x="922" y="-166" on="0"/>
        <pt x="860" y="-132" on="1"/>
        <pt x="711" y="-51" on="0"/>
        <pt x="650" y="-11" on="1"/>
        <pt x="406" y="54" on="0"/>
        <pt x="264" y="213" on="1"/>
        <pt x="112" y="384" on="0"/>
        <pt x="112" y="641" on="1"/>
        <pt x="112" y="948" on="0"/>
        <pt x="316" y="1142" on="1"/>
        <pt x="512" y="1327" on="0"/>
        <pt x="804" y="1327" on="1"/>
        <pt x="1094" y="1327" on="0"/>
        <pt x="1288" y="1144" on="1"/>
        <pt x="1491" y="951" on="0"/>
        <pt x="1491" y="651" on="1"/>
        <pt x="1491" y="393" on="0"/>
        <pt x="1326" y="210" on="1"/>
        <pt x="1170" y="37" on="0"/>
        <pt x="924" y="-11" on="1"/>
        <pt x="1132" y="-112" on="0"/>
        <pt x="1299" y="-167" on="0"/>
        <pt x="1351" y="-178" on="1"/>
        <pt x="1454" y="-201" on="0"/>
        <pt x="1590" y="-213" on="1"/>
      </contour>
    </TTGlyph>
    <TTGlyph name="R" xMin="68" yMin="-2" xMax="1441" yMax="1303">
      <contour>
        <pt x="1441" y="-2" on="1"/>
        <pt x="1245" y="-50" on="0"/>
        <pt x="1135" y="2" on="1"/>
        <pt x="1021" y="57" on="0"/>
        <pt x="924" y="184" on="1"/>
        <pt x="849" y="284" on="0"/>
        <pt x="728" y="493" on="0"/>
        <pt x="679" y="566" on="0"/>
        <pt x="653" y="599" on="0"/>
        <pt x="638" y="610" on="1"/>
        <pt x="612" y="628" on="0"/>
        <pt x="552" y="632" on="1"/>
        <pt x="489" y="636" on="1"/>
        <pt x="489" y="251" on="1"/>
        <pt x="489" y="153" on="0"/>
        <pt x="529" y="101" on="0"/>
        <pt x="567" y="87" on="0"/>
        <pt x="591" y="83" on="1"/>
        <pt x="663" y="71" on="0"/>
        <pt x="705" y="52" on="1"/>
        <pt x="703" y="0" on="1"/>
        <pt x="70" y="0" on="1"/>
        <pt x="68" y="52" on="1"/>
        <pt x="110" y="75" on="0"/>
        <pt x="203" y="89" on="0"/>
        <pt x="238" y="102" on="0"/>
        <pt x="250" y="121" on="1"/>
        <pt x="274" y="159" on="0"/>
        <pt x="274" y="277" on="1"/>
        <pt x="274" y="1035" on="1"/>
        <pt x="274" y="1128" on="0"/>
        <pt x="240" y="1183" on="0"/>
        <pt x="207" y="1203" on="0"/>
        <pt x="161" y="1218" on="0"/>
        <pt x="103" y="1235" on="0"/>
        <pt x="68" y="1251" on="1"/>
        <pt x="70" y="1303" on="1"/>
        <pt x="531" y="1303" on="1"/>
        <pt x="719" y="1303" on="0"/>
        <pt x="896" y="1281" on="0"/>
        <pt x="1040" y="1241" on="0"/>
        <pt x="1096" y="1204" on="1"/>
        <pt x="1219" y="1123" on="0"/>
        <pt x="1219" y="970" on="1"/>
        <pt x="1219" y="831" on="0"/>
        <pt x="1102" y="742" on="1"/>
        <pt x="1003" y="668" on="0"/>
        <pt x="855" y="647" on="1"/>
        <pt x="900" y="586" on="0"/>
        <pt x="991" y="458" on="0"/>
        <pt x="1036" y="394" on="1"/>
        <pt x="1145" y="242" on="0"/>
        <pt x="1239" y="131" on="0"/>
        <pt x="1279" y="95" on="0"/>
        <pt x="1304" y="82" on="1"/>
        <pt x="1358" y="54" on="0"/>
        <pt x="1441" y="54" on="1"/>
      </contour>
      <contour>
        <pt x="489" y="703" on="1"/>
        <pt x="640" y="703" on="0"/>
        <pt x="759" y="716" on="0"/>
        <pt x="861" y="745" on="0"/>
        <pt x="900" y="774" on="1"/>
        <pt x="986" y="836" on="0"/>
        <pt x="986" y="958" on="1"/>
        <pt x="986" y="1139" on="0"/>
        <pt x="823" y="1193" on="1"/>
        <pt x="735" y="1222" on="0"/>
        <pt x="561" y="1227" on="0"/>
        <pt x="511" y="1227" on="1"/>
        <pt x="489" y="1227" on="1"/>
      </contour>
    </TTGlyph>
    <TTGlyph name="Racute" xMin="68" yMin="-2" xMax="1441" yMax="1972">
      <component glyphName="R" x="0" y="0" flags="0x1004"/>
      <component glyphName="acute" x="303" y="402" flags="0x1004"/>
    </TTGlyph>
    <TTGlyph name="Rcaron" xMin="68" yMin="-2" xMax="1441" yMax="1790">
      <component glyphName="R" x="0" y="0" flags="0x1004"/>
      <component glyphName="caron" x="240" y="402" flags="0x1004"/>
    </TTGlyph>
    <TTGlyph name="Rcommaaccent" xMin="68" yMin="-577" xMax="1441" yMax="1303">
      <component glyphName="R" x="0" y="0" flags="0x1004"/>
      <component glyphName="commaaccent" x="340" y="0" flags="0x1004"/>
    </TTGlyph>
    <TTGlyph name="S" xMin="137" yMin="-26" xMax="1058" yMax="1327">
      <contour>
        <pt x="137" y="400" on="1"/>
        <pt x="196" y="402" on="1"/>
        <pt x="210" y="378" on="0"/>
        <pt x="226" y="324" on="0"/>
        <pt x="252" y="237" on="0"/>
        <pt x="323" y="147" on="0"/>
        <pt x="370" y="118" on="1"/>
        <pt x="466" y="58" on="0"/>
        <pt x="591" y="58" on="1"/>
        <pt x="698" y="58" on="0"/>
        <pt x="774" y="109" on="1"/>
        <pt x="863" y="168" on="0"/>
        <pt x="863" y="268" on="1"/>
        <pt x="863" y="392" on="0"/>
        <pt x="638" y="519" on="1"/>
        <pt x="575" y="555" on="0"/>
        <pt x="442" y="630" on="0"/>
        <pt x="315" y="711" on="0"/>
        <pt x="265" y="759" on="1"/>
        <pt x="154" y="866" on="0"/>
        <pt x="154" y="991" on="1"/>
        <pt x="154" y="1162" on="0"/>
        <pt x="300" y="1252" on="1"/>
        <pt x="424" y="1327" on="0"/>
        <pt x="604" y="1327" on="1"/>
        <pt x="803" y="1327" on="0"/>
        <pt x="985" y="1234" on="1"/>
        <pt x="998" y="949" on="1"/>
        <pt x="936" y="949" on="1"/>
        <pt x="923" y="973" on="0"/>
        <pt x="907" y="1025" on="0"/>
        <pt x="880" y="1102" on="0"/>
        <pt x="817" y="1177" on="0"/>
        <pt x="776" y="1202" on="1"/>
        <pt x="696" y="1250" on="0"/>
        <pt x="588" y="1250" on="1"/>
        <pt x="497" y="1250" on="0"/>
        <pt x="389" y="1187" on="0"/>
        <pt x="341" y="1121" on="0"/>
        <pt x="341" y="1027" on="0"/>
        <pt x="403" y="945" on="0"/>
        <pt x="503" y="870" on="0"/>
        <pt x="632" y="798" on="0"/>
        <pt x="767" y="722" on="0"/>
        <pt x="896" y="638" on="0"/>
        <pt x="946" y="588" on="1"/>
        <pt x="1058" y="476" on="0"/>
        <pt x="1058" y="344" on="1"/>
        <pt x="1058" y="159" on="0"/>
        <pt x="904" y="60" on="1"/>
        <pt x="773" y="-26" on="0"/>
        <pt x="578" y="-26" on="1"/>
        <pt x="398" y="-26" on="0"/>
        <pt x="233" y="32" on="1"/>
        <pt x="178" y="52" on="0"/>
        <pt x="137" y="77" on="1"/>
      </contour>
    </TTGlyph>
    <TTGlyph name="Sacute" xMin="121" yMin="-26" xMax="1042" yMax="1972">
      <component glyphName="S" x="-16" y="0" flags="0x1004"/>
      <component glyphName="acute" x="129" y="402" flags="0x1004"/>
    </TTGlyph>
    <TTGlyph name="Scaron" xMin="121" yMin="-26" xMax="1042" yMax="1790">
      <component glyphName="S" x="-16" y="0" flags="0x1004"/>
      <component glyphName="caron" x="66" y="402" flags="0x1004"/>
    </TTGlyph>
    <TTGlyph name="Scedilla" xMin="121" yMin="-425" xMax="1042" yMax="1327">
      <component glyphName="S" x="-16" y="0" flags="0x1004"/>
      <component glyphName="cedilla" x="211" y="0" flags="0x1004"/>
    </TTGlyph>
    <TTGlyph name="Scommaaccent" xMin="121" yMin="-577" xMax="1042" yMax="1327">
      <component glyphName="S" x="-16" y="0" flags="0x1004"/>
      <component glyphName="uni0326" x="204" y="0" flags="0x1004"/>
    </TTGlyph>
    <TTGlyph name="T" xMin="34" yMin="0" xMax="1365" yMax="1310">
      <contour>
        <pt x="954" y="1229" on="1"/>
        <pt x="820" y="1228" on="1"/>
        <pt x="801" y="1228" on="1"/>
        <pt x="801" y="241" on="1"/>
        <pt x="801" y="131" on="0"/>
        <pt x="862" y="92" on="1"/>
        <pt x="904" y="66" on="0"/>
        <pt x="1027" y="52" on="1"/>
        <pt x="1027" y="16" on="1"/>
        <pt x="1027" y="8" on="0"/>
        <pt x="1025" y="0" on="1"/>
        <pt x="363" y="0" on="1"/>
        <pt x="361" y="52" on="1"/>
        <pt x="401" y="66" on="0"/>
        <pt x="482" y="88" on="0"/>
        <pt x="514" y="106" on="1"/>
        <pt x="586" y="146" on="0"/>
        <pt x="586" y="241" on="1"/>
        <pt x="586" y="1228" on="1"/>
        <pt x="440" y="1228" on="1"/>
        <pt x="350" y="1228" on="0"/>
        <pt x="254" y="1214" on="0"/>
        <pt x="195" y="1159" on="0"/>
        <pt x="146" y="1087" on="0"/>
        <pt x="103" y="1010" on="0"/>
        <pt x="80" y="982" on="1"/>
        <pt x="34" y="982" on="1"/>
        <pt x="59" y="1308" on="1"/>
        <pt x="314" y="1298" on="0"/>
        <pt x="1160" y="1298" on="0"/>
        <pt x="1333" y="1310" on="1"/>
        <pt x="1365" y="981" on="1"/>
        <pt x="1317" y="981" on="1"/>
        <pt x="1294" y="1009" on="0"/>
        <pt x="1253" y="1086" on="0"/>
        <pt x="1229" y="1122" on="1"/>
        <pt x="1171" y="1210" on="0"/>
        <pt x="1109" y="1220" on="1"/>
        <pt x="1052" y="1229" on="0"/>
      </contour>
    </TTGlyph>
    <TTGlyph name="Tbar" xMin="40" yMin="0" xMax="1145" yMax="1193">
      <contour>
        <pt x="979" y="1179" on="1"/>
        <pt x="1072" y="1193" on="1"/>
        <pt x="1100" y="1193" on="1"/>
        <pt x="1145" y="872" on="1"/>
        <pt x="1138" y="868" on="0"/>
        <pt x="1120" y="868" on="0"/>
        <pt x="1105" y="887" on="0"/>
        <pt x="1098" y="902" on="1"/>
        <pt x="1084" y="933" on="0"/>
        <pt x="1063" y="1002" on="0"/>
        <pt x="1043" y="1054" on="0"/>
        <pt x="1030" y="1072" on="1"/>
        <pt x="1004" y="1110" on="0"/>
        <pt x="958" y="1112" on="1"/>
        <pt x="685" y="1120" on="1"/>
        <pt x="685" y="699" on="1"/>
        <pt x="888" y="699" on="1"/>
        <pt x="888" y="627" on="1"/>
        <pt x="685" y="627" on="1"/>
        <pt x="685" y="124" on="1"/>
        <pt x="685" y="64" on="0"/>
        <pt x="802" y="54" on="1"/>
        <pt x="879" y="48" on="0"/>
        <pt x="919" y="32" on="0"/>
        <pt x="919" y="17" on="1"/>
        <pt x="919" y="11" on="0"/>
        <pt x="915" y="0" on="1"/>
        <pt x="245" y="0" on="1"/>
        <pt x="241" y="7" on="0"/>
        <pt x="241" y="35" on="0"/>
        <pt x="275" y="48" on="0"/>
        <pt x="326" y="53" on="0"/>
        <pt x="385" y="57" on="0"/>
        <pt x="410" y="64" on="1"/>
        <pt x="470" y="79" on="0"/>
        <pt x="470" y="130" on="1"/>
        <pt x="470" y="627" on="1"/>
        <pt x="256" y="627" on="1"/>
        <pt x="256" y="699" on="1"/>
        <pt x="470" y="699" on="1"/>
        <pt x="470" y="1120" on="1"/>
        <pt x="239" y="1112" on="1"/>
        <pt x="175" y="1109" on="0"/>
        <pt x="138" y="1026" on="1"/>
        <pt x="127" y="1000" on="0"/>
        <pt x="110" y="952" on="0"/>
        <pt x="96" y="916" on="0"/>
        <pt x="88" y="902" on="1"/>
        <pt x="71" y="868" on="0"/>
        <pt x="57" y="868" on="1"/>
        <pt x="51" y="868" on="0"/>
        <pt x="40" y="872" on="1"/>
        <pt x="73" y="1189" on="1"/>
        <pt x="109" y="1191" on="1"/>
        <pt x="140" y="1191" on="0"/>
        <pt x="192" y="1178" on="0"/>
        <pt x="225" y="1173" on="1"/>
      </contour>
    </TTGlyph>
    <TTGlyph name="Tcaron" xMin="34" yMin="0" xMax="1365" yMax="1791">
      <component glyphName="T" x="0" y="0" flags="0x1204"/>
      <component glyphName="caron" x="183" y="403" flags="0x1004"/>
    </TTGlyph>
    <TTGlyph name="Tcommaaccent" xMin="34" yMin="-577" xMax="1365" yMax="1310">
      <component glyphName="T" x="0" y="0" flags="0x1204"/>
      <component glyphName="commaaccent" x="331" y="0" flags="0x1004"/>
    </TTGlyph>
    <TTGlyph name="Thorn" xMin="68" yMin="0" xMax="1242" yMax="1302">
      <contour>
        <pt x="491" y="380" on="1"/>
        <pt x="603" y="375" on="0"/>
        <pt x="734" y="375" on="0"/>
        <pt x="857" y="406" on="0"/>
        <pt x="904" y="440" on="1"/>
        <pt x="1008" y="512" on="0"/>
        <pt x="1008" y="654" on="1"/>
        <pt x="1008" y="854" on="0"/>
        <pt x="832" y="918" on="1"/>
        <pt x="736" y="952" on="0"/>
        <pt x="546" y="957" on="0"/>
        <pt x="491" y="957" on="1"/>
      </contour>
      <contour>
        <pt x="491" y="308" on="1"/>
        <pt x="491" y="195" on="0"/>
        <pt x="515" y="131" on="0"/>
        <pt x="547" y="102" on="0"/>
        <pt x="598" y="82" on="0"/>
        <pt x="671" y="64" on="0"/>
        <pt x="721" y="51" on="1"/>
        <pt x="719" y="0" on="1"/>
        <pt x="70" y="0" on="1"/>
        <pt x="68" y="52" on="1"/>
        <pt x="102" y="64" on="0"/>
        <pt x="175" y="82" on="0"/>
        <pt x="206" y="98" on="1"/>
        <pt x="275" y="133" on="0"/>
        <pt x="275" y="214" on="1"/>
        <pt x="275" y="1048" on="1"/>
        <pt x="275" y="1143" on="0"/>
        <pt x="237" y="1195" on="0"/>
        <pt x="201" y="1209" on="0"/>
        <pt x="178" y="1214" on="1"/>
        <pt x="105" y="1232" on="0"/>
        <pt x="70" y="1251" on="1"/>
        <pt x="70" y="1302" on="1"/>
        <pt x="703" y="1302" on="1"/>
        <pt x="705" y="1250" on="1"/>
        <pt x="668" y="1236" on="0"/>
        <pt x="592" y="1216" on="0"/>
        <pt x="561" y="1199" on="1"/>
        <pt x="491" y="1161" on="0"/>
        <pt x="491" y="1072" on="1"/>
        <pt x="491" y="1033" on="1"/>
        <pt x="570" y="1033" on="1"/>
        <pt x="857" y="1033" on="0"/>
        <pt x="1010" y="981" on="1"/>
        <pt x="1242" y="902" on="0"/>
        <pt x="1242" y="668" on="1"/>
        <pt x="1242" y="418" on="0"/>
        <pt x="960" y="332" on="1"/>
        <pt x="852" y="300" on="0"/>
        <pt x="605" y="300" on="0"/>
      </contour>
    </TTGlyph>
    <TTGlyph name="U" xMin="26" yMin="-26" xMax="1625" yMax="1302">
      <contour>
        <pt x="239" y="664" on="1"/>
        <pt x="244" y="1024" on="1"/>
        <pt x="244" y="1099" on="0"/>
        <pt x="227" y="1169" on="0"/>
        <pt x="178" y="1205" on="0"/>
        <pt x="116" y="1227" on="0"/>
        <pt x="50" y="1242" on="0"/>
        <pt x="26" y="1251" on="1"/>
        <pt x="29" y="1302" on="1"/>
        <pt x="689" y="1302" on="1"/>
        <pt x="691" y="1250" on="1"/>
        <pt x="649" y="1235" on="0"/>
        <pt x="582" y="1221" on="0"/>
        <pt x="531" y="1209" on="0"/>
        <pt x="494" y="1190" on="0"/>
        <pt x="482" y="1170" on="1"/>
        <pt x="459" y="1132" on="0"/>
        <pt x="459" y="1023" on="1"/>
        <pt x="459" y="596" on="1"/>
        <pt x="459" y="354" on="0"/>
        <pt x="548" y="229" on="1"/>
        <pt x="654" y="82" on="0"/>
        <pt x="888" y="82" on="1"/>
        <pt x="1317" y="82" on="0"/>
        <pt x="1317" y="613" on="1"/>
        <pt x="1317" y="1006" on="1"/>
        <pt x="1317" y="1116" on="0"/>
        <pt x="1285" y="1180" on="0"/>
        <pt x="1249" y="1204" on="0"/>
        <pt x="1197" y="1220" on="0"/>
        <pt x="1128" y="1236" on="0"/>
        <pt x="1084" y="1251" on="1"/>
        <pt x="1084" y="1302" on="1"/>
        <pt x="1623" y="1302" on="1"/>
        <pt x="1625" y="1250" on="1"/>
        <pt x="1601" y="1237" on="0"/>
        <pt x="1536" y="1227" on="0"/>
        <pt x="1506" y="1220" on="1"/>
        <pt x="1431" y="1203" on="0"/>
        <pt x="1415" y="1150" on="1"/>
        <pt x="1399" y="1095" on="0"/>
        <pt x="1399" y="1022" on="1"/>
        <pt x="1403" y="714" on="1"/>
        <pt x="1403" y="485" on="0"/>
        <pt x="1348" y="269" on="0"/>
        <pt x="1270" y="131" on="0"/>
        <pt x="1206" y="80" on="1"/>
        <pt x="1069" y="-26" on="0"/>
        <pt x="821" y="-26" on="1"/>
        <pt x="596" y="-26" on="0"/>
        <pt x="444" y="75" on="1"/>
        <pt x="274" y="189" on="0"/>
        <pt x="251" y="401" on="1"/>
        <pt x="239" y="500" on="0"/>
      </contour>
    </TTGlyph>
    <TTGlyph name="Uacute" xMin="26" yMin="-26" xMax="1625" yMax="1972">
      <component glyphName="U" x="0" y="0" flags="0x1204"/>
      <component glyphName="acute" x="374" y="402" flags="0x1004"/>
    </TTGlyph>
    <TTGlyph name="Ubreve" xMin="26" yMin="-26" xMax="1625" yMax="1684">
      <component glyphName="U" x="0" y="0" flags="0x1204"/>
      <component glyphName="breve" x="479" y="402" flags="0x1004"/>
    </TTGlyph>
    <TTGlyph name="Ucircumflex" xMin="26" yMin="-26" xMax="1625" yMax="1973">
      <component glyphName="U" x="0" y="0" flags="0x1204"/>
      <component glyphName="circumflex" x="317" y="402" flags="0x1004"/>
    </TTGlyph>
    <TTGlyph name="Udieresis" xMin="26" yMin="-26" xMax="1625" yMax="1703">
      <component glyphName="U" x="0" y="0" flags="0x1204"/>
      <component glyphName="dieresis" x="267" y="402" flags="0x1004"/>
    </TTGlyph>
    <TTGlyph name="Ugrave" xMin="26" yMin="-26" xMax="1625" yMax="1972">
      <component glyphName="U" x="0" y="0" flags="0x1204"/>
      <component glyphName="grave" x="374" y="402" flags="0x1004"/>
    </TTGlyph>
    <TTGlyph name="Uhungarumlaut" xMin="26" yMin="-26" xMax="1625" yMax="1811">
      <component glyphName="U" x="0" y="0" flags="0x1204"/>
      <component glyphName="hungarumlaut" x="319" y="402" flags="0x1004"/>
    </TTGlyph>
    <TTGlyph name="Umacron" xMin="26" yMin="-26" xMax="1625" yMax="1575">
      <component glyphName="U" x="0" y="0" flags="0x1204"/>
      <component glyphName="macron" x="429" y="403" flags="0x1004"/>
    </TTGlyph>
    <TTGlyph name="Uogonek" xMin="26" yMin="-371" xMax="1625" yMax="1302">
      <component glyphName="U" x="0" y="0" flags="0x1204"/>
      <component glyphName="ogonek" x="1050" y="0" flags="0x1004"/>
    </TTGlyph>
    <TTGlyph name="Uring" xMin="26" yMin="-26" xMax="1625" yMax="1896">
      <component glyphName="U" x="0" y="0" flags="0x1204"/>
      <component glyphName="ring" x="479" y="402" flags="0x1004"/>
    </TTGlyph>
    <TTGlyph name="V" xMin="-10" yMin="-21" xMax="1424" yMax="1302">
      <contour>
        <pt x="581" y="1302" on="1"/>
        <pt x="587" y="1242" on="1"/>
        <pt x="567" y="1236" on="0"/>
        <pt x="505" y="1222" on="0"/>
        <pt x="475" y="1211" on="1"/>
        <pt x="402" y="1184" on="0"/>
        <pt x="402" y="1138" on="1"/>
        <pt x="402" y="1100" on="0"/>
        <pt x="599" y="664" on="0"/>
        <pt x="641" y="571" on="1"/>
        <pt x="738" y="356" on="0"/>
        <pt x="779" y="251" on="1"/>
        <pt x="799" y="304" on="0"/>
        <pt x="863" y="454" on="0"/>
        <pt x="935" y="623" on="0"/>
        <pt x="1007" y="799" on="0"/>
        <pt x="1036" y="877" on="1"/>
        <pt x="1102" y="1055" on="0"/>
        <pt x="1102" y="1153" on="0"/>
        <pt x="1062" y="1195" on="0"/>
        <pt x="1002" y="1218" on="0"/>
        <pt x="933" y="1231" on="0"/>
        <pt x="905" y="1240" on="1"/>
        <pt x="902" y="1253" on="0"/>
        <pt x="902" y="1269" on="1"/>
        <pt x="902" y="1285" on="0"/>
        <pt x="905" y="1302" on="1"/>
        <pt x="1421" y="1302" on="1"/>
        <pt x="1424" y="1275" on="0"/>
        <pt x="1424" y="1247" on="1"/>
        <pt x="1395" y="1227" on="0"/>
        <pt x="1327" y="1196" on="0"/>
        <pt x="1258" y="1164" on="0"/>
        <pt x="1202" y="1078" on="0"/>
        <pt x="1158" y="974" on="0"/>
        <pt x="1123" y="869" on="0"/>
        <pt x="1070" y="744" on="0"/>
        <pt x="985" y="537" on="0"/>
        <pt x="942" y="428" on="1"/>
        <pt x="821" y="125" on="0"/>
        <pt x="770" y="-11" on="1"/>
        <pt x="724" y="-21" on="0"/>
        <pt x="699" y="-19" on="0"/>
        <pt x="687" y="-19" on="0"/>
        <pt x="680" y="-17" on="1"/>
        <pt x="559" y="262" on="0"/>
        <pt x="313" y="809" on="0"/>
        <pt x="170" y="1128" on="0"/>
        <pt x="133" y="1179" on="0"/>
        <pt x="110" y="1195" on="1"/>
        <pt x="77" y="1219" on="0"/>
        <pt x="-10" y="1245" on="1"/>
        <pt x="-8" y="1302" on="1"/>
      </contour>
    </TTGlyph>
    <TTGlyph name="W" xMin="-103" yMin="-21" xMax="2020" yMax="1302">
      <contour>
        <pt x="547" y="1302" on="1"/>
        <pt x="552" y="1282" on="1"/>
        <pt x="552" y="1250" on="0"/>
        <pt x="375" y="1231" on="0"/>
        <pt x="375" y="1182" on="1"/>
        <pt x="375" y="1171" on="0"/>
        <pt x="472" y="893" on="0"/>
        <pt x="520" y="755" on="0"/>
        <pt x="570" y="615" on="0"/>
        <pt x="592" y="552" on="1"/>
        <pt x="626" y="458" on="0"/>
        <pt x="665" y="353" on="1"/>
        <pt x="934" y="1071" on="1"/>
        <pt x="921" y="1101" on="0"/>
        <pt x="898" y="1162" on="0"/>
        <pt x="885" y="1192" on="1"/>
        <pt x="875" y="1200" on="0"/>
        <pt x="845" y="1212" on="1"/>
        <pt x="782" y="1237" on="1"/>
        <pt x="700" y="1270" on="0"/>
        <pt x="700" y="1282" on="1"/>
        <pt x="700" y="1288" on="0"/>
        <pt x="707" y="1302" on="1"/>
        <pt x="1349" y="1302" on="1"/>
        <pt x="1355" y="1284" on="0"/>
        <pt x="1355" y="1264" on="0"/>
        <pt x="1327" y="1248" on="0"/>
        <pt x="1284" y="1242" on="0"/>
        <pt x="1234" y="1239" on="0"/>
        <pt x="1212" y="1234" on="1"/>
        <pt x="1163" y="1224" on="0"/>
        <pt x="1163" y="1188" on="1"/>
        <pt x="1163" y="1155" on="0"/>
        <pt x="1418" y="372" on="0"/>
        <pt x="1424" y="355" on="1"/>
        <pt x="1430" y="374" on="0"/>
        <pt x="1459" y="461" on="0"/>
        <pt x="1498" y="579" on="0"/>
        <pt x="1544" y="719" on="0"/>
        <pt x="1590" y="860" on="0"/>
        <pt x="1633" y="995" on="0"/>
        <pt x="1650" y="1050" on="1"/>
        <pt x="1686" y="1170" on="0"/>
        <pt x="1686" y="1214" on="0"/>
        <pt x="1639" y="1239" on="0"/>
        <pt x="1574" y="1251" on="0"/>
        <pt x="1506" y="1260" on="0"/>
        <pt x="1485" y="1271" on="1"/>
        <pt x="1479" y="1282" on="1"/>
        <pt x="1485" y="1302" on="1"/>
        <pt x="2002" y="1302" on="1"/>
        <pt x="2014" y="1302" on="0"/>
        <pt x="2020" y="1291" on="1"/>
        <pt x="2020" y="1269" on="0"/>
        <pt x="1930" y="1249" on="0"/>
        <pt x="1863" y="1235" on="0"/>
        <pt x="1833" y="1225" on="1"/>
        <pt x="1762" y="1201" on="0"/>
        <pt x="1731" y="1115" on="0"/>
        <pt x="1709" y="1034" on="0"/>
        <pt x="1696" y="992" on="1"/>
        <pt x="1397" y="1" on="1"/>
        <pt x="1391" y="-19" on="0"/>
        <pt x="1366" y="-19" on="1"/>
        <pt x="1323" y="-19" on="0"/>
        <pt x="1312" y="1" on="1"/>
        <pt x="1293" y="37" on="0"/>
        <pt x="1270" y="128" on="0"/>
        <pt x="1256" y="167" on="1"/>
        <pt x="972" y="994" on="1"/>
        <pt x="713" y="249" on="1"/>
        <pt x="703" y="220" on="0"/>
        <pt x="684" y="155" on="0"/>
        <pt x="674" y="123" on="1"/>
        <pt x="633" y="-7" on="0"/>
        <pt x="609" y="-17" on="1"/>
        <pt x="599" y="-21" on="0"/>
        <pt x="564" y="-21" on="0"/>
        <pt x="531" y="24" on="0"/>
        <pt x="506" y="84" on="0"/>
        <pt x="488" y="145" on="0"/>
        <pt x="391" y="404" on="0"/>
        <pt x="213" y="886" on="0"/>
        <pt x="120" y="1128" on="1"/>
        <pt x="105" y="1167" on="0"/>
        <pt x="50" y="1206" on="0"/>
        <pt x="-15" y="1232" on="0"/>
        <pt x="-79" y="1256" on="0"/>
        <pt x="-103" y="1280" on="1"/>
        <pt x="-96" y="1302" on="1"/>
      </contour>
    </TTGlyph>
    <TTGlyph name="X" xMin="18" yMin="0" xMax="1462" yMax="1302">
      <contour>
        <pt x="861" y="1246" on="1"/>
        <pt x="859" y="1251" on="0"/>
        <pt x="859" y="1266" on="1"/>
        <pt x="859" y="1292" on="1"/>
        <pt x="859" y="1297" on="0"/>
        <pt x="861" y="1302" on="1"/>
        <pt x="1374" y="1302" on="1"/>
        <pt x="1376" y="1294" on="0"/>
        <pt x="1376" y="1286" on="1"/>
        <pt x="1376" y="1250" on="1"/>
        <pt x="1360" y="1244" on="0"/>
        <pt x="1302" y="1227" on="0"/>
        <pt x="1268" y="1212" on="1"/>
        <pt x="1183" y="1176" on="0"/>
        <pt x="1136" y="1126" on="1"/>
        <pt x="1097" y="1085" on="0"/>
        <pt x="1053" y="1029" on="1"/>
        <pt x="811" y="725" on="1"/>
        <pt x="1182" y="236" on="1"/>
        <pt x="1239" y="159" on="0"/>
        <pt x="1267" y="135" on="1"/>
        <pt x="1316" y="93" on="0"/>
        <pt x="1395" y="71" on="0"/>
        <pt x="1448" y="57" on="0"/>
        <pt x="1462" y="52" on="1"/>
        <pt x="1462" y="28" on="0"/>
        <pt x="1460" y="0" on="1"/>
        <pt x="808" y="0" on="1"/>
        <pt x="806" y="8" on="0"/>
        <pt x="806" y="15" on="1"/>
        <pt x="806" y="52" on="1"/>
        <pt x="962" y="85" on="0"/>
        <pt x="962" y="156" on="1"/>
        <pt x="962" y="191" on="0"/>
        <pt x="942" y="216" on="1"/>
        <pt x="679" y="565" on="1"/>
        <pt x="456" y="294" on="1"/>
        <pt x="377" y="199" on="0"/>
        <pt x="377" y="144" on="1"/>
        <pt x="377" y="90" on="0"/>
        <pt x="541" y="57" on="1"/>
        <pt x="542" y="50" on="0"/>
        <pt x="542" y="40" on="1"/>
        <pt x="542" y="16" on="1"/>
        <pt x="542" y="8" on="0"/>
        <pt x="541" y="0" on="1"/>
        <pt x="20" y="0" on="1"/>
        <pt x="18" y="8" on="0"/>
        <pt x="18" y="15" on="1"/>
        <pt x="18" y="52" on="1"/>
        <pt x="38" y="60" on="0"/>
        <pt x="95" y="77" on="0"/>
        <pt x="126" y="90" on="1"/>
        <pt x="202" y="120" on="0"/>
        <pt x="232" y="152" on="1"/>
        <pt x="273" y="194" on="0"/>
        <pt x="319" y="252" on="1"/>
        <pt x="632" y="628" on="1"/>
        <pt x="273" y="1097" on="1"/>
        <pt x="205" y="1187" on="0"/>
        <pt x="77" y="1226" on="1"/>
        <pt x="46" y="1236" on="0"/>
        <pt x="21" y="1246" on="1"/>
        <pt x="21" y="1282" on="1"/>
        <pt x="21" y="1291" on="0"/>
        <pt x="23" y="1302" on="1"/>
        <pt x="665" y="1302" on="1"/>
        <pt x="667" y="1276" on="0"/>
        <pt x="667" y="1250" on="1"/>
        <pt x="563" y="1229" on="0"/>
        <pt x="526" y="1181" on="1"/>
        <pt x="512" y="1164" on="0"/>
        <pt x="512" y="1148" on="1"/>
        <pt x="512" y="1127" on="0"/>
        <pt x="529" y="1095" on="1"/>
        <pt x="762" y="788" on="1"/>
        <pt x="945" y="1014" on="1"/>
        <pt x="999" y="1082" on="0"/>
        <pt x="1007" y="1117" on="0"/>
        <pt x="1007" y="1130" on="1"/>
        <pt x="1007" y="1170" on="0"/>
        <pt x="930" y="1232" on="0"/>
      </contour>
    </TTGlyph>
    <TTGlyph name="Y" xMin="-2" yMin="0" xMax="1341" yMax="1302">
      <contour>
        <pt x="837" y="1273" on="1"/>
        <pt x="837" y="1286" on="0"/>
        <pt x="839" y="1302" on="1"/>
        <pt x="1341" y="1302" on="1"/>
        <pt x="1341" y="1250" on="1"/>
        <pt x="1237" y="1207" on="0"/>
        <pt x="1205" y="1187" on="1"/>
        <pt x="1143" y="1145" on="0"/>
        <pt x="1103" y="1086" on="1"/>
        <pt x="775" y="583" on="1"/>
        <pt x="775" y="246" on="1"/>
        <pt x="775" y="151" on="0"/>
        <pt x="816" y="101" on="0"/>
        <pt x="855" y="88" on="0"/>
        <pt x="879" y="84" on="1"/>
        <pt x="955" y="69" on="0"/>
        <pt x="992" y="52" on="1"/>
        <pt x="990" y="0" on="1"/>
        <pt x="344" y="0" on="1"/>
        <pt x="342" y="52" on="1"/>
        <pt x="380" y="73" on="0"/>
        <pt x="477" y="87" on="0"/>
        <pt x="517" y="99" on="0"/>
        <pt x="531" y="116" on="1"/>
        <pt x="560" y="150" on="0"/>
        <pt x="560" y="254" on="1"/>
        <pt x="560" y="562" on="1"/>
        <pt x="195" y="1134" on="1"/>
        <pt x="159" y="1190" on="0"/>
        <pt x="48" y="1234" on="1"/>
        <pt x="19" y="1246" on="0"/>
        <pt x="-2" y="1251" on="1"/>
        <pt x="-2" y="1302" on="1"/>
        <pt x="618" y="1302" on="1"/>
        <pt x="620" y="1250" on="1"/>
        <pt x="521" y="1235" on="0"/>
        <pt x="476" y="1187" on="1"/>
        <pt x="459" y="1168" on="0"/>
        <pt x="459" y="1126" on="0"/>
        <pt x="495" y="1054" on="0"/>
        <pt x="551" y="961" on="0"/>
        <pt x="619" y="856" on="0"/>
        <pt x="682" y="761" on="0"/>
        <pt x="733" y="685" on="0"/>
        <pt x="744" y="667" on="1"/>
        <pt x="751" y="678" on="0"/>
        <pt x="795" y="742" on="0"/>
        <pt x="852" y="830" on="0"/>
        <pt x="916" y="932" on="0"/>
        <pt x="942" y="981" on="1"/>
        <pt x="1004" y="1095" on="0"/>
        <pt x="1004" y="1167" on="0"/>
        <pt x="967" y="1202" on="0"/>
        <pt x="915" y="1225" on="0"/>
        <pt x="858" y="1240" on="0"/>
        <pt x="839" y="1246" on="1"/>
      </contour>
    </TTGlyph>
    <TTGlyph name="Yacute" xMin="-2" yMin="0" xMax="1341" yMax="1972">
      <component glyphName="Y" x="0" y="0" flags="0x1004"/>
      <component glyphName="acute" x="218" y="402" flags="0x1004"/>
    </TTGlyph>
    <TTGlyph name="Ydieresis" xMin="-2" yMin="0" xMax="1341" yMax="1703">
      <component glyphName="Y" x="0" y="0" flags="0x1004"/>
      <component glyphName="dieresis" x="111" y="402" flags="0x1004"/>
    </TTGlyph>
    <TTGlyph name="Z" xMin="93" yMin="-10" xMax="1219" yMax="1307">
      <contour>
        <pt x="381" y="89" on="1"/>
        <pt x="428" y="74" on="0"/>
        <pt x="471" y="74" on="1"/>
        <pt x="610" y="74" on="1"/>
        <pt x="884" y="74" on="0"/>
        <pt x="962" y="104" on="1"/>
        <pt x="1003" y="121" on="0"/>
        <pt x="1043" y="177" on="0"/>
        <pt x="1061" y="211" on="1"/>
        <pt x="1111" y="305" on="0"/>
        <pt x="1163" y="359" on="1"/>
        <pt x="1219" y="357" on="1"/>
        <pt x="1159" y="-10" on="1"/>
        <pt x="1118" y="-10" on="1"/>
        <pt x="974" y="0" on="1"/>
        <pt x="97" y="0" on="1"/>
        <pt x="93" y="43" on="1"/>
        <pt x="927" y="1225" on="1"/>
        <pt x="531" y="1225" on="1"/>
        <pt x="429" y="1225" on="0"/>
        <pt x="392" y="1212" on="1"/>
        <pt x="318" y="1188" on="0"/>
        <pt x="276" y="1112" on="1"/>
        <pt x="256" y="1077" on="0"/>
        <pt x="219" y="1005" on="0"/>
        <pt x="196" y="972" on="1"/>
        <pt x="170" y="972" on="0"/>
        <pt x="143" y="975" on="1"/>
        <pt x="170" y="1307" on="1"/>
        <pt x="202" y="1307" on="1"/>
        <pt x="1188" y="1302" on="1"/>
        <pt x="1201" y="1296" on="0"/>
        <pt x="1201" y="1272" on="1"/>
        <pt x="1200" y="1245" on="1"/>
        <pt x="455" y="198" on="1"/>
        <pt x="407" y="133" on="0"/>
      </contour>
    </TTGlyph>
    <TTGlyph name="Zacute" xMin="84" yMin="-10" xMax="1210" yMax="1972">
      <component glyphName="Z" x="-9" y="0" flags="0x1004"/>
      <component glyphName="acute" x="185" y="402" flags="0x1004"/>
    </TTGlyph>
    <TTGlyph name="Zcaron" xMin="84" yMin="-10" xMax="1210" yMax="1790">
      <component glyphName="Z" x="-9" y="0" flags="0x1004"/>
      <component glyphName="caron" x="122" y="402" flags="0x1004"/>
    </TTGlyph>
    <TTGlyph name="Zdotaccent" xMin="84" yMin="-10" xMax="1210" yMax="1677">
      <component glyphName="Z" x="-9" y="0" flags="0x1004"/>
      <component glyphName="dotaccent" x="297" y="403" flags="0x1004"/>
    </TTGlyph>
    <TTGlyph name="a" xMin="91" yMin="-20" xMax="988" yMax="926">
      <contour>
        <pt x="412" y="93" on="1"/>
        <pt x="518" y="93" on="0"/>
        <pt x="630" y="200" on="1"/>
        <pt x="630" y="455" on="1"/>
        <pt x="604" y="446" on="0"/>
        <pt x="534" y="424" on="0"/>
        <pt x="458" y="395" on="0"/>
        <pt x="383" y="359" on="0"/>
        <pt x="354" y="336" on="1"/>
        <pt x="288" y="283" on="0"/>
        <pt x="288" y="160" on="0"/>
        <pt x="352" y="93" on="0"/>
      </contour>
      <contour>
        <pt x="633" y="129" on="1"/>
        <pt x="493" y="-20" on="0"/>
        <pt x="321" y="-20" on="1"/>
        <pt x="168" y="-20" on="0"/>
        <pt x="110" y="92" on="1"/>
        <pt x="91" y="129" on="0"/>
        <pt x="91" y="236" on="0"/>
        <pt x="147" y="326" on="0"/>
        <pt x="238" y="393" on="0"/>
        <pt x="354" y="441" on="0"/>
        <pt x="474" y="477" on="0"/>
        <pt x="587" y="503" on="0"/>
        <pt x="630" y="514" on="1"/>
        <pt x="630" y="609" on="1"/>
        <pt x="630" y="725" on="0"/>
        <pt x="579" y="813" on="0"/>
        <pt x="507" y="852" on="0"/>
        <pt x="430" y="852" on="0"/>
        <pt x="376" y="840" on="0"/>
        <pt x="350" y="829" on="1"/>
        <pt x="288" y="802" on="0"/>
        <pt x="288" y="762" on="1"/>
        <pt x="288" y="746" on="0"/>
        <pt x="300" y="724" on="1"/>
        <pt x="322" y="681" on="0"/>
        <pt x="322" y="625" on="0"/>
        <pt x="273" y="572" on="0"/>
        <pt x="205" y="572" on="0"/>
        <pt x="164" y="593" on="0"/>
        <pt x="150" y="610" on="1"/>
        <pt x="122" y="646" on="0"/>
        <pt x="122" y="740" on="0"/>
        <pt x="159" y="806" on="0"/>
        <pt x="219" y="857" on="0"/>
        <pt x="297" y="893" on="0"/>
        <pt x="338" y="904" on="1"/>
        <pt x="415" y="926" on="0"/>
        <pt x="601" y="926" on="0"/>
        <pt x="729" y="878" on="0"/>
        <pt x="797" y="781" on="0"/>
        <pt x="817" y="637" on="0"/>
        <pt x="817" y="541" on="1"/>
        <pt x="811" y="324" on="1"/>
        <pt x="811" y="99" on="0"/>
        <pt x="858" y="99" on="1"/>
        <pt x="892" y="99" on="0"/>
        <pt x="946" y="168" on="1"/>
        <pt x="988" y="123" on="1"/>
        <pt x="942" y="48" on="0"/>
        <pt x="913" y="24" on="1"/>
        <pt x="858" y="-20" on="0"/>
        <pt x="721" y="-20" on="0"/>
        <pt x="637" y="63" on="0"/>
      </contour>
    </TTGlyph>
    <TTGlyph name="aacute" xMin="91" yMin="-20" xMax="988" yMax="1570">
      <component glyphName="a" x="0" y="0" flags="0x1204"/>
      <component glyphName="acute" x="88" y="0" flags="0x1004"/>
    </TTGlyph>
    <TTGlyph name="abreve" xMin="91" yMin="-20" xMax="988" yMax="1282">
      <component glyphName="a" x="0" y="0" flags="0x1204"/>
      <component glyphName="breve" x="193" y="0" flags="0x1004"/>
    </TTGlyph>
    <TTGlyph name="acircumflex" xMin="91" yMin="-20" xMax="988" yMax="1571">
      <component glyphName="a" x="0" y="0" flags="0x1204"/>
      <component glyphName="circumflex" x="31" y="0" flags="0x1004"/>
    </TTGlyph>
    <TTGlyph name="acute" xMin="231" yMin="1096" xMax="671" yMax="1570">
      <contour>
        <pt x="254" y="1096" on="1"/>
        <pt x="231" y="1096" on="0"/>
        <pt x="231" y="1122" on="1"/>
        <pt x="231" y="1137" on="0"/>
        <pt x="273" y="1193" on="0"/>
        <pt x="352" y="1298" on="0"/>
        <pt x="392" y="1352" on="1"/>
        <pt x="495" y="1490" on="0"/>
        <pt x="519" y="1522" on="1"/>
        <pt x="555" y="1570" on="0"/>
        <pt x="590" y="1570" on="1"/>
        <pt x="639" y="1570" on="0"/>
        <pt x="664" y="1518" on="1"/>
        <pt x="671" y="1503" on="0"/>
        <pt x="671" y="1460" on="0"/>
        <pt x="612" y="1407" on="0"/>
        <pt x="510" y="1313" on="0"/>
        <pt x="460" y="1266" on="1"/>
        <pt x="346" y="1162" on="0"/>
        <pt x="271" y="1096" on="0"/>
      </contour>
    </TTGlyph>
    <TTGlyph name="adieresis" xMin="91" yMin="-20" xMax="988" yMax="1301">
      <component glyphName="a" x="0" y="0" flags="0x1204"/>
      <component glyphName="dieresis" x="-66" y="0" flags="0x1004"/>
    </TTGlyph>
    <TTGlyph name="ae" xMin="69" yMin="-20" xMax="1382" yMax="926">
      <contour>
        <pt x="1114" y="583" on="1"/>
        <pt x="1161" y="592" on="0"/>
        <pt x="1197" y="614" on="1"/>
        <pt x="1183" y="731" on="0"/>
        <pt x="1099" y="852" on="0"/>
        <pt x="1014" y="852" on="1"/>
        <pt x="810" y="852" on="0"/>
        <pt x="805" y="544" on="1"/>
      </contour>
      <contour>
        <pt x="657" y="185" on="1"/>
        <pt x="620" y="283" on="0"/>
        <pt x="617" y="446" on="1"/>
        <pt x="403" y="392" on="0"/>
        <pt x="295" y="322" on="0"/>
        <pt x="262" y="254" on="0"/>
        <pt x="262" y="178" on="0"/>
        <pt x="283" y="135" on="0"/>
        <pt x="301" y="121" on="1"/>
        <pt x="378" y="61" on="0"/>
        <pt x="536" y="121" on="1"/>
        <pt x="607" y="148" on="0"/>
      </contour>
      <contour>
        <pt x="759" y="791" on="1"/>
        <pt x="854" y="926" on="0"/>
        <pt x="1049" y="926" on="1"/>
        <pt x="1201" y="926" on="0"/>
        <pt x="1294" y="816" on="1"/>
        <pt x="1382" y="711" on="0"/>
        <pt x="1382" y="554" on="1"/>
        <pt x="804" y="486" on="1"/>
        <pt x="804" y="462" on="1"/>
        <pt x="804" y="284" on="0"/>
        <pt x="860" y="210" on="1"/>
        <pt x="922" y="128" on="0"/>
        <pt x="1083" y="128" on="1"/>
        <pt x="1205" y="128" on="0"/>
        <pt x="1290" y="174" on="1"/>
        <pt x="1317" y="189" on="0"/>
        <pt x="1345" y="208" on="1"/>
        <pt x="1364" y="194" on="0"/>
        <pt x="1374" y="179" on="1"/>
        <pt x="1336" y="82" on="0"/>
        <pt x="1231" y="28" on="1"/>
        <pt x="1136" y="-20" on="0"/>
        <pt x="1021" y="-20" on="1"/>
        <pt x="819" y="-20" on="0"/>
        <pt x="690" y="132" on="1"/>
        <pt x="566" y="23" on="0"/>
        <pt x="396" y="-10" on="1"/>
        <pt x="345" y="-20" on="0"/>
        <pt x="297" y="-20" on="1"/>
        <pt x="139" y="-20" on="0"/>
        <pt x="86" y="89" on="1"/>
        <pt x="69" y="125" on="0"/>
        <pt x="69" y="234" on="0"/>
        <pt x="115" y="322" on="0"/>
        <pt x="193" y="384" on="0"/>
        <pt x="300" y="425" on="0"/>
        <pt x="420" y="457" on="0"/>
        <pt x="550" y="484" on="0"/>
        <pt x="613" y="501" on="1"/>
        <pt x="613" y="622" on="1"/>
        <pt x="613" y="852" on="0"/>
        <pt x="448" y="852" on="1"/>
        <pt x="402" y="852" on="0"/>
        <pt x="359" y="836" on="1"/>
        <pt x="272" y="805" on="0"/>
        <pt x="272" y="760" on="1"/>
        <pt x="272" y="741" on="0"/>
        <pt x="284" y="720" on="1"/>
        <pt x="307" y="680" on="0"/>
        <pt x="307" y="660" on="0"/>
        <pt x="285" y="629" on="0"/>
        <pt x="268" y="614" on="1"/>
        <pt x="227" y="578" on="0"/>
        <pt x="173" y="578" on="0"/>
        <pt x="141" y="605" on="0"/>
        <pt x="129" y="626" on="1"/>
        <pt x="103" y="670" on="0"/>
        <pt x="103" y="752" on="0"/>
        <pt x="143" y="816" on="0"/>
        <pt x="209" y="863" on="0"/>
        <pt x="292" y="896" on="0"/>
        <pt x="334" y="906" on="1"/>
        <pt x="417" y="924" on="0"/>
        <pt x="486" y="924" on="1"/>
        <pt x="694" y="924" on="0"/>
      </contour>
    </TTGlyph>
    <TTGlyph name="agrave" xMin="91" yMin="-20" xMax="988" yMax="1570">
      <component glyphName="a" x="0" y="0" flags="0x1204"/>
      <component glyphName="grave" x="88" y="0" flags="0x1004"/>
    </TTGlyph>
    <TTGlyph name="amacron" xMin="91" yMin="-20" xMax="988" yMax="1172">
      <component glyphName="a" x="0" y="0" flags="0x1204"/>
      <component glyphName="macron" x="114" y="0" flags="0x1004"/>
    </TTGlyph>
    <TTGlyph name="ampersand" xMin="73" yMin="-28" xMax="1446" yMax="1322">
      <contour>
        <pt x="984" y="832" on="1"/>
        <pt x="982" y="844" on="0"/>
        <pt x="982" y="870" on="0"/>
        <pt x="984" y="886" on="1"/>
        <pt x="1393" y="886" on="1"/>
        <pt x="1394" y="872" on="0"/>
        <pt x="1394" y="860" on="1"/>
        <pt x="1394" y="835" on="1"/>
        <pt x="1385" y="827" on="0"/>
        <pt x="1346" y="816" on="1"/>
        <pt x="1275" y="797" on="0"/>
        <pt x="1261" y="776" on="1"/>
        <pt x="1223" y="717" on="0"/>
        <pt x="1176" y="608" on="1"/>
        <pt x="1084" y="399" on="0"/>
        <pt x="1020" y="296" on="1"/>
        <pt x="1066" y="238" on="0"/>
        <pt x="1150" y="165" on="0"/>
        <pt x="1197" y="165" on="1"/>
        <pt x="1282" y="165" on="0"/>
        <pt x="1387" y="318" on="1"/>
        <pt x="1446" y="275" on="1"/>
        <pt x="1391" y="45" on="0"/>
        <pt x="1262" y="-11" on="1"/>
        <pt x="1222" y="-28" on="0"/>
        <pt x="1105" y="-28" on="0"/>
        <pt x="956" y="67" on="0"/>
        <pt x="896" y="152" on="1"/>
        <pt x="799" y="57" on="0"/>
        <pt x="727" y="25" on="1"/>
        <pt x="608" y="-26" on="0"/>
        <pt x="389" y="-26" on="0"/>
        <pt x="235" y="30" on="0"/>
        <pt x="182" y="78" on="1"/>
        <pt x="73" y="175" on="0"/>
        <pt x="73" y="319" on="1"/>
        <pt x="73" y="450" on="0"/>
        <pt x="157" y="552" on="1"/>
        <pt x="227" y="637" on="0"/>
        <pt x="411" y="758" on="1"/>
        <pt x="264" y="922" on="0"/>
        <pt x="264" y="1042" on="1"/>
        <pt x="264" y="1162" on="0"/>
        <pt x="384" y="1244" on="1"/>
        <pt x="497" y="1322" on="0"/>
        <pt x="634" y="1322" on="1"/>
        <pt x="811" y="1322" on="0"/>
        <pt x="871" y="1193" on="1"/>
        <pt x="892" y="1148" on="0"/>
        <pt x="892" y="1044" on="0"/>
        <pt x="854" y="976" on="0"/>
        <pt x="817" y="943" on="1"/>
        <pt x="766" y="897" on="0"/>
        <pt x="602" y="799" on="1"/>
        <pt x="658" y="736" on="0"/>
        <pt x="740" y="635" on="1"/>
        <pt x="890" y="449" on="0"/>
        <pt x="969" y="357" on="1"/>
        <pt x="1059" y="514" on="0"/>
        <pt x="1098" y="692" on="1"/>
        <pt x="1110" y="722" on="0"/>
        <pt x="1110" y="757" on="0"/>
        <pt x="1087" y="784" on="0"/>
        <pt x="1069" y="796" on="1"/>
        <pt x="1040" y="814" on="0"/>
      </contour>
      <contour>
        <pt x="845" y="209" on="1"/>
        <pt x="606" y="518" on="0"/>
        <pt x="457" y="702" on="1"/>
        <pt x="359" y="634" on="0"/>
        <pt x="266" y="507" on="0"/>
        <pt x="266" y="368" on="0"/>
        <pt x="317" y="247" on="0"/>
        <pt x="362" y="202" on="1"/>
        <pt x="462" y="102" on="0"/>
        <pt x="611" y="102" on="1"/>
        <pt x="705" y="102" on="0"/>
        <pt x="784" y="160" on="1"/>
        <pt x="813" y="180" on="0"/>
      </contour>
      <contour>
        <pt x="440" y="1160" on="1"/>
        <pt x="427" y="1134" on="0"/>
        <pt x="427" y="1093" on="1"/>
        <pt x="427" y="1011" on="0"/>
        <pt x="558" y="849" on="1"/>
        <pt x="648" y="901" on="0"/>
        <pt x="749" y="1006" on="0"/>
        <pt x="749" y="1071" on="1"/>
        <pt x="749" y="1134" on="0"/>
        <pt x="718" y="1175" on="1"/>
        <pt x="661" y="1250" on="0"/>
        <pt x="597" y="1250" on="1"/>
        <pt x="484" y="1250" on="0"/>
      </contour>
    </TTGlyph>
    <TTGlyph name="aogonek" xMin="91" yMin="-371" xMax="988" yMax="926">
      <component glyphName="a" x="0" y="0" flags="0x1204"/>
      <component glyphName="ogonek" x="413" y="0" flags="0x1004"/>
    </TTGlyph>
    <TTGlyph name="aring" xMin="91" yMin="-20" xMax="988" yMax="1494">
      <component glyphName="a" x="0" y="0" flags="0x1204"/>
      <component glyphName="ring" x="193" y="0" flags="0x1004"/>
    </TTGlyph>
    <TTGlyph name="asciicircum" xMin="194" yMin="722" xMax="994" yMax="1392">
      <contour>
        <pt x="994" y="738" on="1"/>
        <pt x="953" y="722" on="0"/>
        <pt x="899" y="722" on="1"/>
        <pt x="823" y="810" on="0"/>
        <pt x="701" y="1012" on="0"/>
        <pt x="630" y="1135" on="0"/>
        <pt x="594" y="1193" on="1"/>
        <pt x="556" y="1134" on="0"/>
        <pt x="483" y="1014" on="0"/>
        <pt x="446" y="954" on="1"/>
        <pt x="359" y="812" on="0"/>
        <pt x="288" y="722" on="1"/>
        <pt x="235" y="722" on="0"/>
        <pt x="194" y="738" on="1"/>
        <pt x="250" y="868" on="0"/>
        <pt x="461" y="1236" on="0"/>
        <pt x="486" y="1281" on="1"/>
        <pt x="525" y="1354" on="0"/>
        <pt x="573" y="1392" on="1"/>
        <pt x="615" y="1392" on="0"/>
        <pt x="653" y="1369" on="1"/>
        <pt x="695" y="1296" on="0"/>
        <pt x="787" y="1137" on="0"/>
        <pt x="832" y="1056" on="1"/>
        <pt x="938" y="865" on="0"/>
      </contour>
    </TTGlyph>
    <TTGlyph name="asciitilde" xMin="6" yMin="583" xMax="846" yMax="851">
      <contour>
        <pt x="642" y="718" on="1"/>
        <pt x="753" y="718" on="0"/>
        <pt x="757" y="846" on="1"/>
        <pt x="846" y="846" on="1"/>
        <pt x="846" y="660" on="0"/>
        <pt x="733" y="602" on="1"/>
        <pt x="695" y="583" on="0"/>
        <pt x="584" y="583" on="0"/>
        <pt x="465" y="624" on="0"/>
        <pt x="354" y="672" on="0"/>
        <pt x="255" y="713" on="0"/>
        <pt x="214" y="713" on="1"/>
        <pt x="110" y="713" on="0"/>
        <pt x="97" y="596" on="1"/>
        <pt x="6" y="596" on="1"/>
        <pt x="20" y="773" on="0"/>
        <pt x="126" y="830" on="1"/>
        <pt x="166" y="851" on="0"/>
        <pt x="277" y="851" on="0"/>
        <pt x="391" y="809" on="0"/>
        <pt x="502" y="760" on="0"/>
        <pt x="603" y="718" on="0"/>
      </contour>
    </TTGlyph>
    <TTGlyph name="asterisk" xMin="86" yMin="295" xMax="1131" yMax="1309">
      <contour>
        <pt x="647" y="1309" on="0"/>
        <pt x="700" y="1259" on="0"/>
        <pt x="700" y="1174" on="0"/>
        <pt x="689" y="1072" on="0"/>
        <pt x="673" y="969" on="0"/>
        <pt x="656" y="867" on="0"/>
        <pt x="650" y="820" on="1"/>
        <pt x="666" y="828" on="0"/>
        <pt x="728" y="863" on="0"/>
        <pt x="805" y="905" on="0"/>
        <pt x="889" y="949" on="0"/>
        <pt x="927" y="968" on="1"/>
        <pt x="1012" y="1009" on="0"/>
        <pt x="1059" y="1009" on="0"/>
        <pt x="1093" y="992" on="0"/>
        <pt x="1105" y="978" on="1"/>
        <pt x="1131" y="949" on="0"/>
        <pt x="1131" y="879" on="0"/>
        <pt x="1089" y="831" on="0"/>
        <pt x="1058" y="824" on="1"/>
        <pt x="678" y="741" on="1"/>
        <pt x="690" y="727" on="0"/>
        <pt x="742" y="674" on="0"/>
        <pt x="804" y="609" on="0"/>
        <pt x="871" y="537" on="0"/>
        <pt x="898" y="502" on="1"/>
        <pt x="960" y="423" on="0"/>
        <pt x="960" y="370" on="0"/>
        <pt x="944" y="336" on="0"/>
        <pt x="930" y="323" on="1"/>
        <pt x="901" y="295" on="0"/>
        <pt x="869" y="295" on="1"/>
        <pt x="806" y="295" on="0"/>
        <pt x="782" y="346" on="1"/>
        <pt x="609" y="695" on="1"/>
        <pt x="435" y="346" on="1"/>
        <pt x="411" y="295" on="0"/>
        <pt x="354" y="295" on="1"/>
        <pt x="316" y="295" on="0"/>
        <pt x="294" y="316" on="1"/>
        <pt x="257" y="351" on="0"/>
        <pt x="257" y="389" on="1"/>
        <pt x="257" y="450" on="0"/>
        <pt x="444" y="642" on="1"/>
        <pt x="475" y="675" on="0"/>
        <pt x="526" y="727" on="0"/>
        <pt x="539" y="741" on="1"/>
        <pt x="159" y="824" on="1"/>
        <pt x="128" y="831" on="0"/>
        <pt x="86" y="879" on="0"/>
        <pt x="86" y="930" on="0"/>
        <pt x="100" y="965" on="0"/>
        <pt x="112" y="978" on="1"/>
        <pt x="139" y="1009" on="0"/>
        <pt x="192" y="1009" on="0"/>
        <pt x="252" y="986" on="0"/>
        <pt x="328" y="949" on="0"/>
        <pt x="412" y="905" on="0"/>
        <pt x="489" y="863" on="0"/>
        <pt x="551" y="828" on="0"/>
        <pt x="567" y="820" on="1"/>
        <pt x="561" y="868" on="0"/>
        <pt x="543" y="971" on="0"/>
        <pt x="535" y="1023" on="1"/>
        <pt x="515" y="1153" on="0"/>
        <pt x="515" y="1245" on="0"/>
        <pt x="531" y="1275" on="0"/>
        <pt x="544" y="1286" on="1"/>
        <pt x="573" y="1309" on="0"/>
      </contour>
    </TTGlyph>
    <TTGlyph name="at" xMin="112" yMin="-157" xMax="1665" yMax="1295">
      <contour>
        <pt x="532" y="12" on="0"/>
        <pt x="736" y="-48" on="0"/>
        <pt x="1021" y="-48" on="0"/>
        <pt x="1223" y="7" on="1"/>
        <pt x="1216" y="-66" on="1"/>
        <pt x="1022" y="-157" on="0"/>
        <pt x="802" y="-157" on="1"/>
        <pt x="517" y="-157" on="0"/>
        <pt x="325" y="-15" on="1"/>
        <pt x="112" y="142" on="0"/>
        <pt x="112" y="420" on="1"/>
        <pt x="112" y="660" on="0"/>
        <pt x="236" y="864" on="1"/>
        <pt x="356" y="1061" on="0"/>
        <pt x="562" y="1176" on="1"/>
        <pt x="772" y="1295" on="0"/>
        <pt x="1015" y="1295" on="1"/>
        <pt x="1295" y="1295" on="0"/>
        <pt x="1474" y="1132" on="1"/>
        <pt x="1665" y="957" on="0"/>
        <pt x="1665" y="657" on="1"/>
        <pt x="1665" y="546" on="0"/>
        <pt x="1596" y="354" on="0"/>
        <pt x="1528" y="239" on="0"/>
        <pt x="1484" y="195" on="1"/>
        <pt x="1389" y="98" on="0"/>
        <pt x="1271" y="98" on="1"/>
        <pt x="1195" y="98" on="0"/>
        <pt x="1140" y="156" on="1"/>
        <pt x="1094" y="207" on="0"/>
        <pt x="1076" y="289" on="1"/>
        <pt x="966" y="150" on="0"/>
        <pt x="789" y="150" on="1"/>
        <pt x="652" y="150" on="0"/>
        <pt x="574" y="246" on="1"/>
        <pt x="503" y="334" on="0"/>
        <pt x="503" y="477" on="1"/>
        <pt x="503" y="689" on="0"/>
        <pt x="638" y="852" on="1"/>
        <pt x="780" y="1024" on="0"/>
        <pt x="990" y="1024" on="1"/>
        <pt x="1213" y="1024" on="0"/>
        <pt x="1253" y="813" on="1"/>
        <pt x="1265" y="750" on="0"/>
        <pt x="1265" y="629" on="0"/>
        <pt x="1255" y="532" on="0"/>
        <pt x="1250" y="484" on="1"/>
        <pt x="1234" y="347" on="0"/>
        <pt x="1234" y="289" on="1"/>
        <pt x="1234" y="188" on="0"/>
        <pt x="1299" y="188" on="1"/>
        <pt x="1418" y="188" on="0"/>
        <pt x="1470" y="477" on="1"/>
        <pt x="1487" y="571" on="0"/>
        <pt x="1487" y="782" on="0"/>
        <pt x="1409" y="989" on="0"/>
        <pt x="1344" y="1056" on="1"/>
        <pt x="1217" y="1188" on="0"/>
        <pt x="1012" y="1188" on="1"/>
        <pt x="844" y="1188" on="0"/>
        <pt x="682" y="1096" on="1"/>
        <pt x="419" y="947" on="0"/>
        <pt x="334" y="651" on="1"/>
        <pt x="304" y="549" on="0"/>
        <pt x="304" y="312" on="0"/>
        <pt x="385" y="132" on="0"/>
      </contour>
      <contour>
        <pt x="1083" y="443" on="0"/>
        <pt x="1107" y="616" on="0"/>
        <pt x="1107" y="735" on="0"/>
        <pt x="1099" y="817" on="0"/>
        <pt x="1085" y="854" on="1"/>
        <pt x="1051" y="945" on="0"/>
        <pt x="969" y="945" on="1"/>
        <pt x="842" y="945" on="0"/>
        <pt x="748" y="786" on="1"/>
        <pt x="661" y="636" on="0"/>
        <pt x="661" y="475" on="1"/>
        <pt x="661" y="316" on="0"/>
        <pt x="752" y="266" on="1"/>
        <pt x="784" y="248" on="0"/>
        <pt x="862" y="248" on="0"/>
        <pt x="928" y="266" on="0"/>
        <pt x="960" y="280" on="1"/>
        <pt x="1019" y="308" on="0"/>
        <pt x="1073" y="355" on="1"/>
      </contour>
    </TTGlyph>
    <TTGlyph name="atilde" xMin="91" yMin="-20" xMax="988" yMax="1364">
      <component glyphName="a" x="0" y="0" flags="0x1204"/>
      <component glyphName="tilde" x="-30" y="0" flags="0x1004"/>
    </TTGlyph>
    <TTGlyph name="b" xMin="-10" yMin="-20" xMax="1052" yMax="1376">
      <contour>
        <pt x="344" y="665" on="1"/>
        <pt x="344" y="124" on="1"/>
        <pt x="344" y="80" on="0"/>
        <pt x="464" y="63" on="1"/>
        <pt x="499" y="58" on="0"/>
        <pt x="593" y="58" on="0"/>
        <pt x="710" y="92" on="0"/>
        <pt x="758" y="132" on="1"/>
        <pt x="866" y="225" on="0"/>
        <pt x="866" y="412" on="1"/>
        <pt x="866" y="582" on="0"/>
        <pt x="791" y="688" on="1"/>
        <pt x="715" y="794" on="0"/>
        <pt x="452" y="794" on="0"/>
      </contour>
      <contour>
        <pt x="344" y="758" on="1"/>
        <pt x="498" y="926" on="0"/>
        <pt x="667" y="926" on="1"/>
        <pt x="836" y="926" on="0"/>
        <pt x="948" y="780" on="1"/>
        <pt x="1052" y="643" on="0"/>
        <pt x="1052" y="462" on="1"/>
        <pt x="1052" y="133" on="0"/>
        <pt x="764" y="23" on="1"/>
        <pt x="652" y="-20" on="0"/>
        <pt x="442" y="-20" on="0"/>
        <pt x="313" y="4" on="0"/>
        <pt x="264" y="25" on="1"/>
        <pt x="158" y="71" on="0"/>
        <pt x="158" y="134" on="1"/>
        <pt x="158" y="1163" on="1"/>
        <pt x="131" y="1205" on="0"/>
        <pt x="-10" y="1254" on="1"/>
        <pt x="-8" y="1288" on="1"/>
        <pt x="258" y="1367" on="1"/>
        <pt x="344" y="1376" on="1"/>
      </contour>
    </TTGlyph>
    <TTGlyph name="backslash" xMin="17" yMin="-117" xMax="644" yMax="1402">
      <contour>
        <pt x="17" y="1378" on="1"/>
        <pt x="46" y="1402" on="0"/>
        <pt x="97" y="1402" on="1"/>
        <pt x="139" y="1362" on="0"/>
        <pt x="183" y="1245" on="0"/>
        <pt x="204" y="1175" on="0"/>
        <pt x="216" y="1142" on="1"/>
        <pt x="617" y="72" on="1"/>
        <pt x="633" y="30" on="0"/>
        <pt x="640" y="-72" on="0"/>
        <pt x="644" y="-117" on="1"/>
        <pt x="625" y="-117" on="1"/>
        <pt x="584" y="-117" on="0"/>
        <pt x="567" y="-112" on="1"/>
        <pt x="529" y="-28" on="0"/>
        <pt x="445" y="220" on="0"/>
        <pt x="317" y="549" on="0"/>
        <pt x="254" y="714" on="1"/>
        <pt x="89" y="1140" on="0"/>
      </contour>
    </TTGlyph>
    <TTGlyph name="bar" xMin="354" yMin="-315" xMax="469" yMax="1467">
      <contour>
        <pt x="438" y="-315" on="1"/>
        <pt x="400" y="-313" on="0"/>
        <pt x="354" y="-283" on="1"/>
        <pt x="354" y="1431" on="1"/>
        <pt x="379" y="1467" on="0"/>
        <pt x="434" y="1467" on="1"/>
        <pt x="438" y="1467" on="1"/>
        <pt x="469" y="1343" on="0"/>
        <pt x="469" y="1244" on="1"/>
        <pt x="469" y="-88" on="1"/>
        <pt x="469" y="-242" on="0"/>
      </contour>
    </TTGlyph>
    <TTGlyph name="braceleft" xMin="191" yMin="-233" xMax="732" yMax="1497">
      <contour>
        <pt x="191" y="619" on="1"/>
        <pt x="191" y="652" on="0"/>
        <pt x="213" y="667" on="1"/>
        <pt x="304" y="675" on="0"/>
        <pt x="403" y="780" on="0"/>
        <pt x="403" y="871" on="1"/>
        <pt x="403" y="913" on="0"/>
        <pt x="394" y="982" on="1"/>
        <pt x="375" y="1115" on="0"/>
        <pt x="375" y="1238" on="0"/>
        <pt x="426" y="1360" on="0"/>
        <pt x="472" y="1402" on="1"/>
        <pt x="563" y="1487" on="0"/>
        <pt x="724" y="1497" on="1"/>
        <pt x="729" y="1480" on="0"/>
        <pt x="729" y="1455" on="0"/>
        <pt x="724" y="1440" on="1"/>
        <pt x="632" y="1427" on="0"/>
        <pt x="597" y="1398" on="1"/>
        <pt x="532" y="1346" on="0"/>
        <pt x="532" y="1261" on="1"/>
        <pt x="532" y="1210" on="0"/>
        <pt x="546" y="1144" on="1"/>
        <pt x="574" y="1019" on="0"/>
        <pt x="574" y="902" on="0"/>
        <pt x="534" y="795" on="0"/>
        <pt x="498" y="753" on="1"/>
        <pt x="428" y="669" on="0"/>
        <pt x="304" y="632" on="1"/>
        <pt x="495" y="574" on="0"/>
        <pt x="554" y="415" on="1"/>
        <pt x="574" y="361" on="0"/>
        <pt x="574" y="258" on="0"/>
        <pt x="560" y="183" on="0"/>
        <pt x="552" y="146" on="1"/>
        <pt x="530" y="42" on="0"/>
        <pt x="530" y="-46" on="0"/>
        <pt x="563" y="-106" on="0"/>
        <pt x="590" y="-126" on="1"/>
        <pt x="637" y="-162" on="0"/>
        <pt x="724" y="-176" on="1"/>
        <pt x="732" y="-190" on="0"/>
        <pt x="732" y="-219" on="0"/>
        <pt x="724" y="-233" on="1"/>
        <pt x="472" y="-217" on="0"/>
        <pt x="400" y="-26" on="1"/>
        <pt x="376" y="37" on="0"/>
        <pt x="376" y="156" on="0"/>
        <pt x="384" y="227" on="0"/>
        <pt x="388" y="263" on="1"/>
        <pt x="401" y="363" on="0"/>
        <pt x="401" y="450" on="0"/>
        <pt x="383" y="506" on="0"/>
        <pt x="353" y="542" on="0"/>
        <pt x="312" y="562" on="0"/>
        <pt x="288" y="571" on="1"/>
        <pt x="220" y="597" on="0"/>
      </contour>
    </TTGlyph>
    <TTGlyph name="braceright" xMin="96" yMin="-233" xMax="637" yMax="1497">
      <contour>
        <pt x="104" y="1440" on="1"/>
        <pt x="98" y="1452" on="0"/>
        <pt x="98" y="1476" on="0"/>
        <pt x="104" y="1497" on="1"/>
        <pt x="350" y="1481" on="0"/>
        <pt x="426" y="1299" on="1"/>
        <pt x="452" y="1238" on="0"/>
        <pt x="452" y="1120" on="0"/>
        <pt x="443" y="1048" on="0"/>
        <pt x="438" y="1012" on="1"/>
        <pt x="424" y="909" on="0"/>
        <pt x="424" y="866" on="1"/>
        <pt x="424" y="776" on="0"/>
        <pt x="526" y="674" on="0"/>
        <pt x="614" y="667" on="1"/>
        <pt x="637" y="652" on="0"/>
        <pt x="637" y="619" on="1"/>
        <pt x="610" y="601" on="0"/>
        <pt x="558" y="580" on="0"/>
        <pt x="511" y="561" on="0"/>
        <pt x="470" y="539" on="0"/>
        <pt x="456" y="520" on="1"/>
        <pt x="424" y="480" on="0"/>
        <pt x="424" y="364" on="0"/>
        <pt x="432" y="296" on="0"/>
        <pt x="438" y="262" on="1"/>
        <pt x="451" y="180" on="0"/>
        <pt x="451" y="127" on="1"/>
        <pt x="451" y="-43" on="0"/>
        <pt x="273" y="-222" on="0"/>
        <pt x="104" y="-233" on="1"/>
        <pt x="96" y="-225" on="0"/>
        <pt x="96" y="-214" on="1"/>
        <pt x="96" y="-187" on="0"/>
        <pt x="104" y="-176" on="1"/>
        <pt x="297" y="-145" on="0"/>
        <pt x="297" y="-4" on="1"/>
        <pt x="297" y="42" on="0"/>
        <pt x="282" y="113" on="1"/>
        <pt x="253" y="249" on="0"/>
        <pt x="253" y="361" on="0"/>
        <pt x="293" y="469" on="0"/>
        <pt x="329" y="511" on="1"/>
        <pt x="401" y="595" on="0"/>
        <pt x="523" y="632" on="1"/>
        <pt x="330" y="690" on="0"/>
        <pt x="272" y="848" on="1"/>
        <pt x="253" y="902" on="0"/>
        <pt x="253" y="1004" on="0"/>
        <pt x="266" y="1078" on="0"/>
        <pt x="274" y="1114" on="1"/>
        <pt x="295" y="1210" on="0"/>
        <pt x="295" y="1306" on="0"/>
        <pt x="266" y="1368" on="0"/>
        <pt x="240" y="1389" on="1"/>
        <pt x="193" y="1427" on="0"/>
      </contour>
    </TTGlyph>
    <TTGlyph name="bracketleft" xMin="173" yMin="-214" xMax="816" yMax="1529">
      <contour>
        <pt x="184" y="292" on="1"/>
        <pt x="173" y="1449" on="1"/>
        <pt x="173" y="1474" on="0"/>
        <pt x="195" y="1492" on="1"/>
        <pt x="232" y="1524" on="0"/>
        <pt x="260" y="1524" on="1"/>
        <pt x="260" y="1524" on="0"/>
        <pt x="717" y="1529" on="1"/>
        <pt x="781" y="1529" on="0"/>
        <pt x="807" y="1489" on="1"/>
        <pt x="816" y="1475" on="0"/>
        <pt x="816" y="1455" on="1"/>
        <pt x="816" y="1380" on="0"/>
        <pt x="721" y="1380" on="1"/>
        <pt x="329" y="1380" on="1"/>
        <pt x="329" y="1168" on="0"/>
        <pt x="311" y="744" on="0"/>
        <pt x="311" y="313" on="0"/>
        <pt x="316" y="-62" on="1"/>
        <pt x="682" y="-56" on="1"/>
        <pt x="707" y="-56" on="0"/>
        <pt x="725" y="-78" on="1"/>
        <pt x="757" y="-115" on="0"/>
        <pt x="757" y="-151" on="1"/>
        <pt x="757" y="-214" on="0"/>
        <pt x="669" y="-214" on="1"/>
        <pt x="243" y="-199" on="1"/>
        <pt x="203" y="-199" on="0"/>
        <pt x="179" y="-154" on="0"/>
        <pt x="179" y="-119" on="1"/>
      </contour>
    </TTGlyph>
    <TTGlyph name="bracketright" xMin="-147" yMin="-214" xMax="505" yMax="1529">
      <contour>
        <pt x="426" y="-199" on="1"/>
        <pt x="0" y="-214" on="1"/>
        <pt x="-38" y="-214" on="0"/>
        <pt x="-88" y="-186" on="0"/>
        <pt x="-88" y="-143" on="1"/>
        <pt x="-88" y="-54" on="0"/>
        <pt x="59" y="-54" on="1"/>
        <pt x="208" y="-63" on="1"/>
        <pt x="353" y="-63" on="1"/>
        <pt x="358" y="312" on="0"/>
        <pt x="358" y="744" on="0"/>
        <pt x="341" y="1168" on="0"/>
        <pt x="340" y="1380" on="1"/>
        <pt x="-66" y="1380" on="1"/>
        <pt x="-98" y="1380" on="0"/>
        <pt x="-147" y="1422" on="0"/>
        <pt x="-147" y="1475" on="0"/>
        <pt x="-129" y="1503" on="0"/>
        <pt x="-115" y="1512" on="1"/>
        <pt x="-89" y="1529" on="0"/>
        <pt x="-48" y="1529" on="1"/>
        <pt x="409" y="1524" on="1"/>
        <pt x="455" y="1524" on="0"/>
        <pt x="487" y="1476" on="1"/>
        <pt x="496" y="1462" on="0"/>
        <pt x="496" y="1449" on="1"/>
        <pt x="488" y="440" on="1"/>
        <pt x="488" y="274" on="0"/>
        <pt x="505" y="31" on="0"/>
        <pt x="505" y="-125" on="0"/>
        <pt x="473" y="-199" on="0"/>
      </contour>
    </TTGlyph>
    <TTGlyph name="breve" xMin="120" yMin="1035" xMax="613" yMax="1282">
      <contour>
        <pt x="177" y="1282" on="1"/>
        <pt x="229" y="1166" on="0"/>
        <pt x="522" y="1166" on="0"/>
        <pt x="555" y="1282" on="1"/>
        <pt x="613" y="1282" on="1"/>
        <pt x="613" y="1169" on="0"/>
        <pt x="548" y="1102" on="1"/>
        <pt x="483" y="1035" on="0"/>
        <pt x="247" y="1035" on="0"/>
        <pt x="123" y="1165" on="0"/>
        <pt x="120" y="1282" on="1"/>
      </contour>
    </TTGlyph>
    <TTGlyph name="brokenbar" xMin="355" yMin="-229" xMax="477" yMax="1379">
      <contour>
        <pt x="473" y="-17" on="1"/>
        <pt x="473" y="-172" on="0"/>
        <pt x="438" y="-229" on="1"/>
        <pt x="406" y="-229" on="0"/>
        <pt x="367" y="-203" on="0"/>
        <pt x="355" y="-197" on="1"/>
        <pt x="355" y="407" on="1"/>
        <pt x="377" y="443" on="0"/>
        <pt x="438" y="443" on="1"/>
        <pt x="477" y="368" on="0"/>
        <pt x="477" y="183" on="1"/>
      </contour>
      <contour>
        <pt x="387" y="707" on="1"/>
        <pt x="355" y="800" on="0"/>
        <pt x="355" y="1010" on="1"/>
        <pt x="355" y="1343" on="1"/>
        <pt x="377" y="1379" on="0"/>
        <pt x="438" y="1379" on="1"/>
        <pt x="470" y="1304" on="0"/>
        <pt x="470" y="1247" on="1"/>
        <pt x="470" y="739" on="1"/>
        <pt x="434" y="707" on="0"/>
      </contour>
    </TTGlyph>
    <TTGlyph name="bullet" xMin="109" yMin="315" xMax="628" yMax="852">
      <contour>
        <pt x="366" y="852" on="1"/>
        <pt x="424" y="852" on="0"/>
        <pt x="521" y="806" on="0"/>
        <pt x="556" y="768" on="1"/>
        <pt x="628" y="687" on="0"/>
        <pt x="628" y="573" on="1"/>
        <pt x="628" y="467" on="0"/>
        <pt x="559" y="392" on="1"/>
        <pt x="487" y="315" on="0"/>
        <pt x="372" y="315" on="1"/>
        <pt x="256" y="315" on="0"/>
        <pt x="180" y="398" on="1"/>
        <pt x="109" y="477" on="0"/>
        <pt x="109" y="589" on="1"/>
        <pt x="109" y="698" on="0"/>
        <pt x="178" y="773" on="1"/>
        <pt x="252" y="852" on="0"/>
      </contour>
    </TTGlyph>
    <TTGlyph name="c" xMin="82" yMin="-20" xMax="890" yMax="926">
      <contour>
        <pt x="879" y="188" on="1"/>
        <pt x="849" y="89" on="0"/>
        <pt x="743" y="32" on="1"/>
        <pt x="647" y="-20" on="0"/>
        <pt x="418" y="-20" on="0"/>
        <pt x="252" y="57" on="0"/>
        <pt x="196" y="122" on="1"/>
        <pt x="82" y="254" on="0"/>
        <pt x="82" y="448" on="1"/>
        <pt x="82" y="651" on="0"/>
        <pt x="216" y="786" on="1"/>
        <pt x="354" y="926" on="0"/>
        <pt x="572" y="926" on="1"/>
        <pt x="787" y="926" on="0"/>
        <pt x="864" y="822" on="1"/>
        <pt x="890" y="786" on="0"/>
        <pt x="890" y="712" on="0"/>
        <pt x="870" y="676" on="0"/>
        <pt x="856" y="664" on="1"/>
        <pt x="827" y="642" on="0"/>
        <pt x="757" y="642" on="0"/>
        <pt x="725" y="673" on="0"/>
        <pt x="711" y="720" on="0"/>
        <pt x="703" y="774" on="0"/>
        <pt x="689" y="798" on="1"/>
        <pt x="657" y="852" on="0"/>
        <pt x="557" y="852" on="1"/>
        <pt x="436" y="852" on="0"/>
        <pt x="354" y="764" on="1"/>
        <pt x="265" y="667" on="0"/>
        <pt x="265" y="502" on="1"/>
        <pt x="265" y="341" on="0"/>
        <pt x="346" y="234" on="1"/>
        <pt x="433" y="120" on="0"/>
        <pt x="582" y="120" on="1"/>
        <pt x="706" y="120" on="0"/>
        <pt x="788" y="170" on="1"/>
        <pt x="817" y="188" on="0"/>
        <pt x="847" y="211" on="1"/>
      </contour>
    </TTGlyph>
    <TTGlyph name="c_k" xMin="82" yMin="-17" xMax="2034" yMax="1329">
      <contour>
        <pt x="944" y="0" on="1"/>
        <pt x="941" y="9" on="0"/>
        <pt x="941" y="23" on="0"/>
        <pt x="967" y="37" on="0"/>
        <pt x="1005" y="48" on="0"/>
        <pt x="1050" y="59" on="0"/>
        <pt x="1069" y="68" on="1"/>
        <pt x="1114" y="88" on="0"/>
        <pt x="1114" y="120" on="1"/>
        <pt x="1114" y="1225" on="1"/>
        <pt x="1050" y="1225" on="1"/>
        <pt x="887" y="1225" on="0"/>
        <pt x="832" y="1109" on="1"/>
        <pt x="813" y="1069" on="0"/>
        <pt x="813" y="970" on="0"/>
        <pt x="838" y="886" on="0"/>
        <pt x="852" y="847" on="1"/>
        <pt x="892" y="741" on="0"/>
        <pt x="892" y="684" on="0"/>
        <pt x="874" y="647" on="0"/>
        <pt x="859" y="633" on="1"/>
        <pt x="828" y="604" on="0"/>
        <pt x="744" y="604" on="0"/>
        <pt x="695" y="651" on="0"/>
        <pt x="695" y="714" on="0"/>
        <pt x="715" y="753" on="0"/>
        <pt x="715" y="796" on="0"/>
        <pt x="689" y="824" on="0"/>
        <pt x="670" y="832" on="1"/>
        <pt x="638" y="846" on="0"/>
        <pt x="516" y="846" on="0"/>
        <pt x="402" y="781" on="0"/>
        <pt x="364" y="728" on="1"/>
        <pt x="288" y="622" on="0"/>
        <pt x="288" y="472" on="1"/>
        <pt x="288" y="213" on="0"/>
        <pt x="442" y="126" on="1"/>
        <pt x="498" y="95" on="0"/>
        <pt x="619" y="95" on="0"/>
        <pt x="696" y="106" on="0"/>
        <pt x="732" y="113" on="1"/>
        <pt x="825" y="131" on="0"/>
        <pt x="849" y="131" on="1"/>
        <pt x="862" y="131" on="0"/>
        <pt x="862" y="105" on="0"/>
        <pt x="857" y="93" on="0"/>
        <pt x="856" y="90" on="1"/>
        <pt x="742" y="-17" on="0"/>
        <pt x="536" y="-17" on="1"/>
        <pt x="333" y="-17" on="0"/>
        <pt x="207" y="111" on="1"/>
        <pt x="82" y="238" on="0"/>
        <pt x="82" y="442" on="1"/>
        <pt x="82" y="652" on="0"/>
        <pt x="230" y="780" on="1"/>
        <pt x="371" y="902" on="0"/>
        <pt x="583" y="902" on="1"/>
        <pt x="687" y="902" on="0"/>
        <pt x="768" y="866" on="1"/>
        <pt x="718" y="990" on="0"/>
        <pt x="718" y="1158" on="0"/>
        <pt x="779" y="1253" on="0"/>
        <pt x="828" y="1280" on="1"/>
        <pt x="916" y="1329" on="0"/>
        <pt x="1163" y="1329" on="0"/>
        <pt x="1320" y="1298" on="1"/>
        <pt x="1320" y="475" on="1"/>
        <pt x="1382" y="475" on="1"/>
        <pt x="1732" y="778" on="1"/>
        <pt x="1734" y="789" on="1"/>
        <pt x="1734" y="813" on="0"/>
        <pt x="1694" y="828" on="0"/>
        <pt x="1645" y="832" on="0"/>
        <pt x="1605" y="839" on="0"/>
        <pt x="1605" y="855" on="1"/>
        <pt x="1605" y="859" on="0"/>
        <pt x="1608" y="868" on="1"/>
        <pt x="2002" y="868" on="1"/>
        <pt x="2005" y="859" on="0"/>
        <pt x="2005" y="846" on="0"/>
        <pt x="1957" y="827" on="0"/>
        <pt x="1926" y="817" on="1"/>
        <pt x="1838" y="789" on="0"/>
        <pt x="1820" y="774" on="1"/>
        <pt x="1524" y="522" on="1"/>
        <pt x="1858" y="94" on="1"/>
        <pt x="1871" y="78" on="0"/>
        <pt x="1928" y="61" on="1"/>
        <pt x="2034" y="28" on="0"/>
        <pt x="2034" y="13" on="1"/>
        <pt x="2034" y="9" on="0"/>
        <pt x="2031" y="0" on="1"/>
        <pt x="1536" y="0" on="1"/>
        <pt x="1531" y="12" on="1"/>
        <pt x="1531" y="33" on="0"/>
        <pt x="1648" y="44" on="0"/>
        <pt x="1648" y="74" on="1"/>
        <pt x="1648" y="82" on="0"/>
        <pt x="1558" y="198" on="0"/>
        <pt x="1494" y="281" on="0"/>
        <pt x="1464" y="318" on="1"/>
        <pt x="1392" y="411" on="0"/>
        <pt x="1385" y="420" on="1"/>
        <pt x="1320" y="420" on="1"/>
        <pt x="1320" y="116" on="1"/>
        <pt x="1320" y="66" on="0"/>
        <pt x="1472" y="36" on="0"/>
        <pt x="1472" y="14" on="1"/>
        <pt x="1472" y="12" on="0"/>
        <pt x="1468" y="0" on="1"/>
      </contour>
    </TTGlyph>
    <TTGlyph name="cacute" xMin="82" yMin="-20" xMax="890" yMax="1570">
      <component glyphName="c" x="0" y="0" flags="0x1204"/>
      <component glyphName="acute" x="35" y="0" flags="0x1004"/>
    </TTGlyph>
    <TTGlyph name="caron" xMin="226" yMin="989" xMax="781" yMax="1388">
      <contour>
        <pt x="226" y="1375" on="1"/>
        <pt x="234" y="1388" on="0"/>
        <pt x="262" y="1388" on="1"/>
        <pt x="327" y="1354" on="0"/>
        <pt x="463" y="1197" on="1"/>
        <pt x="495" y="1160" on="0"/>
        <pt x="516" y="1137" on="1"/>
        <pt x="537" y="1163" on="0"/>
        <pt x="594" y="1235" on="0"/>
        <pt x="625" y="1272" on="1"/>
        <pt x="700" y="1360" on="0"/>
        <pt x="745" y="1388" on="1"/>
        <pt x="773" y="1388" on="0"/>
        <pt x="781" y="1375" on="1"/>
        <pt x="742" y="1277" on="0"/>
        <pt x="612" y="1054" on="0"/>
        <pt x="588" y="1009" on="1"/>
        <pt x="512" y="989" on="0"/>
        <pt x="451" y="989" on="1"/>
        <pt x="397" y="1032" on="0"/>
        <pt x="285" y="1251" on="1"/>
        <pt x="247" y="1325" on="0"/>
      </contour>
    </TTGlyph>
    <TTGlyph name="ccaron" xMin="82" yMin="-20" xMax="890" yMax="1388">
      <component glyphName="c" x="0" y="0" flags="0x1204"/>
      <component glyphName="caron" x="-27" y="0" flags="0x1004"/>
    </TTGlyph>
    <TTGlyph name="ccedilla" xMin="82" yMin="-425" xMax="890" yMax="926">
      <component glyphName="c" x="0" y="0" flags="0x1204"/>
      <component glyphName="cedilla" x="177" y="0" flags="0x1004"/>
    </TTGlyph>
    <TTGlyph name="cdotaccent" xMin="82" yMin="-20" xMax="890" yMax="1274">
      <component glyphName="c" x="0" y="0" flags="0x1204"/>
      <component glyphName="dotaccent" x="141" y="0" flags="0x1004"/>
    </TTGlyph>
    <TTGlyph name="cedilla" xMin="176" yMin="-425" xMax="543" yMax="11">
      <contour>
        <pt x="380" y="-268" on="1"/>
        <pt x="380" y="-174" on="0"/>
        <pt x="228" y="-164" on="1"/>
        <pt x="275" y="11" on="1"/>
        <pt x="358" y="11" on="1"/>
        <pt x="382" y="-94" on="1"/>
        <pt x="501" y="-111" on="0"/>
        <pt x="534" y="-196" on="1"/>
        <pt x="543" y="-221" on="0"/>
        <pt x="543" y="-288" on="0"/>
        <pt x="506" y="-354" on="0"/>
        <pt x="474" y="-377" on="1"/>
        <pt x="407" y="-425" on="0"/>
        <pt x="312" y="-425" on="1"/>
        <pt x="248" y="-425" on="0"/>
        <pt x="176" y="-393" on="1"/>
        <pt x="189" y="-336" on="1"/>
        <pt x="227" y="-356" on="0"/>
        <pt x="316" y="-356" on="0"/>
        <pt x="380" y="-307" on="0"/>
      </contour>
    </TTGlyph>
    <TTGlyph name="cent" xMin="125" yMin="-253" xMax="933" yMax="1223">
      <contour>
        <pt x="611" y="846" on="1"/>
        <pt x="484" y="846" on="0"/>
        <pt x="402" y="766" on="1"/>
        <pt x="311" y="677" on="0"/>
        <pt x="311" y="377" on="0"/>
        <pt x="397" y="208" on="0"/>
        <pt x="485" y="165" on="1"/>
      </contour>
      <contour>
        <pt x="527" y="-29" on="1"/>
        <pt x="508" y="-179" on="0"/>
        <pt x="462" y="-253" on="1"/>
        <pt x="414" y="-253" on="0"/>
        <pt x="396" y="-201" on="1"/>
        <pt x="448" y="6" on="1"/>
        <pt x="301" y="44" on="0"/>
        <pt x="214" y="162" on="1"/>
        <pt x="125" y="281" on="0"/>
        <pt x="125" y="447" on="1"/>
        <pt x="125" y="636" on="0"/>
        <pt x="244" y="771" on="1"/>
        <pt x="376" y="923" on="0"/>
        <pt x="596" y="923" on="1"/>
        <pt x="627" y="922" on="1"/>
        <pt x="657" y="1107" on="1"/>
        <pt x="667" y="1170" on="0"/>
        <pt x="704" y="1223" on="1"/>
        <pt x="721" y="1223" on="0"/>
        <pt x="746" y="1223" on="0"/>
        <pt x="755" y="1221" on="1"/>
        <pt x="755" y="1166" on="0"/>
        <pt x="743" y="1097" on="1"/>
        <pt x="714" y="916" on="1"/>
        <pt x="869" y="891" on="0"/>
        <pt x="917" y="801" on="1"/>
        <pt x="933" y="771" on="0"/>
        <pt x="933" y="690" on="0"/>
        <pt x="879" y="639" on="0"/>
        <pt x="813" y="639" on="0"/>
        <pt x="785" y="660" on="0"/>
        <pt x="772" y="693" on="0"/>
        <pt x="767" y="735" on="0"/>
        <pt x="760" y="756" on="1"/>
        <pt x="743" y="807" on="0"/>
        <pt x="691" y="830" on="1"/>
        <pt x="563" y="139" on="1"/>
        <pt x="611" y="122" on="0"/>
        <pt x="668" y="122" on="1"/>
        <pt x="801" y="122" on="0"/>
        <pt x="891" y="212" on="1"/>
        <pt x="907" y="204" on="0"/>
        <pt x="923" y="189" on="1"/>
        <pt x="918" y="168" on="0"/>
        <pt x="894" y="107" on="0"/>
        <pt x="829" y="49" on="0"/>
        <pt x="786" y="28" on="1"/>
        <pt x="696" y="-17" on="0"/>
        <pt x="604" y="-19" on="1"/>
        <pt x="570" y="-29" on="0"/>
        <pt x="536" y="-29" on="1"/>
      </contour>
    </TTGlyph>
    <TTGlyph name="circumflex" xMin="213" yMin="1068" xMax="803" yMax="1571">
      <contour>
        <pt x="786" y="1068" on="1"/>
        <pt x="762" y="1068" on="0"/>
        <pt x="508" y="1350" on="1"/>
        <pt x="254" y="1068" on="0"/>
        <pt x="230" y="1068" on="1"/>
        <pt x="213" y="1068" on="0"/>
        <pt x="213" y="1085" on="1"/>
        <pt x="213" y="1103" on="0"/>
        <pt x="416" y="1497" on="0"/>
        <pt x="426" y="1514" on="1"/>
        <pt x="460" y="1571" on="0"/>
        <pt x="508" y="1571" on="1"/>
        <pt x="560" y="1571" on="0"/>
        <pt x="593" y="1507" on="1"/>
        <pt x="598" y="1496" on="0"/>
        <pt x="634" y="1428" on="0"/>
        <pt x="657" y="1382" on="1"/>
        <pt x="706" y="1285" on="1"/>
        <pt x="803" y="1090" on="0"/>
        <pt x="803" y="1068" on="0"/>
      </contour>
    </TTGlyph>
    <TTGlyph name="ck" xMin="82" yMin="-17" xMax="2034" yMax="1329">
      <contour>
        <pt x="944" y="0" on="1"/>
        <pt x="941" y="9" on="0"/>
        <pt x="941" y="23" on="0"/>
        <pt x="967" y="37" on="0"/>
        <pt x="1005" y="48" on="0"/>
        <pt x="1050" y="59" on="0"/>
        <pt x="1069" y="68" on="1"/>
        <pt x="1114" y="88" on="0"/>
        <pt x="1114" y="120" on="1"/>
        <pt x="1114" y="1225" on="1"/>
        <pt x="1050" y="1225" on="1"/>
        <pt x="887" y="1225" on="0"/>
        <pt x="832" y="1109" on="1"/>
        <pt x="813" y="1069" on="0"/>
        <pt x="813" y="970" on="0"/>
        <pt x="838" y="886" on="0"/>
        <pt x="852" y="847" on="1"/>
        <pt x="892" y="741" on="0"/>
        <pt x="892" y="684" on="0"/>
        <pt x="874" y="647" on="0"/>
        <pt x="859" y="633" on="1"/>
        <pt x="828" y="604" on="0"/>
        <pt x="744" y="604" on="0"/>
        <pt x="695" y="651" on="0"/>
        <pt x="695" y="714" on="0"/>
        <pt x="715" y="753" on="0"/>
        <pt x="715" y="796" on="0"/>
        <pt x="689" y="824" on="0"/>
        <pt x="670" y="832" on="1"/>
        <pt x="638" y="846" on="0"/>
        <pt x="516" y="846" on="0"/>
        <pt x="402" y="781" on="0"/>
        <pt x="364" y="728" on="1"/>
        <pt x="288" y="622" on="0"/>
        <pt x="288" y="472" on="1"/>
        <pt x="288" y="213" on="0"/>
        <pt x="442" y="126" on="1"/>
        <pt x="498" y="95" on="0"/>
        <pt x="619" y="95" on="0"/>
        <pt x="696" y="106" on="0"/>
        <pt x="732" y="113" on="1"/>
        <pt x="825" y="131" on="0"/>
        <pt x="849" y="131" on="1"/>
        <pt x="862" y="131" on="0"/>
        <pt x="862" y="105" on="0"/>
        <pt x="857" y="93" on="0"/>
        <pt x="856" y="90" on="1"/>
        <pt x="742" y="-17" on="0"/>
        <pt x="536" y="-17" on="1"/>
        <pt x="333" y="-17" on="0"/>
        <pt x="207" y="111" on="1"/>
        <pt x="82" y="238" on="0"/>
        <pt x="82" y="442" on="1"/>
        <pt x="82" y="652" on="0"/>
        <pt x="230" y="780" on="1"/>
        <pt x="371" y="902" on="0"/>
        <pt x="583" y="902" on="1"/>
        <pt x="687" y="902" on="0"/>
        <pt x="768" y="866" on="1"/>
        <pt x="718" y="990" on="0"/>
        <pt x="718" y="1158" on="0"/>
        <pt x="779" y="1253" on="0"/>
        <pt x="828" y="1280" on="1"/>
        <pt x="916" y="1329" on="0"/>
        <pt x="1163" y="1329" on="0"/>
        <pt x="1320" y="1298" on="1"/>
        <pt x="1320" y="475" on="1"/>
        <pt x="1382" y="475" on="1"/>
        <pt x="1732" y="778" on="1"/>
        <pt x="1734" y="789" on="1"/>
        <pt x="1734" y="813" on="0"/>
        <pt x="1694" y="828" on="0"/>
        <pt x="1645" y="832" on="0"/>
        <pt x="1605" y="839" on="0"/>
        <pt x="1605" y="855" on="1"/>
        <pt x="1605" y="859" on="0"/>
        <pt x="1608" y="868" on="1"/>
        <pt x="2002" y="868" on="1"/>
        <pt x="2005" y="859" on="0"/>
        <pt x="2005" y="846" on="0"/>
        <pt x="1957" y="827" on="0"/>
        <pt x="1926" y="817" on="1"/>
        <pt x="1838" y="789" on="0"/>
        <pt x="1820" y="774" on="1"/>
        <pt x="1524" y="522" on="1"/>
        <pt x="1858" y="94" on="1"/>
        <pt x="1871" y="78" on="0"/>
        <pt x="1928" y="61" on="1"/>
        <pt x="2034" y="28" on="0"/>
        <pt x="2034" y="13" on="1"/>
        <pt x="2034" y="9" on="0"/>
        <pt x="2031" y="0" on="1"/>
        <pt x="1536" y="0" on="1"/>
        <pt x="1531" y="12" on="1"/>
        <pt x="1531" y="33" on="0"/>
        <pt x="1648" y="44" on="0"/>
        <pt x="1648" y="74" on="1"/>
        <pt x="1648" y="82" on="0"/>
        <pt x="1558" y="198" on="0"/>
        <pt x="1494" y="281" on="0"/>
        <pt x="1464" y="318" on="1"/>
        <pt x="1392" y="411" on="0"/>
        <pt x="1385" y="420" on="1"/>
        <pt x="1320" y="420" on="1"/>
        <pt x="1320" y="116" on="1"/>
        <pt x="1320" y="66" on="0"/>
        <pt x="1472" y="36" on="0"/>
        <pt x="1472" y="14" on="1"/>
        <pt x="1472" y="12" on="0"/>
        <pt x="1468" y="0" on="1"/>
      </contour>
    </TTGlyph>
    <TTGlyph name="colon" xMin="157" yMin="-20" xMax="433" yMax="1039">
      <contour>
        <pt x="294" y="251" on="1"/>
        <pt x="352" y="251" on="0"/>
        <pt x="433" y="170" on="0"/>
        <pt x="433" y="116" on="1"/>
        <pt x="433" y="63" on="0"/>
        <pt x="392" y="21" on="1"/>
        <pt x="353" y="-20" on="0"/>
        <pt x="294" y="-20" on="1"/>
        <pt x="239" y="-20" on="0"/>
        <pt x="197" y="20" on="1"/>
        <pt x="157" y="59" on="0"/>
        <pt x="157" y="143" on="0"/>
        <pt x="178" y="192" on="0"/>
        <pt x="197" y="210" on="1"/>
        <pt x="239" y="251" on="0"/>
      </contour>
      <contour>
        <pt x="294" y="1039" on="1"/>
        <pt x="352" y="1039" on="0"/>
        <pt x="433" y="958" on="0"/>
        <pt x="433" y="904" on="1"/>
        <pt x="433" y="851" on="0"/>
        <pt x="392" y="809" on="1"/>
        <pt x="353" y="768" on="0"/>
        <pt x="294" y="768" on="1"/>
        <pt x="239" y="768" on="0"/>
        <pt x="197" y="808" on="1"/>
        <pt x="157" y="847" on="0"/>
        <pt x="157" y="931" on="0"/>
        <pt x="178" y="980" on="0"/>
        <pt x="197" y="998" on="1"/>
        <pt x="239" y="1039" on="0"/>
      </contour>
    </TTGlyph>
    <TTGlyph name="comma" xMin="98" yMin="-268" xMax="451" yMax="311">
      <contour>
        <pt x="116" y="-268" on="1"/>
        <pt x="98" y="-240" on="0"/>
        <pt x="98" y="-208" on="1"/>
        <pt x="137" y="-195" on="0"/>
        <pt x="215" y="-171" on="0"/>
        <pt x="246" y="-152" on="1"/>
        <pt x="318" y="-107" on="0"/>
        <pt x="318" y="-23" on="1"/>
        <pt x="291" y="43" on="0"/>
        <pt x="216" y="56" on="1"/>
        <pt x="118" y="72" on="0"/>
        <pt x="118" y="174" on="1"/>
        <pt x="118" y="267" on="0"/>
        <pt x="200" y="300" on="1"/>
        <pt x="226" y="311" on="0"/>
        <pt x="298" y="311" on="0"/>
        <pt x="368" y="276" on="0"/>
        <pt x="394" y="242" on="1"/>
        <pt x="451" y="169" on="0"/>
        <pt x="451" y="-32" on="0"/>
        <pt x="396" y="-149" on="0"/>
        <pt x="350" y="-188" on="1"/>
        <pt x="258" y="-266" on="0"/>
      </contour>
    </TTGlyph>
    <TTGlyph name="commaaccent" xMin="207" yMin="-577" xMax="526" yMax="-90">
      <contour>
        <pt x="290" y="-577" on="1"/>
        <pt x="248" y="-577" on="0"/>
        <pt x="248" y="-539" on="1"/>
        <pt x="248" y="-520" on="0"/>
        <pt x="294" y="-498" on="0"/>
        <pt x="327" y="-484" on="0"/>
        <pt x="340" y="-471" on="1"/>
        <pt x="373" y="-440" on="0"/>
        <pt x="373" y="-386" on="1"/>
        <pt x="253" y="-386" on="0"/>
        <pt x="218" y="-295" on="1"/>
        <pt x="207" y="-268" on="0"/>
        <pt x="207" y="-210" on="0"/>
        <pt x="229" y="-156" on="0"/>
        <pt x="249" y="-136" on="1"/>
        <pt x="293" y="-90" on="0"/>
        <pt x="360" y="-90" on="1"/>
        <pt x="526" y="-90" on="0"/>
        <pt x="526" y="-312" on="1"/>
        <pt x="526" y="-435" on="0"/>
        <pt x="440" y="-512" on="1"/>
        <pt x="367" y="-577" on="0"/>
      </contour>
    </TTGlyph>
    <TTGlyph name="copyright" xMin="73" yMin="-23" xMax="1435" yMax="1314">
      <contour>
        <pt x="1350" y="630" on="1"/>
        <pt x="1350" y="755" on="0"/>
        <pt x="1264" y="982" on="0"/>
        <pt x="1185" y="1066" on="1"/>
        <pt x="1014" y="1249" on="0"/>
        <pt x="748" y="1249" on="1"/>
        <pt x="493" y="1249" on="0"/>
        <pt x="326" y="1076" on="1"/>
        <pt x="162" y="906" on="0"/>
        <pt x="162" y="666" on="1"/>
        <pt x="162" y="400" on="0"/>
        <pt x="332" y="222" on="1"/>
        <pt x="504" y="41" on="0"/>
        <pt x="772" y="41" on="1"/>
        <pt x="1014" y="41" on="0"/>
        <pt x="1181" y="212" on="1"/>
        <pt x="1350" y="384" on="0"/>
      </contour>
      <contour>
        <pt x="1323" y="1040" on="0"/>
        <pt x="1435" y="794" on="0"/>
        <pt x="1435" y="500" on="0"/>
        <pt x="1328" y="255" on="0"/>
        <pt x="1143" y="77" on="0"/>
        <pt x="894" y="-23" on="0"/>
        <pt x="619" y="-23" on="0"/>
        <pt x="374" y="76" on="0"/>
        <pt x="185" y="254" on="0"/>
        <pt x="73" y="499" on="0"/>
        <pt x="73" y="791" on="0"/>
        <pt x="185" y="1036" on="0"/>
        <pt x="373" y="1214" on="0"/>
        <pt x="619" y="1314" on="0"/>
        <pt x="888" y="1314" on="0"/>
        <pt x="1134" y="1216" on="0"/>
      </contour>
      <contour>
        <pt x="925" y="1067" on="0"/>
        <pt x="971" y="1054" on="0"/>
        <pt x="1006" y="1054" on="0"/>
        <pt x="1016" y="1080" on="1"/>
        <pt x="1080" y="1080" on="1"/>
        <pt x="1101" y="840" on="1"/>
        <pt x="1096" y="838" on="0"/>
        <pt x="1089" y="838" on="1"/>
        <pt x="1071" y="838" on="1"/>
        <pt x="993" y="1055" on="0"/>
        <pt x="775" y="1055" on="1"/>
        <pt x="639" y="1055" on="0"/>
        <pt x="471" y="845" on="0"/>
        <pt x="471" y="678" on="1"/>
        <pt x="471" y="389" on="0"/>
        <pt x="662" y="308" on="1"/>
        <pt x="723" y="282" on="0"/>
        <pt x="850" y="282" on="0"/>
        <pt x="928" y="297" on="0"/>
        <pt x="962" y="311" on="1"/>
        <pt x="1017" y="334" on="0"/>
        <pt x="1088" y="392" on="1"/>
        <pt x="1102" y="388" on="0"/>
        <pt x="1114" y="376" on="1"/>
        <pt x="1051" y="255" on="0"/>
        <pt x="870" y="216" on="1"/>
        <pt x="816" y="205" on="0"/>
        <pt x="666" y="205" on="0"/>
        <pt x="500" y="270" on="0"/>
        <pt x="440" y="328" on="1"/>
        <pt x="310" y="454" on="0"/>
        <pt x="310" y="647" on="1"/>
        <pt x="310" y="834" on="0"/>
        <pt x="441" y="961" on="1"/>
        <pt x="568" y="1084" on="0"/>
        <pt x="756" y="1096" on="1"/>
        <pt x="822" y="1096" on="0"/>
      </contour>
    </TTGlyph>
    <TTGlyph name="currency" xMin="142" yMin="233" xMax="1046" yMax="1194">
      <contour>
        <pt x="331" y="720" on="1"/>
        <pt x="331" y="664" on="0"/>
        <pt x="369" y="563" on="0"/>
        <pt x="404" y="526" on="1"/>
        <pt x="478" y="445" on="0"/>
        <pt x="594" y="445" on="1"/>
        <pt x="703" y="445" on="0"/>
        <pt x="780" y="522" on="1"/>
        <pt x="857" y="599" on="0"/>
        <pt x="857" y="707" on="1"/>
        <pt x="857" y="823" on="0"/>
        <pt x="784" y="902" on="1"/>
        <pt x="708" y="983" on="0"/>
        <pt x="594" y="983" on="1"/>
        <pt x="484" y="983" on="0"/>
        <pt x="408" y="906" on="1"/>
        <pt x="331" y="827" on="0"/>
      </contour>
      <contour>
        <pt x="369" y="1042" on="1"/>
        <pt x="476" y="1109" on="0"/>
        <pt x="713" y="1109" on="0"/>
        <pt x="817" y="1044" on="1"/>
        <pt x="849" y="1086" on="0"/>
        <pt x="912" y="1166" on="0"/>
        <pt x="957" y="1194" on="1"/>
        <pt x="1008" y="1163" on="0"/>
        <pt x="1039" y="1109" on="1"/>
        <pt x="1013" y="1067" on="0"/>
        <pt x="944" y="995" on="0"/>
        <pt x="912" y="959" on="1"/>
        <pt x="998" y="848" on="0"/>
        <pt x="998" y="584" on="0"/>
        <pt x="914" y="470" on="1"/>
        <pt x="929" y="452" on="0"/>
        <pt x="966" y="415" on="0"/>
        <pt x="984" y="396" on="1"/>
        <pt x="1028" y="350" on="0"/>
        <pt x="1046" y="318" on="1"/>
        <pt x="1009" y="268" on="0"/>
        <pt x="959" y="238" on="1"/>
        <pt x="911" y="267" on="0"/>
        <pt x="822" y="384" on="1"/>
        <pt x="720" y="318" on="0"/>
        <pt x="478" y="318" on="0"/>
        <pt x="373" y="382" on="1"/>
        <pt x="356" y="361" on="0"/>
        <pt x="325" y="319" on="0"/>
        <pt x="308" y="300" on="1"/>
        <pt x="272" y="256" on="0"/>
        <pt x="231" y="233" on="1"/>
        <pt x="176" y="271" on="0"/>
        <pt x="149" y="317" on="1"/>
        <pt x="176" y="359" on="0"/>
        <pt x="245" y="431" on="0"/>
        <pt x="277" y="467" on="1"/>
        <pt x="191" y="581" on="0"/>
        <pt x="191" y="848" on="0"/>
        <pt x="275" y="958" on="1"/>
        <pt x="260" y="976" on="0"/>
        <pt x="223" y="1013" on="0"/>
        <pt x="205" y="1032" on="1"/>
        <pt x="161" y="1077" on="0"/>
        <pt x="142" y="1110" on="1"/>
        <pt x="184" y="1163" on="0"/>
        <pt x="230" y="1190" on="1"/>
        <pt x="275" y="1164" on="0"/>
        <pt x="339" y="1080" on="1"/>
        <pt x="355" y="1059" on="0"/>
      </contour>
    </TTGlyph>
    <TTGlyph name="d" xMin="80" yMin="-20" xMax="1147" yMax="1376">
      <contour>
        <pt x="799" y="222" on="1"/>
        <pt x="799" y="510" on="1"/>
        <pt x="799" y="653" on="0"/>
        <pt x="758" y="720" on="1"/>
        <pt x="715" y="789" on="0"/>
        <pt x="628" y="826" on="1"/>
        <pt x="582" y="846" on="0"/>
        <pt x="472" y="846" on="0"/>
        <pt x="373" y="785" on="0"/>
        <pt x="338" y="734" on="1"/>
        <pt x="266" y="627" on="0"/>
        <pt x="266" y="477" on="1"/>
        <pt x="266" y="327" on="0"/>
        <pt x="339" y="220" on="1"/>
        <pt x="422" y="99" on="0"/>
        <pt x="707" y="99" on="0"/>
      </contour>
      <contour>
        <pt x="804" y="143" on="1"/>
        <pt x="659" y="-20" on="0"/>
        <pt x="488" y="-20" on="1"/>
        <pt x="314" y="-20" on="0"/>
        <pt x="199" y="99" on="1"/>
        <pt x="80" y="222" on="0"/>
        <pt x="80" y="414" on="1"/>
        <pt x="80" y="639" on="0"/>
        <pt x="345" y="923" on="0"/>
        <pt x="544" y="923" on="1"/>
        <pt x="613" y="923" on="0"/>
        <pt x="735" y="879" on="0"/>
        <pt x="799" y="849" on="1"/>
        <pt x="799" y="1175" on="1"/>
        <pt x="773" y="1216" on="0"/>
        <pt x="629" y="1266" on="1"/>
        <pt x="631" y="1301" on="1"/>
        <pt x="913" y="1369" on="1"/>
        <pt x="985" y="1376" on="1"/>
        <pt x="985" y="199" on="1"/>
        <pt x="985" y="139" on="0"/>
        <pt x="1044" y="110" on="1"/>
        <pt x="1089" y="87" on="0"/>
        <pt x="1147" y="87" on="1"/>
        <pt x="1147" y="32" on="1"/>
        <pt x="880" y="-12" on="1"/>
        <pt x="813" y="-12" on="1"/>
      </contour>
    </TTGlyph>
    <TTGlyph name="dagger" xMin="63" yMin="-225" xMax="987" yMax="1312">
      <contour>
        <pt x="372" y="1290" on="1"/>
        <pt x="372" y="1312" on="0"/>
        <pt x="424" y="1312" on="1"/>
        <pt x="620" y="1312" on="1"/>
        <pt x="672" y="1312" on="0"/>
        <pt x="672" y="1290" on="1"/>
        <pt x="672" y="1287" on="0"/>
        <pt x="659" y="1274" on="0"/>
        <pt x="651" y="1264" on="1"/>
        <pt x="629" y="1239" on="0"/>
        <pt x="626" y="1207" on="1"/>
        <pt x="576" y="801" on="1"/>
        <pt x="899" y="846" on="1"/>
        <pt x="916" y="847" on="0"/>
        <pt x="919" y="872" on="1"/>
        <pt x="922" y="896" on="0"/>
        <pt x="938" y="896" on="1"/>
        <pt x="987" y="896" on="0"/>
        <pt x="987" y="782" on="1"/>
        <pt x="987" y="732" on="1"/>
        <pt x="987" y="618" on="0"/>
        <pt x="939" y="618" on="1"/>
        <pt x="922" y="618" on="0"/>
        <pt x="918" y="642" on="1"/>
        <pt x="914" y="667" on="0"/>
        <pt x="898" y="670" on="1"/>
        <pt x="576" y="714" on="1"/>
        <pt x="633" y="-118" on="1"/>
        <pt x="635" y="-154" on="0"/>
        <pt x="669" y="-192" on="1"/>
        <pt x="675" y="-198" on="0"/>
        <pt x="675" y="-209" on="0"/>
        <pt x="662" y="-218" on="0"/>
        <pt x="654" y="-220" on="1"/>
        <pt x="638" y="-225" on="0"/>
        <pt x="625" y="-225" on="1"/>
        <pt x="420" y="-225" on="1"/>
        <pt x="393" y="-225" on="0"/>
        <pt x="370" y="-209" on="0"/>
        <pt x="370" y="-198" on="0"/>
        <pt x="382" y="-186" on="0"/>
        <pt x="390" y="-176" on="1"/>
        <pt x="409" y="-150" on="0"/>
        <pt x="412" y="-118" on="1"/>
        <pt x="468" y="714" on="1"/>
        <pt x="151" y="669" on="1"/>
        <pt x="137" y="667" on="0"/>
        <pt x="131" y="632" on="0"/>
        <pt x="125" y="617" on="0"/>
        <pt x="112" y="617" on="1"/>
        <pt x="67" y="617" on="0"/>
        <pt x="67" y="700" on="1"/>
        <pt x="63" y="783" on="1"/>
        <pt x="63" y="896" on="0"/>
        <pt x="113" y="896" on="1"/>
        <pt x="125" y="896" on="0"/>
        <pt x="130" y="881" on="0"/>
        <pt x="132" y="872" on="1"/>
        <pt x="136" y="847" on="0"/>
        <pt x="151" y="846" on="1"/>
        <pt x="468" y="801" on="1"/>
        <pt x="418" y="1207" on="1"/>
        <pt x="412" y="1243" on="0"/>
        <pt x="372" y="1287" on="0"/>
      </contour>
    </TTGlyph>
    <TTGlyph name="dcaron" xMin="80" yMin="-20" xMax="1617" yMax="1376">
      <component glyphName="d" x="0" y="0" flags="0x1204"/>
      <component glyphName="quoteright" x="1180" y="0" flags="0x1004"/>
    </TTGlyph>
    <TTGlyph name="degree" xMin="106" yMin="803" xMax="593" yMax="1287">
      <contour>
        <pt x="593" y="1045" on="1"/>
        <pt x="593" y="947" on="0"/>
        <pt x="522" y="875" on="1"/>
        <pt x="452" y="803" on="0"/>
        <pt x="351" y="803" on="1"/>
        <pt x="248" y="803" on="0"/>
        <pt x="106" y="945" on="0"/>
        <pt x="106" y="1045" on="1"/>
        <pt x="106" y="1144" on="0"/>
        <pt x="177" y="1215" on="1"/>
        <pt x="249" y="1287" on="0"/>
        <pt x="351" y="1287" on="1"/>
        <pt x="452" y="1287" on="0"/>
        <pt x="522" y="1215" on="1"/>
        <pt x="593" y="1143" on="0"/>
      </contour>
      <contour>
        <pt x="543" y="1044" on="1"/>
        <pt x="543" y="1082" on="0"/>
        <pt x="513" y="1151" on="0"/>
        <pt x="487" y="1176" on="1"/>
        <pt x="429" y="1233" on="0"/>
        <pt x="352" y="1233" on="1"/>
        <pt x="274" y="1233" on="0"/>
        <pt x="216" y="1176" on="1"/>
        <pt x="160" y="1122" on="0"/>
        <pt x="160" y="1045" on="1"/>
        <pt x="160" y="965" on="0"/>
        <pt x="216" y="910" on="1"/>
        <pt x="273" y="855" on="0"/>
        <pt x="352" y="855" on="1"/>
        <pt x="430" y="855" on="0"/>
        <pt x="487" y="912" on="1"/>
        <pt x="543" y="968" on="0"/>
      </contour>
    </TTGlyph>
    <TTGlyph name="dieresis" xMin="229" yMin="1083" xMax="887" yMax="1301">
      <contour>
        <pt x="275" y="1284" on="0"/>
        <pt x="315" y="1301" on="0"/>
        <pt x="360" y="1301" on="0"/>
        <pt x="400" y="1284" on="0"/>
        <pt x="415" y="1269" on="1"/>
        <pt x="447" y="1237" on="0"/>
        <pt x="447" y="1169" on="0"/>
        <pt x="430" y="1129" on="0"/>
        <pt x="415" y="1114" on="1"/>
        <pt x="382" y="1083" on="0"/>
        <pt x="315" y="1083" on="0"/>
        <pt x="275" y="1100" on="0"/>
        <pt x="260" y="1114" on="1"/>
        <pt x="229" y="1146" on="0"/>
        <pt x="229" y="1214" on="0"/>
        <pt x="246" y="1254" on="0"/>
      </contour>
      <contour>
        <pt x="777" y="1301" on="1"/>
        <pt x="823" y="1301" on="0"/>
        <pt x="846" y="1278" on="1"/>
        <pt x="887" y="1237" on="0"/>
        <pt x="887" y="1169" on="0"/>
        <pt x="870" y="1129" on="0"/>
        <pt x="855" y="1114" on="1"/>
        <pt x="822" y="1083" on="0"/>
        <pt x="777" y="1083" on="1"/>
        <pt x="732" y="1083" on="0"/>
        <pt x="709" y="1106" on="1"/>
        <pt x="669" y="1146" on="0"/>
        <pt x="669" y="1214" on="0"/>
        <pt x="686" y="1254" on="0"/>
        <pt x="700" y="1269" on="1"/>
        <pt x="731" y="1301" on="0"/>
      </contour>
    </TTGlyph>
    <TTGlyph name="divide" xMin="106" yMin="125" xMax="1155" yMax="1126">
      <contour>
        <pt x="630" y="888" on="1"/>
        <pt x="582" y="888" on="0"/>
        <pt x="555" y="914" on="1"/>
        <pt x="510" y="957" on="0"/>
        <pt x="510" y="1006" on="1"/>
        <pt x="510" y="1054" on="0"/>
        <pt x="536" y="1080" on="1"/>
        <pt x="582" y="1126" on="0"/>
        <pt x="630" y="1126" on="1"/>
        <pt x="680" y="1126" on="0"/>
        <pt x="706" y="1100" on="1"/>
        <pt x="752" y="1054" on="0"/>
        <pt x="752" y="983" on="0"/>
        <pt x="733" y="940" on="0"/>
        <pt x="716" y="924" on="1"/>
        <pt x="681" y="888" on="0"/>
      </contour>
      <contour>
        <pt x="630" y="125" on="1"/>
        <pt x="582" y="125" on="0"/>
        <pt x="555" y="150" on="1"/>
        <pt x="510" y="194" on="0"/>
        <pt x="510" y="243" on="1"/>
        <pt x="510" y="291" on="0"/>
        <pt x="536" y="317" on="1"/>
        <pt x="581" y="362" on="0"/>
        <pt x="630" y="362" on="1"/>
        <pt x="681" y="362" on="0"/>
        <pt x="707" y="336" on="1"/>
        <pt x="752" y="291" on="0"/>
        <pt x="752" y="243" on="1"/>
        <pt x="752" y="196" on="0"/>
        <pt x="726" y="170" on="1"/>
        <pt x="681" y="125" on="0"/>
      </contour>
      <contour>
        <pt x="243" y="548" on="1"/>
        <pt x="143" y="548" on="0"/>
        <pt x="106" y="579" on="1"/>
        <pt x="106" y="622" on="0"/>
        <pt x="135" y="688" on="0"/>
        <pt x="138" y="699" on="1"/>
        <pt x="1018" y="700" on="1"/>
        <pt x="1082" y="700" on="0"/>
        <pt x="1155" y="669" on="1"/>
        <pt x="1155" y="583" on="0"/>
        <pt x="1123" y="551" on="1"/>
      </contour>
    </TTGlyph>
    <TTGlyph name="dollar" xMin="73" yMin="-228" xMax="931" yMax="1422">
      <contour>
        <pt x="550" y="1136" on="1"/>
        <pt x="544" y="938" on="0"/>
        <pt x="541" y="732" on="1"/>
        <pt x="695" y="641" on="1"/>
        <pt x="833" y="559" on="0"/>
        <pt x="884" y="489" on="1"/>
        <pt x="931" y="423" on="0"/>
        <pt x="931" y="230" on="0"/>
        <pt x="867" y="102" on="0"/>
        <pt x="812" y="60" on="1"/>
        <pt x="709" y="-18" on="0"/>
        <pt x="536" y="-27" on="1"/>
        <pt x="536" y="-125" on="1"/>
        <pt x="536" y="-205" on="0"/>
        <pt x="502" y="-223" on="1"/>
        <pt x="492" y="-228" on="0"/>
        <pt x="469" y="-228" on="0"/>
        <pt x="440" y="-183" on="0"/>
        <pt x="439" y="-141" on="1"/>
        <pt x="441" y="-26" on="1"/>
        <pt x="222" y="-13" on="0"/>
        <pt x="73" y="80" on="1"/>
        <pt x="94" y="366" on="1"/>
        <pt x="114" y="371" on="0"/>
        <pt x="124" y="371" on="0"/>
        <pt x="139" y="353" on="0"/>
        <pt x="144" y="340" on="1"/>
        <pt x="154" y="317" on="0"/>
        <pt x="165" y="236" on="0"/>
        <pt x="216" y="158" on="0"/>
        <pt x="256" y="128" on="1"/>
        <pt x="335" y="66" on="0"/>
        <pt x="449" y="45" on="1"/>
        <pt x="449" y="502" on="1"/>
        <pt x="310" y="581" on="1"/>
        <pt x="198" y="644" on="0"/>
        <pt x="95" y="792" on="0"/>
        <pt x="95" y="965" on="0"/>
        <pt x="154" y="1079" on="0"/>
        <pt x="204" y="1117" on="1"/>
        <pt x="300" y="1189" on="0"/>
        <pt x="460" y="1200" on="1"/>
        <pt x="459" y="1224" on="0"/>
        <pt x="459" y="1246" on="1"/>
        <pt x="459" y="1285" on="1"/>
        <pt x="459" y="1360" on="0"/>
        <pt x="477" y="1422" on="0"/>
        <pt x="507" y="1422" on="1"/>
        <pt x="530" y="1422" on="0"/>
        <pt x="538" y="1401" on="1"/>
        <pt x="552" y="1364" on="0"/>
        <pt x="552" y="1311" on="1"/>
        <pt x="552" y="1239" on="1"/>
        <pt x="552" y="1220" on="0"/>
        <pt x="551" y="1201" on="1"/>
        <pt x="705" y="1193" on="0"/>
        <pt x="831" y="1138" on="1"/>
        <pt x="861" y="881" on="1"/>
        <pt x="839" y="876" on="0"/>
        <pt x="824" y="876" on="0"/>
        <pt x="806" y="893" on="0"/>
        <pt x="798" y="906" on="1"/>
        <pt x="785" y="930" on="0"/>
        <pt x="769" y="1000" on="0"/>
        <pt x="726" y="1060" on="0"/>
        <pt x="696" y="1082" on="1"/>
        <pt x="637" y="1123" on="0"/>
      </contour>
      <contour>
        <pt x="538" y="452" on="1"/>
        <pt x="536" y="276" on="0"/>
        <pt x="536" y="36" on="1"/>
        <pt x="688" y="36" on="0"/>
        <pt x="740" y="139" on="1"/>
        <pt x="757" y="174" on="0"/>
        <pt x="757" y="258" on="0"/>
        <pt x="732" y="314" on="0"/>
        <pt x="706" y="340" on="1"/>
        <pt x="665" y="380" on="0"/>
      </contour>
      <contour>
        <pt x="454" y="1138" on="1"/>
        <pt x="321" y="1128" on="0"/>
        <pt x="269" y="1048" on="1"/>
        <pt x="252" y="1022" on="0"/>
        <pt x="252" y="985" on="1"/>
        <pt x="252" y="906" on="0"/>
        <pt x="359" y="842" on="1"/>
        <pt x="454" y="785" on="1"/>
      </contour>
    </TTGlyph>
    <TTGlyph name="dotaccent" xMin="231" yMin="1056" xMax="450" yMax="1274">
      <contour>
        <pt x="340" y="1274" on="1"/>
        <pt x="386" y="1274" on="0"/>
        <pt x="410" y="1250" on="1"/>
        <pt x="450" y="1210" on="0"/>
        <pt x="450" y="1142" on="0"/>
        <pt x="433" y="1102" on="0"/>
        <pt x="418" y="1088" on="1"/>
        <pt x="385" y="1056" on="0"/>
        <pt x="340" y="1056" on="1"/>
        <pt x="296" y="1056" on="0"/>
        <pt x="272" y="1079" on="1"/>
        <pt x="231" y="1118" on="0"/>
        <pt x="231" y="1187" on="0"/>
        <pt x="248" y="1227" on="0"/>
        <pt x="263" y="1242" on="1"/>
        <pt x="295" y="1274" on="0"/>
      </contour>
    </TTGlyph>
    <TTGlyph name="dotaccentcmb" xMin="236" yMin="682" xMax="455" yMax="900">
      <contour>
        <pt x="345" y="900" on="1"/>
        <pt x="391" y="900" on="0"/>
        <pt x="414" y="876" on="1"/>
        <pt x="455" y="836" on="0"/>
        <pt x="455" y="768" on="0"/>
        <pt x="438" y="728" on="0"/>
        <pt x="423" y="714" on="1"/>
        <pt x="390" y="682" on="0"/>
        <pt x="345" y="682" on="1"/>
        <pt x="301" y="682" on="0"/>
        <pt x="277" y="705" on="1"/>
        <pt x="236" y="744" on="0"/>
        <pt x="236" y="813" on="0"/>
        <pt x="253" y="853" on="0"/>
        <pt x="268" y="868" on="1"/>
        <pt x="300" y="900" on="0"/>
      </contour>
    </TTGlyph>
    <TTGlyph name="dotlessi" xMin="47" yMin="0" xMax="559" yMax="912">
      <contour>
        <pt x="49" y="0" on="1"/>
        <pt x="47" y="8" on="0"/>
        <pt x="47" y="18" on="1"/>
        <pt x="47" y="50" on="1"/>
        <pt x="63" y="59" on="0"/>
        <pt x="121" y="75" on="0"/>
        <pt x="150" y="88" on="1"/>
        <pt x="219" y="120" on="0"/>
        <pt x="219" y="181" on="1"/>
        <pt x="219" y="707" on="1"/>
        <pt x="202" y="736" on="0"/>
        <pt x="120" y="763" on="0"/>
        <pt x="78" y="778" on="0"/>
        <pt x="67" y="791" on="1"/>
        <pt x="67" y="806" on="0"/>
        <pt x="69" y="826" on="1"/>
        <pt x="346" y="906" on="1"/>
        <pt x="405" y="912" on="1"/>
        <pt x="405" y="220" on="1"/>
        <pt x="405" y="168" on="0"/>
        <pt x="419" y="110" on="0"/>
        <pt x="457" y="83" on="0"/>
        <pt x="503" y="68" on="0"/>
        <pt x="548" y="58" on="0"/>
        <pt x="559" y="50" on="1"/>
        <pt x="559" y="26" on="0"/>
        <pt x="557" y="0" on="1"/>
      </contour>
    </TTGlyph>
    <TTGlyph name="dotlessj" xMin="-1" yMin="-308" xMax="387" yMax="918">
      <contour>
        <pt x="201" y="710" on="1"/>
        <pt x="172" y="755" on="0"/>
        <pt x="64" y="790" on="1"/>
        <pt x="43" y="797" on="0"/>
        <pt x="39" y="797" on="1"/>
        <pt x="39" y="832" on="1"/>
        <pt x="319" y="911" on="1"/>
        <pt x="387" y="918" on="1"/>
        <pt x="387" y="125" on="1"/>
        <pt x="387" y="-184" on="0"/>
        <pt x="172" y="-270" on="1"/>
        <pt x="103" y="-298" on="0"/>
        <pt x="14" y="-308" on="1"/>
        <pt x="-1" y="-250" on="1"/>
        <pt x="60" y="-222" on="0"/>
        <pt x="136" y="-173" on="0"/>
        <pt x="158" y="-138" on="1"/>
        <pt x="193" y="-79" on="0"/>
        <pt x="201" y="88" on="1"/>
      </contour>
    </TTGlyph>
    <TTGlyph name="e" xMin="82" yMin="-20" xMax="891" yMax="926">
      <contour>
        <pt x="693" y="610" on="1"/>
        <pt x="678" y="859" on="0"/>
        <pt x="500" y="859" on="1"/>
        <pt x="403" y="859" on="0"/>
        <pt x="340" y="778" on="1"/>
        <pt x="281" y="704" on="0"/>
        <pt x="266" y="585" on="1"/>
        <pt x="619" y="594" on="1"/>
        <pt x="666" y="596" on="0"/>
      </contour>
      <contour>
        <pt x="840" y="193" on="1"/>
        <pt x="869" y="165" on="1"/>
        <pt x="832" y="78" on="0"/>
        <pt x="725" y="27" on="1"/>
        <pt x="627" y="-20" on="0"/>
        <pt x="426" y="-20" on="0"/>
        <pt x="265" y="48" on="0"/>
        <pt x="206" y="110" on="1"/>
        <pt x="82" y="240" on="0"/>
        <pt x="82" y="447" on="1"/>
        <pt x="82" y="655" on="0"/>
        <pt x="216" y="794" on="1"/>
        <pt x="342" y="926" on="0"/>
        <pt x="523" y="926" on="1"/>
        <pt x="667" y="926" on="0"/>
        <pt x="764" y="840" on="1"/>
        <pt x="860" y="756" on="0"/>
        <pt x="880" y="620" on="1"/>
        <pt x="891" y="569" on="0"/>
        <pt x="891" y="535" on="1"/>
        <pt x="891" y="526" on="1"/>
        <pt x="259" y="526" on="1"/>
        <pt x="258" y="518" on="0"/>
        <pt x="258" y="504" on="0"/>
        <pt x="258" y="497" on="1"/>
        <pt x="258" y="310" on="0"/>
        <pt x="358" y="211" on="1"/>
        <pt x="449" y="121" on="0"/>
        <pt x="720" y="121" on="0"/>
      </contour>
    </TTGlyph>
    <TTGlyph name="eacute" xMin="82" yMin="-20" xMax="891" yMax="1570">
      <component glyphName="e" x="0" y="0" flags="0x1204"/>
      <component glyphName="acute" x="71" y="0" flags="0x1004"/>
    </TTGlyph>
    <TTGlyph name="ecaron" xMin="82" yMin="-20" xMax="891" yMax="1388">
      <component glyphName="e" x="0" y="0" flags="0x1204"/>
      <component glyphName="caron" x="8" y="0" flags="0x1004"/>
    </TTGlyph>
    <TTGlyph name="ecircumflex" xMin="82" yMin="-20" xMax="891" yMax="1571">
      <component glyphName="e" x="0" y="0" flags="0x1204"/>
      <component glyphName="circumflex" x="14" y="0" flags="0x1004"/>
    </TTGlyph>
    <TTGlyph name="edieresis" xMin="82" yMin="-20" xMax="891" yMax="1301">
      <component glyphName="e" x="0" y="0" flags="0x1204"/>
      <component glyphName="dieresis" x="-35" y="0" flags="0x1004"/>
    </TTGlyph>
    <TTGlyph name="egrave" xMin="82" yMin="-20" xMax="891" yMax="1570">
      <component glyphName="e" x="0" y="0" flags="0x1204"/>
      <component glyphName="grave" x="71" y="0" flags="0x1004"/>
    </TTGlyph>
    <TTGlyph name="eight" xMin="82" yMin="-20" xMax="935" yMax="1215">
      <contour>
        <pt x="139" y="110" on="0"/>
        <pt x="82" y="220" on="0"/>
        <pt x="82" y="340" on="0"/>
        <pt x="126" y="437" on="0"/>
        <pt x="162" y="479" on="1"/>
        <pt x="221" y="547" on="0"/>
        <pt x="349" y="631" on="1"/>
        <pt x="251" y="703" on="0"/>
        <pt x="211" y="756" on="1"/>
        <pt x="137" y="854" on="0"/>
        <pt x="137" y="951" on="1"/>
        <pt x="137" y="1067" on="0"/>
        <pt x="234" y="1138" on="1"/>
        <pt x="337" y="1215" on="0"/>
        <pt x="516" y="1215" on="1"/>
        <pt x="679" y="1215" on="0"/>
        <pt x="768" y="1134" on="1"/>
        <pt x="841" y="1068" on="0"/>
        <pt x="841" y="980" on="1"/>
        <pt x="841" y="851" on="0"/>
        <pt x="720" y="745" on="1"/>
        <pt x="684" y="713" on="0"/>
        <pt x="642" y="681" on="1"/>
        <pt x="784" y="591" on="0"/>
        <pt x="834" y="531" on="1"/>
        <pt x="935" y="412" on="0"/>
        <pt x="935" y="272" on="1"/>
        <pt x="935" y="76" on="0"/>
        <pt x="705" y="6" on="1"/>
        <pt x="619" y="-20" on="0"/>
        <pt x="396" y="-20" on="0"/>
        <pt x="246" y="27" on="0"/>
      </contour>
      <contour>
        <pt x="586" y="486" on="1"/>
        <pt x="542" y="516" on="0"/>
        <pt x="494" y="547" on="1"/>
        <pt x="474" y="560" on="1"/>
        <pt x="343" y="477" on="0"/>
        <pt x="299" y="436" on="1"/>
        <pt x="214" y="357" on="0"/>
        <pt x="214" y="285" on="1"/>
        <pt x="214" y="181" on="0"/>
        <pt x="360" y="59" on="0"/>
        <pt x="626" y="59" on="0"/>
        <pt x="735" y="194" on="0"/>
        <pt x="735" y="385" on="0"/>
      </contour>
      <contour>
        <pt x="713" y="986" on="1"/>
        <pt x="713" y="1142" on="0"/>
        <pt x="516" y="1142" on="1"/>
        <pt x="419" y="1142" on="0"/>
        <pt x="315" y="1071" on="0"/>
        <pt x="315" y="964" on="0"/>
        <pt x="348" y="895" on="0"/>
        <pt x="377" y="865" on="1"/>
        <pt x="423" y="817" on="0"/>
        <pt x="526" y="754" on="1"/>
        <pt x="623" y="817" on="0"/>
        <pt x="655" y="853" on="1"/>
        <pt x="713" y="918" on="0"/>
      </contour>
    </TTGlyph>
    <TTGlyph name="ellipsis" xMin="166" yMin="-21" xMax="1644" yMax="251">
      <contour>
        <pt x="225" y="229" on="0"/>
        <pt x="274" y="251" on="0"/>
        <pt x="331" y="251" on="0"/>
        <pt x="382" y="229" on="0"/>
        <pt x="400" y="210" on="1"/>
        <pt x="441" y="170" on="0"/>
        <pt x="441" y="116" on="1"/>
        <pt x="441" y="63" on="0"/>
        <pt x="400" y="21" on="1"/>
        <pt x="361" y="-20" on="0"/>
        <pt x="274" y="-20" on="0"/>
        <pt x="225" y="2" on="0"/>
        <pt x="206" y="20" on="1"/>
        <pt x="166" y="59" on="0"/>
        <pt x="166" y="143" on="0"/>
        <pt x="187" y="192" on="0"/>
      </contour>
      <contour>
        <pt x="827" y="229" on="0"/>
        <pt x="876" y="251" on="0"/>
        <pt x="933" y="251" on="0"/>
        <pt x="984" y="229" on="0"/>
        <pt x="1002" y="210" on="1"/>
        <pt x="1043" y="170" on="0"/>
        <pt x="1043" y="116" on="1"/>
        <pt x="1043" y="63" on="0"/>
        <pt x="1002" y="21" on="1"/>
        <pt x="963" y="-20" on="0"/>
        <pt x="876" y="-20" on="0"/>
        <pt x="827" y="2" on="0"/>
        <pt x="808" y="20" on="1"/>
        <pt x="768" y="59" on="0"/>
        <pt x="768" y="143" on="0"/>
        <pt x="789" y="192" on="0"/>
      </contour>
      <contour>
        <pt x="1506" y="251" on="1"/>
        <pt x="1562" y="251" on="0"/>
        <pt x="1604" y="210" on="1"/>
        <pt x="1644" y="172" on="0"/>
        <pt x="1644" y="116" on="1"/>
        <pt x="1644" y="61" on="0"/>
        <pt x="1604" y="21" on="1"/>
        <pt x="1563" y="-20" on="0"/>
        <pt x="1506" y="-20" on="1"/>
        <pt x="1451" y="-20" on="0"/>
        <pt x="1409" y="20" on="1"/>
        <pt x="1369" y="59" on="0"/>
        <pt x="1369" y="143" on="0"/>
        <pt x="1390" y="192" on="0"/>
        <pt x="1409" y="210" on="1"/>
        <pt x="1451" y="251" on="0"/>
      </contour>
    </TTGlyph>
    <TTGlyph name="emacron" xMin="82" yMin="-20" xMax="891" yMax="1172">
      <component glyphName="e" x="0" y="0" flags="0x1204"/>
      <component glyphName="macron" x="89" y="0" flags="0x1004"/>
    </TTGlyph>
    <TTGlyph name="emdash" xMin="40" yMin="435" xMax="1608" yMax="525">
      <contour>
        <pt x="1608" y="455" on="1"/>
        <pt x="1491" y="435" on="0"/>
        <pt x="1254" y="435" on="1"/>
        <pt x="98" y="435" on="1"/>
        <pt x="61" y="435" on="0"/>
        <pt x="44" y="480" on="1"/>
        <pt x="40" y="492" on="0"/>
        <pt x="40" y="503" on="1"/>
        <pt x="169" y="525" on="0"/>
        <pt x="393" y="525" on="1"/>
        <pt x="1552" y="525" on="1"/>
        <pt x="1608" y="506" on="0"/>
      </contour>
    </TTGlyph>
    <TTGlyph name="endash" xMin="40" yMin="435" xMax="889" yMax="525">
      <contour>
        <pt x="889" y="453" on="1"/>
        <pt x="826" y="435" on="0"/>
        <pt x="710" y="435" on="1"/>
        <pt x="98" y="435" on="1"/>
        <pt x="59" y="435" on="0"/>
        <pt x="44" y="482" on="1"/>
        <pt x="40" y="494" on="0"/>
        <pt x="40" y="505" on="1"/>
        <pt x="121" y="525" on="0"/>
        <pt x="268" y="525" on="1"/>
        <pt x="831" y="525" on="1"/>
        <pt x="889" y="503" on="0"/>
      </contour>
    </TTGlyph>
    <TTGlyph name="eng" xMin="40" yMin="-296" xMax="1088" yMax="902">
      <contour>
        <pt x="594" y="-198" on="1"/>
        <pt x="594" y="-117" on="0"/>
        <pt x="669" y="-117" on="1"/>
        <pt x="735" y="-117" on="0"/>
        <pt x="747" y="-170" on="1"/>
        <pt x="755" y="-205" on="0"/>
        <pt x="774" y="-224" on="0"/>
        <pt x="807" y="-224" on="0"/>
        <pt x="842" y="-197" on="0"/>
        <pt x="857" y="-162" on="1"/>
        <pt x="892" y="-82" on="0"/>
        <pt x="892" y="82" on="1"/>
        <pt x="892" y="431" on="1"/>
        <pt x="892" y="647" on="0"/>
        <pt x="846" y="775" on="0"/>
        <pt x="766" y="833" on="0"/>
        <pt x="695" y="833" on="1"/>
        <pt x="562" y="833" on="0"/>
        <pt x="433" y="640" on="1"/>
        <pt x="433" y="120" on="1"/>
        <pt x="433" y="66" on="0"/>
        <pt x="527" y="52" on="1"/>
        <pt x="590" y="43" on="0"/>
        <pt x="621" y="30" on="0"/>
        <pt x="621" y="7" on="0"/>
        <pt x="617" y="0" on="1"/>
        <pt x="67" y="0" on="1"/>
        <pt x="62" y="15" on="0"/>
        <pt x="62" y="25" on="0"/>
        <pt x="94" y="44" on="0"/>
        <pt x="151" y="54" on="0"/>
        <pt x="174" y="60" on="1"/>
        <pt x="227" y="73" on="0"/>
        <pt x="227" y="126" on="1"/>
        <pt x="227" y="732" on="1"/>
        <pt x="227" y="782" on="0"/>
        <pt x="134" y="793" on="1"/>
        <pt x="72" y="801" on="0"/>
        <pt x="40" y="813" on="0"/>
        <pt x="40" y="824" on="1"/>
        <pt x="40" y="827" on="0"/>
        <pt x="45" y="842" on="1"/>
        <pt x="413" y="880" on="1"/>
        <pt x="433" y="732" on="1"/>
        <pt x="565" y="902" on="0"/>
        <pt x="743" y="902" on="1"/>
        <pt x="1088" y="902" on="0"/>
        <pt x="1088" y="463" on="1"/>
        <pt x="1088" y="119" on="1"/>
        <pt x="1088" y="-98" on="0"/>
        <pt x="983" y="-208" on="1"/>
        <pt x="899" y="-296" on="0"/>
        <pt x="772" y="-296" on="1"/>
        <pt x="700" y="-296" on="0"/>
        <pt x="661" y="-274" on="1"/>
        <pt x="594" y="-238" on="0"/>
      </contour>
    </TTGlyph>
    <TTGlyph name="eogonek" xMin="82" yMin="-371" xMax="891" yMax="926">
      <component glyphName="e" x="0" y="0" flags="0x1204"/>
      <component glyphName="ogonek" x="316" y="0" flags="0x1004"/>
    </TTGlyph>
    <TTGlyph name="equal" xMin="131" yMin="393" xMax="713" yMax="729">
      <contour>
        <pt x="221" y="636" on="1"/>
        <pt x="131" y="636" on="0"/>
        <pt x="131" y="729" on="0"/>
        <pt x="227" y="729" on="1"/>
        <pt x="602" y="729" on="1"/>
        <pt x="713" y="729" on="0"/>
        <pt x="713" y="679" on="1"/>
        <pt x="713" y="635" on="0"/>
        <pt x="629" y="635" on="1"/>
        <pt x="578" y="637" on="1"/>
        <pt x="266" y="637" on="1"/>
      </contour>
      <contour>
        <pt x="221" y="394" on="1"/>
        <pt x="131" y="394" on="0"/>
        <pt x="131" y="487" on="0"/>
        <pt x="227" y="487" on="1"/>
        <pt x="602" y="487" on="1"/>
        <pt x="713" y="487" on="0"/>
        <pt x="713" y="437" on="1"/>
        <pt x="713" y="393" on="0"/>
        <pt x="629" y="393" on="1"/>
        <pt x="578" y="395" on="1"/>
        <pt x="266" y="395" on="1"/>
      </contour>
    </TTGlyph>
    <TTGlyph name="eth" xMin="82" yMin="-21" xMax="1007" yMax="1380">
      <contour>
        <pt x="416" y="1380" on="1"/>
        <pt x="596" y="1311" on="0"/>
        <pt x="693" y="1218" on="1"/>
        <pt x="863" y="1306" on="1"/>
        <pt x="940" y="1306" on="0"/>
        <pt x="946" y="1262" on="1"/>
        <pt x="921" y="1233" on="0"/>
        <pt x="769" y="1168" on="0"/>
        <pt x="751" y="1159" on="1"/>
        <pt x="940" y="967" on="0"/>
        <pt x="991" y="685" on="1"/>
        <pt x="1007" y="596" on="0"/>
        <pt x="1007" y="404" on="0"/>
        <pt x="944" y="214" on="0"/>
        <pt x="884" y="140" on="1"/>
        <pt x="754" y="-21" on="0"/>
        <pt x="542" y="-21" on="1"/>
        <pt x="350" y="-21" on="0"/>
        <pt x="216" y="115" on="1"/>
        <pt x="82" y="250" on="0"/>
        <pt x="82" y="443" on="1"/>
        <pt x="82" y="645" on="0"/>
        <pt x="199" y="782" on="1"/>
        <pt x="323" y="926" on="0"/>
        <pt x="520" y="926" on="1"/>
        <pt x="641" y="926" on="0"/>
        <pt x="748" y="837" on="1"/>
        <pt x="751" y="839" on="1"/>
        <pt x="724" y="977" on="0"/>
        <pt x="629" y="1104" on="1"/>
        <pt x="572" y="1081" on="0"/>
        <pt x="467" y="1029" on="0"/>
        <pt x="412" y="1004" on="1"/>
        <pt x="383" y="1020" on="0"/>
        <pt x="373" y="1055" on="1"/>
        <pt x="413" y="1097" on="0"/>
        <pt x="528" y="1144" on="1"/>
        <pt x="557" y="1155" on="0"/>
        <pt x="581" y="1167" on="1"/>
        <pt x="507" y="1253" on="0"/>
        <pt x="369" y="1347" on="1"/>
      </contour>
      <contour>
        <pt x="304" y="679" on="0"/>
        <pt x="282" y="551" on="0"/>
        <pt x="282" y="452" on="0"/>
        <pt x="294" y="358" on="0"/>
        <pt x="321" y="262" on="0"/>
        <pt x="363" y="171" on="0"/>
        <pt x="392" y="136" on="1"/>
        <pt x="458" y="57" on="0"/>
        <pt x="623" y="57" on="0"/>
        <pt x="724" y="126" on="0"/>
        <pt x="754" y="180" on="1"/>
        <pt x="810" y="281" on="0"/>
        <pt x="810" y="428" on="1"/>
        <pt x="810" y="569" on="0"/>
        <pt x="780" y="677" on="0"/>
        <pt x="727" y="753" on="0"/>
        <pt x="692" y="782" on="1"/>
        <pt x="613" y="849" on="0"/>
        <pt x="457" y="849" on="0"/>
        <pt x="361" y="783" on="0"/>
      </contour>
    </TTGlyph>
    <TTGlyph name="exclam" xMin="153" yMin="-29" xMax="409" yMax="1312">
      <contour>
        <pt x="153" y="1263" on="0"/>
        <pt x="221" y="1312" on="0"/>
        <pt x="334" y="1312" on="0"/>
        <pt x="409" y="1258" on="0"/>
        <pt x="409" y="1155" on="0"/>
        <pt x="399" y="1037" on="0"/>
        <pt x="383" y="905" on="0"/>
        <pt x="364" y="764" on="0"/>
        <pt x="343" y="631" on="0"/>
        <pt x="324" y="511" on="0"/>
        <pt x="316" y="459" on="0"/>
        <pt x="313" y="423" on="0"/>
        <pt x="310" y="404" on="1"/>
        <pt x="301" y="356" on="0"/>
        <pt x="270" y="356" on="0"/>
        <pt x="257" y="379" on="0"/>
        <pt x="251" y="410" on="0"/>
        <pt x="249" y="441" on="0"/>
        <pt x="242" y="498" on="0"/>
        <pt x="223" y="621" on="0"/>
        <pt x="202" y="756" on="0"/>
        <pt x="181" y="897" on="0"/>
        <pt x="172" y="964" on="1"/>
        <pt x="153" y="1118" on="0"/>
      </contour>
      <contour>
        <pt x="162" y="92" on="1"/>
        <pt x="162" y="142" on="0"/>
        <pt x="188" y="169" on="1"/>
        <pt x="232" y="216" on="0"/>
        <pt x="334" y="216" on="0"/>
        <pt x="360" y="190" on="1"/>
        <pt x="407" y="143" on="0"/>
        <pt x="407" y="66" on="0"/>
        <pt x="387" y="22" on="0"/>
        <pt x="370" y="6" on="1"/>
        <pt x="333" y="-29" on="0"/>
        <pt x="283" y="-29" on="1"/>
        <pt x="233" y="-29" on="0"/>
        <pt x="207" y="-3" on="1"/>
        <pt x="162" y="42" on="0"/>
      </contour>
    </TTGlyph>
    <TTGlyph name="exclamdown" xMin="153" yMin="-29" xMax="409" yMax="1312">
      <contour>
        <pt x="409" y="25" on="0"/>
        <pt x="334" y="-29" on="0"/>
        <pt x="221" y="-29" on="0"/>
        <pt x="153" y="20" on="0"/>
        <pt x="153" y="130" on="0"/>
        <pt x="164" y="252" on="0"/>
        <pt x="181" y="386" on="0"/>
        <pt x="202" y="527" on="0"/>
        <pt x="223" y="662" on="0"/>
        <pt x="242" y="784" on="0"/>
        <pt x="249" y="842" on="0"/>
        <pt x="251" y="873" on="0"/>
        <pt x="254" y="888" on="1"/>
        <pt x="261" y="927" on="0"/>
        <pt x="283" y="927" on="1"/>
        <pt x="307" y="927" on="0"/>
        <pt x="314" y="842" on="1"/>
        <pt x="316" y="821" on="0"/>
        <pt x="343" y="652" on="0"/>
        <pt x="364" y="519" on="0"/>
        <pt x="383" y="378" on="0"/>
        <pt x="391" y="312" on="1"/>
        <pt x="409" y="164" on="0"/>
      </contour>
      <contour>
        <pt x="162" y="1191" on="1"/>
        <pt x="162" y="1241" on="0"/>
        <pt x="188" y="1267" on="1"/>
        <pt x="233" y="1312" on="0"/>
        <pt x="283" y="1312" on="1"/>
        <pt x="333" y="1312" on="0"/>
        <pt x="360" y="1286" on="1"/>
        <pt x="407" y="1242" on="0"/>
        <pt x="407" y="1165" on="0"/>
        <pt x="387" y="1120" on="0"/>
        <pt x="370" y="1104" on="1"/>
        <pt x="334" y="1067" on="0"/>
        <pt x="257" y="1067" on="0"/>
        <pt x="213" y="1087" on="0"/>
        <pt x="197" y="1104" on="1"/>
        <pt x="162" y="1141" on="0"/>
      </contour>
    </TTGlyph>
</ttFont>
